<?xml version="1.0" standalone="no"?>
<!DOCTYPE svg PUBLIC "-//W3C//DTD SVG 1.1//EN" "http://www.w3.org/Graphics/SVG/1.1/DTD/svg11.dtd" >
<svg>
<metadata>
Created by FontForge 20090914 at Mon Mar 14 08:01:32 2016
 By www-data
Copyright &#194;&#169; 2013, Natanael Gama (www.ndiscovered.com . info(at)ndiscovered.com), with Reserved Font Name Exo. This Font Software is licensed under the SIL Open Font License, Version 1.1.
</metadata>
<defs>
<font id="Exo2-SemiBold" horiz-adv-x="568" >
  <font-face 
    font-family="Exo 2 Semi Bold"
    font-weight="600"
    font-stretch="normal"
    units-per-em="1000"
    panose-1="0 0 7 0 0 0 0 0 0 0"
    ascent="800"
    descent="-200"
    x-height="490"
    cap-height="690"
    bbox="-175 -285 1241 944"
    underline-thickness="50"
    underline-position="-50"
    unicode-range="U+0020-U+FB02"
  />
<missing-glyph horiz-adv-x="600" 
 />
    <glyph glyph-name=".notdef" horiz-adv-x="600" 
 />
    <glyph glyph-name="space" unicode=" " horiz-adv-x="220" 
 />
    <glyph glyph-name="exclam" unicode="!" horiz-adv-x="287" 
d="M204 410l-13 -194h-95l-13 194v285h121v-285zM130 137h29c16 0 27.167 -3.16699 33.5 -9.5s9.5 -17.5 9.5 -33.5v-51c0 -16 -3.16699 -27.167 -9.5 -33.5s-17.5 -9.5 -33.5 -9.5h-29c-16.667 0 -28.167 3.16699 -34.5 9.5s-9.5 17.5 -9.5 33.5v51
c0 16 3.16699 27.167 9.5 33.5s17.833 9.5 34.5 9.5z" />
    <glyph glyph-name="quotedbl" unicode="&#x22;" horiz-adv-x="367" 
d="M146 472h-79l-7 218h94zM300 472h-78l-8 218h94z" />
    <glyph glyph-name="numbersign" unicode="#" horiz-adv-x="698" 
d="M537 435l-28 -157h110l-15 -74h-107l-36 -204h-93l35 204h-157l-36 -204h-93l35 204h-116l14 74h115l27 157h-114l14 75h113l32 180h93l-31 -180h157l32 180h93l-31 -180h111l-15 -75h-109zM443 435h-157l-28 -157h158z" />
    <glyph glyph-name="dollar" unicode="$" horiz-adv-x="570" 
d="M326 400l59 -18.001c52 -16.667 88.5 -41.167 109.5 -73.5s31.5 -74.833 31.5 -127.5c0 -76 -17.833 -127.167 -53.5 -153.5s-99.167 -39.5 -190.5 -39.5h-2l-9 -110h-55l10 111c-53.333 2.66699 -109.333 9.66699 -168 21l8 95l170 -3l17 195l-64 20
c-50 16 -85.667 40.167 -107 72.5s-32 74.833 -32 127.5c0 75.333 17.333 125 52 149s96 36 184 36h12l8 94h54l-8 -95c57.333 -3.33301 107.333 -10.666 150 -21.999l-8 -89c-86 2 -136.667 3 -152 3zM272 416.999l16.001 177.003
c-45.333 -0.666992 -75.5 -5.33398 -90.5 -14.001s-22.5 -30.334 -22.5 -65.001c0 -28.667 5.66699 -48.834 17 -60.501s31.666 -22.167 60.999 -31.5zM305.001 280.002l-15 -178.999c44 0.666992 73.333 6.16699 88 16.5s22 31.833 22 64.5
c0 29.333 -5.16699 49.666 -15.5 60.999s-29.5 21.333 -57.5 30z" />
    <glyph glyph-name="percent" unicode="%" horiz-adv-x="901" 
d="M206 703c62 0 105.333 -15.333 130 -46s37 -83.667 37 -159c0 -74.667 -12.5 -127.5 -37.5 -158.5s-68.167 -46.5 -129.5 -46.5s-104.5 15.5 -129.5 46.5s-37.5 83.833 -37.5 158.5c0 75.333 12.333 128.333 37 159s68 46 130 46zM276 0h-81l428 690h80zM205 631
c-29.333 0 -49.166 -9.33301 -59.499 -28s-15.5 -53.667 -15.5 -105c0 -52 5.16699 -87.167 15.5 -105.5s30.166 -27.5 59.499 -27.5s49.5 9.16699 60.5 27.5s16.5 53.5 16.5 105.5c0 51.333 -5.5 86.333 -16.5 105s-31.167 28 -60.5 28zM694 400
c61.333 0 104.5 -15.5 129.5 -46.5s37.5 -83.833 37.5 -158.5c0 -76 -12.333 -129.333 -37 -160s-68 -46 -130 -46c-61.333 0 -104.333 15.333 -129 46s-37 84 -37 160c0 74.667 12.333 127.5 37 158.5s67.667 46.5 129 46.5zM694 327c-30 0 -50.168 -9 -60.501 -27
s-15.166 -53 -14.499 -105c-0.666992 -52 4.33301 -87.333 15 -106s30.667 -28 60 -28s49.333 9.33301 60 28s16 54 16 106s-5.33301 87 -16 105s-30.667 27 -60 27z" />
    <glyph glyph-name="ampersand" unicode="&#x26;" horiz-adv-x="767" 
d="M713 92l12.998 -86.0039c-32.667 -11.333 -72 -17 -118 -17c-66.667 0 -108 26 -124 78c-28 -28 -58.833 -48 -92.5 -60s-76.5 -18 -128.5 -18c-74 0 -126.667 13.833 -158 41.5s-47 75.834 -47 144.501c0 55.333 10.5 98.333 31.5 129s55.833 48 104.5 52v4
c-41.333 4 -70.833 19 -88.5 45s-26.5 64.667 -26.5 116c0 40 4.5 71.833 13.5 95.5s25.333 41.834 49 54.501s50.334 20.834 80.001 24.501s70.167 5.5 121.5 5.5c63.333 0 117 -3.66699 161 -11l-15 -91c-30.667 2 -80.667 3 -150 3
c-53.333 0 -88.833 -6.16699 -106.5 -18.5s-26.5 -39.5 -26.5 -81.5c0 -39.333 7.66699 -65.833 23 -79.5s44 -20.5 86 -20.5h166l9 114h102v-114h115v-91h-115v-162c0 -21.333 3.83301 -36.166 11.5 -44.499s21.834 -12.5 42.501 -12.5h67zM477.998 310.996
l-170 0.000976562c-44.667 0 -75.5 -8 -92.5 -24s-25.5 -45.667 -25.5 -89c0 -40.667 7.5 -68.167 22.5 -82.5s43.167 -21.5 84.5 -21.5c74 1.33301 134.333 20.666 181 57.999v159z" />
    <glyph glyph-name="quotesingle" unicode="'" horiz-adv-x="213" 
d="M146 472h-79l-7 218h94z" />
    <glyph glyph-name="parenleft" unicode="(" horiz-adv-x="362" 
d="M324 790l14 -53.998c-61.333 -28.667 -105.833 -78.167 -133.5 -148.5s-41.5 -161.833 -41.5 -274.5c0 -224 58.333 -365.333 175 -424l-14 -54c-96 33.333 -166.5 88.666 -211.5 165.999s-67.5 181 -67.5 311c0 131.333 22.5 235.666 67.5 312.999
s115.5 132.333 211.5 165z" />
    <glyph glyph-name="parenright" unicode=")" horiz-adv-x="362" 
d="M24 736l15 53.998c96 -32.667 166.5 -87.667 211.5 -165s67.5 -181.666 67.5 -312.999c0 -130 -22.5 -233.667 -67.5 -311s-115.5 -132.666 -211.5 -165.999l-15 54c116.667 58.667 175 200 175 424c0 112.667 -13.833 204.167 -41.5 274.5s-72.167 119.833 -133.5 148.5
z" />
    <glyph glyph-name="asterisk" unicode="*" horiz-adv-x="450" 
d="M249 527l104 -129l-55 -41l-73 122l-73 -121l-56 40l104 128l-10 165h70zM406 541l-123 -30l-16 19v30l117 47zM182 560v-30l-14 -19l-124 31l22 65z" />
    <glyph glyph-name="plus" unicode="+" horiz-adv-x="546" 
d="M497 255h-179v-171h-91v171h-178v90h178v171h91v-171h179v-90z" />
    <glyph glyph-name="comma" unicode="," horiz-adv-x="238" 
d="M103 137h33.001c16 0 27 -3.16699 33 -9.5s9 -17.5 9 -33.5v-64c-0.666992 -62.667 -15.334 -119.334 -44.001 -170.001l-55 15c8.66699 40.667 13 82.334 13 125.001c-22.667 0 -34 12.667 -34 38v56c0.666992 16 4.5 27.167 11.5 33.5s18.167 9.5 33.5 9.5z" />
    <glyph glyph-name="hyphen" unicode="-" horiz-adv-x="428" 
d="M364 211h-300v86h300v-86z" />
    <glyph glyph-name="period" unicode="." horiz-adv-x="240" 
d="M102 137h36c16.667 0 28.167 -3.16699 34.5 -9.5s9.5 -17.5 9.5 -33.5v-51c0 -16 -3.16699 -27.167 -9.5 -33.5s-17.833 -9.5 -34.5 -9.5h-36c-16.667 0 -28.167 3.16699 -34.5 9.5s-9.5 17.5 -9.5 33.5v51c0 16 3.16699 27.167 9.5 33.5s17.833 9.5 34.5 9.5z" />
    <glyph glyph-name="slash" unicode="/" horiz-adv-x="534" 
d="M119 -69h-97l393 759h97z" />
    <glyph glyph-name="zero" unicode="0" horiz-adv-x="617" 
d="M308 703c93.333 0 158.833 -27.167 196.5 -81.5s56.5 -146.5 56.5 -276.5s-18.833 -222.167 -56.5 -276.5s-103.167 -81.5 -196.5 -81.5s-158.666 27.167 -195.999 81.5s-56 146.5 -56 276.5s18.667 222.167 56 276.5s102.666 81.5 195.999 81.5zM307 598
c-49.333 0 -83.166 -18 -101.499 -54s-27.5 -102.333 -27.5 -199s9.16699 -163 27.5 -199s52.166 -54 101.499 -54c50.667 0 85.334 18 104.001 54s28 102.333 28 199s-9.33301 163 -28 199s-53.334 54 -104.001 54z" />
    <glyph glyph-name="one" unicode="1" horiz-adv-x="414" 
d="M312 0h-125v509c0 26 1.66699 48.667 5 68l-162 -46l-15 89l172 70h125v-690z" />
    <glyph glyph-name="two" unicode="2" horiz-adv-x="569" 
d="M62 581l-6.99902 96.002c76 16.667 150 25 222 25c74.667 0 130.167 -10.833 166.5 -32.5s54.5 -62.834 54.5 -123.501c0 -42 -8 -79.833 -24 -113.5s-46.333 -74.834 -91 -123.501l-183 -197c27.333 4 63 6 107 6h213v-118h-470v75c0 22 6 39.333 18 52l180 199
c83.333 88.667 124.666 158.667 123.999 210c-0.666992 24 -9.16699 39.5 -25.5 46.5s-43.833 10.5 -82.5 10.5c-64 0 -131.333 -4 -202 -12z" />
    <glyph glyph-name="three" unicode="3" horiz-adv-x="561" 
d="M65 590l-5.99902 95c70.667 12 139.334 18 206.001 18c78.667 0 134.834 -11.667 168.501 -35s50.5 -65 50.5 -125c0 -50 -7.5 -89.667 -22.5 -119s-41.167 -47.666 -78.5 -54.999v-4c43.333 -7.33301 73.666 -25 90.999 -53s26.666 -68 27.999 -120
c1.33301 -72 -15.334 -124.167 -50.001 -156.5s-93.667 -48.5 -177 -48.5c-65.333 0 -141.666 6 -228.999 18l6 98c80 -5.33301 143.333 -8 190 -8c51.333 0 86.833 8 106.5 24s29.5 45.333 29.5 88c0 38 -8 65.5 -24 82.5s-47 25.167 -93 24.5h-128v93h128
c43.333 0 71.5 8.66699 84.5 26s19.5 43.666 19.5 78.999c-0.666992 36 -8.83398 59 -24.501 69s-47.5 15 -95.5 15c-72 0 -132 -2 -180 -6z" />
    <glyph glyph-name="four" unicode="4" horiz-adv-x="627" 
d="M590 253l0.000976562 -84l-87 -13h-2v-156h-118v156h-271c-30.667 0 -53.5 12.333 -68.5 37s-16.5 51 -4.5 79l184 418h121l-175 -401c-10.667 -24 -3.33398 -36 21.999 -36h192v192l21 112h97v-304h89z" />
    <glyph glyph-name="five" unicode="5" horiz-adv-x="544" 
d="M471 587l-284.002 -0.00195312l-8 -147l87 -10c84 -8 143.333 -29.5 178 -64.5s51.667 -87.167 51 -156.5c0 -30.667 -3.33301 -58.167 -10 -82.5s-18 -47.5 -34 -69.5s-39.833 -39 -71.5 -51s-70.167 -18 -115.5 -18c-66 0 -139.333 7.66699 -220 23l13 101
c63.333 -10 122 -15 176 -15s90.333 8.5 109 25.5s28.667 46.167 30 87.5c0.666992 17.333 0 32.166 -2 44.499s-6.83301 22.833 -14.5 31.5s-15.167 15.5 -22.5 20.5s-20 9.33301 -38 13s-34.167 6.33398 -48.5 8.00098s-36.166 3.83398 -65.499 6.50098l-66 7
c-13.333 0.666992 -24.166 5.83398 -32.499 15.501s-11.833 21.167 -10.5 34.5l16 299h387z" />
    <glyph glyph-name="six" unicode="6" horiz-adv-x="579" 
d="M488 685l-8.00098 -87.002c-32 1.33301 -80 2 -144 2c-38.667 0 -68 -4.66699 -88 -14s-35.667 -28.833 -47 -58.5s-18 -73.5 -20 -131.5c21.333 21.333 44.166 36.333 68.499 45s54.5 13 90.5 13c72.667 0 123 -16.667 151 -50s42 -91 42 -173
c0 -40 -3 -73.833 -9 -101.5s-17 -52.667 -33 -75s-39.5 -39 -70.5 -50s-70.167 -16.5 -117.5 -16.5c-99.333 0 -165 23.5 -197 70.5s-48 139.833 -48 278.5c0 62.667 3.83301 115.834 11.5 159.501s18.334 78.834 32.001 105.501s32.667 47.5 57 62.5s50 25 77 30
s60.5 7.5 100.5 7.5c60.667 0 111.334 -5.66699 152.001 -17zM303.999 89.998c46 0 75.833 10.5 89.5 31.5s20.5 57.167 20.5 108.5c0 48 -7.5 81.167 -22.5 99.5s-43.833 27.5 -86.5 27.5c-42 0 -83.667 -15.333 -125 -46c0 -92 7 -151.833 21 -179.5
s48.333 -41.5 103 -41.5z" />
    <glyph glyph-name="seven" unicode="7" horiz-adv-x="519" 
d="M32 690h401.999c23.333 0 40 -6.83301 50 -20.5s11.667 -30.834 5 -51.501l-211 -618h-124l182 526c6.66699 22.667 15.334 42.334 26.001 59.001h-324z" />
    <glyph glyph-name="eight" unicode="8" horiz-adv-x="610" 
d="M175 356v4.00098c-34 4 -59 20.167 -75 48.5s-24 64.833 -24 109.5c0 66 16 113 48 141s92.333 42 181 42c89.333 0 150 -13.833 182 -41.5s48 -74.834 48 -141.501c0 -44.667 -8.16699 -81.167 -24.5 -109.5s-41.5 -44.5 -75.5 -48.5v-4
c42.667 -4 72.667 -21.833 90 -53.5s26 -75.167 26 -130.5c0 -66 -17 -113 -51 -141s-99 -42.333 -195 -43c-94 -0.666992 -158.333 13.333 -193 42s-52 76 -52 142c0 55.333 8.5 98.833 25.5 130.5s46.833 49.5 89.5 53.5zM306 606.001c-46.667 0 -77.832 -7 -93.499 -21
s-23.5 -40.667 -23.5 -80c0 -40 7.83301 -66.667 23.5 -80s47.167 -20 94.5 -20s78.166 6.66699 92.499 20s21.5 40 21.5 80c0 39.333 -7.5 66 -22.5 80s-45.833 21 -92.5 21zM307.002 311.001c-52 -0.666992 -86.501 -8.5 -103.501 -23.5s-25.5 -44.5 -25.5 -88.5
c0 -42 8.5 -70.5 25.5 -85.5s51.167 -22.5 102.5 -22.5c50.667 0 84.334 7.5 101.001 22.5s25 43.5 25 85.5c0 44.667 -8.16699 74.5 -24.5 89.5s-49.833 22.5 -100.5 22.5z" />
    <glyph glyph-name="nine" unicode="9" horiz-adv-x="579" 
d="M78 5l9.00195 87.999c34.667 -2 86.334 -3 155.001 -3c57.333 0 97 14.167 119 42.5s34.667 83.166 38 164.499c-22 -22.667 -45.333 -38.5 -70 -47.5s-55.334 -13.5 -92.001 -13.5c-126 0 -189 74.333 -189 223c-0.666992 84.667 16.666 146.334 51.999 185.001
s95.333 58 180 58c42 0 76.833 -3.66699 104.5 -11s50.667 -18.5 69 -33.5s32.166 -37 41.499 -66s15.833 -61.667 19.5 -98s5.5 -83.166 5.5 -140.499c0 -76.667 -4.83301 -138.834 -14.5 -186.501s-26.334 -84.667 -50.001 -111s-51.667 -44.166 -84 -53.499
s-75.166 -14 -128.499 -14c-64.667 0 -119.667 5.66699 -165 17zM273.002 331.999c23.333 0 44.166 3.50293 62.499 10.5029s39.833 19.5 64.5 37.5c0 39.333 -0.833008 69.666 -2.5 90.999s-4.5 41.666 -8.5 60.999s-10.667 33.166 -20 41.499s-21 14.833 -35 19.5
s-32.333 7 -55 7c-46 0 -76.5 -10.833 -91.5 -32.5s-22.167 -57.5 -21.5 -107.5c-0.666992 -44.667 6.83301 -77.167 22.5 -97.5s43.834 -30.5 84.501 -30.5z" />
    <glyph glyph-name="colon" unicode=":" horiz-adv-x="251" 
d="M103 446h36c16.667 0 28.167 -3.16699 34.5 -9.5s9.5 -17.5 9.5 -33.5v-51c0 -16 -3.16699 -27.167 -9.5 -33.5s-17.833 -9.5 -34.5 -9.5h-36c-16.667 0 -28.167 3.16699 -34.5 9.5s-9.5 17.5 -9.5 33.5v51c0 16 3.16699 27.167 9.5 33.5s17.833 9.5 34.5 9.5zM103 137
h36c16.667 0 28.167 -3 34.5 -9s9.5 -17.333 9.5 -34v-50c0 -16.667 -3.16699 -28.167 -9.5 -34.5s-17.833 -9.5 -34.5 -9.5h-36c-16.667 0 -28.167 3.16699 -34.5 9.5s-9.5 17.833 -9.5 34.5v50c0 16.667 3.16699 28 9.5 34s17.833 9 34.5 9z" />
    <glyph glyph-name="semicolon" unicode=";" horiz-adv-x="252" 
d="M109 446h37c16 0 27.167 -3.16699 33.5 -9.5s9.5 -17.5 9.5 -33.5v-51c0 -16 -3.16699 -27.167 -9.5 -33.5s-17.5 -9.5 -33.5 -9.5h-37c-16 0 -27.167 3.16699 -33.5 9.5s-9.5 17.5 -9.5 33.5v51c0 16 3.16699 27.167 9.5 33.5s17.5 9.5 33.5 9.5zM111 137h32.001
c16 0 27.167 -3.16699 33.5 -9.5s9.5 -17.5 9.5 -33.5v-64c-0.666992 -61.333 -15.667 -118 -45 -170l-54 15c8 36 12.333 77.667 13 125c-22.667 0 -34 12.667 -34 38v56c1.33301 16 5.16602 27.167 11.499 33.5s17.5 9.5 33.5 9.5z" />
    <glyph glyph-name="less" unicode="&#x3c;" horiz-adv-x="523" 
d="M460 420l-311 -120l311 -120v-95l-414 167v95l414 169v-96z" />
    <glyph glyph-name="equal" unicode="=" horiz-adv-x="582" 
d="M516 357h-450v88h450v-88zM516 145h-450v88h450v-88z" />
    <glyph glyph-name="greater" unicode="&#x3e;" horiz-adv-x="523" 
d="M477 347v-95l-414 -167v95l311 120l-311 120v96z" />
    <glyph glyph-name="question" unicode="?" horiz-adv-x="508" 
d="M39 604l-5.00195 85c6 1.33301 17 3.5 33 6.5s26.833 4.83301 32.5 5.5s15.667 2 30 4s26.833 3.33301 37.5 4s24.667 1.33398 42 2.00098s36 1 56 1c70 0 122.167 -12.667 156.5 -38s51.5 -64.333 51.5 -117c0 -27.333 -5.83301 -52.5 -17.5 -75.5
s-26 -43.167 -43 -60.5l-51 -53c-17 -18 -32 -40 -45 -66s-20.5 -54.667 -22.5 -86h-101c-0.666992 33.333 3.83301 64.166 13.5 92.499s21.834 52 36.501 71s29.5 36.833 44.5 53.5s28.167 33.5 39.5 50.5s17.333 33.833 18 50.5c1.33301 26.667 -6.5 46.167 -23.5 58.5
s-44.833 18.5 -83.5 18.5c-53.333 0 -119.666 -2.33301 -198.999 -7zM228.998 137h29c16.667 0 28.167 -3.16699 34.5 -9.5s9.5 -17.5 9.5 -33.5v-51c0 -16 -3.16699 -27.167 -9.5 -33.5s-17.833 -9.5 -34.5 -9.5h-29c-16.667 0 -28.167 3.16699 -34.5 9.5
s-9.5 17.5 -9.5 33.5v51c0 16 3.16699 27.167 9.5 33.5s17.833 9.5 34.5 9.5z" />
    <glyph glyph-name="at" unicode="@" horiz-adv-x="737" 
d="M363 594l147.008 -0.00390625c54 0 94.667 -12 122 -36s41 -64 41 -120v-304h-90l-11 71c-20 -21.333 -46.333 -40.166 -79 -56.499s-67.334 -24.5 -104.001 -24.5c-40.667 0 -73.5 10.833 -98.5 32.5s-37.5 52.5 -37.5 92.5v49c0 33.333 10.167 59.5 30.5 78.5
s49.833 28.5 88.5 28.5h187v30c0 24.667 -5.16699 41.334 -15.5 50.001s-29.5 13 -57.5 13h-123c-32 0 -55.833 -0.333008 -71.5 -1s-31.834 -3.83398 -48.501 -9.50098s-28.167 -12.667 -34.5 -21s-12.5 -22 -18.5 -41s-9.5 -40.167 -10.5 -63.5s-1.5 -55 -1.5 -95
c0 -24.667 0.166992 -45.667 0.5 -63s1.66602 -34 3.99902 -50s4.16602 -29.167 5.49902 -39.5s5.16602 -20.166 11.499 -29.499l15 -22c3.66699 -5.33301 11.167 -10.166 22.5 -14.499s20.666 -7.33301 27.999 -9s19.666 -3.16699 36.999 -4.5s32.166 -2 44.499 -2h55.5
h270v-86c-93.333 -7.33301 -183.333 -11 -270 -11c-54 -0.666992 -97.667 0.166016 -131 2.49902s-63.666 8.33301 -90.999 18s-47.833 21 -61.5 34s-25 33.333 -34 61s-14.667 57.334 -17 89.001s-3.5 73.834 -3.5 126.501c0 52 1 93.5 3 124.5s7 60 15 87s18 47 30 60
s30.167 24.333 54.5 34s51.166 15.667 80.499 18s68 3.5 116 3.5zM559.008 336.996l-142 -3.99902c-20 -0.666992 -33.833 -4.5 -41.5 -11.5s-11.5 -18.833 -11.5 -35.5v-16c0 -36.667 17.667 -55 53 -55c24 0 49.167 4.66699 75.5 14s48.5 22.666 66.5 39.999v68z" />
    <glyph glyph-name="A" unicode="A" horiz-adv-x="636" 
d="M446 195h-256l-57 -195h-128l207 657c6 22 21 33 45 33h122c24 0 39 -11 45 -33l207 -657h-128zM416 298l-69 238c-9.33301 36 -14.333 55.667 -15 59h-27l-16 -59l-69 -238h196z" />
    <glyph glyph-name="B" unicode="B" horiz-adv-x="628" 
d="M439 360v-4.00195c50 -4.66699 85.667 -22.167 107 -52.5s32 -74.166 32 -131.499c0 -69.333 -17 -116.666 -51 -141.999s-92.333 -38 -175 -38c-120 0 -211.667 2.66699 -275 8v690c56.667 5.33301 138 8 244 8c88.667 0 150.167 -12.5 184.5 -37.5
s51.5 -72.5 51.5 -142.5c0 -50 -9.33301 -87.833 -28 -113.5s-48.667 -40.5 -90 -44.5zM200 402.998l125 -0.000976562c42.667 0 72 6.83301 88 20.5s24 39.834 24 78.501c0 38 -8.66699 63.333 -26 76s-49.333 19 -96 19h-115v-194zM200 93.9971l131 -1.00098
c47.333 0 79.5 6.83301 96.5 20.5s25.5 40.834 25.5 81.501c0 45.333 -9 76 -27 92s-51 24.333 -99 25h-127v-218z" />
    <glyph glyph-name="C" unicode="C" horiz-adv-x="578" 
d="M535 108l11 -93.998c-55.333 -17.333 -126 -26 -212 -26c-103.333 0 -176 26.667 -218 80s-63 145.666 -63 276.999s21 223.666 63 276.999s114.667 80 218 80c76.667 0 142.667 -7.33301 198 -22l-12 -95c-58 4.66699 -120 7 -186 7c-57.333 0 -96.5 -17.5 -117.5 -52.5
s-31.5 -99.833 -31.5 -194.5s10.5 -159.5 31.5 -194.5s60.167 -52.5 117.5 -52.5c84.667 0 151.667 3.33301 201 10z" />
    <glyph glyph-name="D" unicode="D" horiz-adv-x="671" 
d="M77 0v689.998c91.333 6 177.333 9 258 9c104.667 0 177.834 -25.667 219.501 -77s62.5 -143.666 62.5 -276.999s-20.833 -225.666 -62.5 -276.999s-114.834 -77 -219.501 -77c-80.667 0 -166.667 3 -258 9zM202 593.998l0.00195312 -496.001
c52 -1.33301 96.333 -2 133 -2c57.333 0 96.666 17.833 117.999 53.5s32 100.834 32 195.501s-10.833 160 -32.5 196s-60.834 54 -117.501 54c-18 0 -41.5 -0.166992 -70.5 -0.5s-49.833 -0.5 -62.5 -0.5z" />
    <glyph glyph-name="E" unicode="E" 
d="M517 101l6 -95c-60.667 -5.33301 -162 -8 -304 -8c-45.333 0 -81.166 11.667 -107.499 35s-39.833 55.333 -40.5 96v432c0.666992 40.667 14.167 72.667 40.5 96s62.166 35 107.499 35c142 0 243.333 -2.66699 304 -8l-6 -96h-270c-18 0 -30.833 -4.33301 -38.5 -13
s-11.5 -23.667 -11.5 -45v-121h283v-96h-283v-154c0 -21.333 3.83301 -36.333 11.5 -45s20.5 -13 38.5 -13h270z" />
    <glyph glyph-name="F" unicode="F" horiz-adv-x="546" 
d="M510 588h-250c-22 0 -37.333 -4.33301 -46 -13s-13 -23.667 -13 -45v-133h272v-97h-272v-300h-126v556c0 42.667 13.333 76 40 100s62.667 36 108 36c137.333 0 235.333 -3 294 -9z" />
    <glyph glyph-name="G" unicode="G" horiz-adv-x="635" 
d="M576 398v-397.999h-93l-11 68c-57.333 -54 -124.666 -81 -201.999 -81c-76 0 -131 28.833 -165 86.5s-51 149.167 -51 274.5c0 136 22 229.167 66 279.5s122.667 75.5 236 75.5c76.667 0 142.667 -7.66699 198 -23l-10 -93c-64.667 4 -125.334 6 -182.001 6
c-36 0 -64 -2.5 -84 -7.5s-37.667 -16.333 -53 -34s-25.833 -43 -31.5 -76s-8.5 -77.833 -8.5 -134.5c0 -92.667 9 -156.834 27 -192.501s50.333 -53.5 97 -53.5c44.667 0 93 16 145 48v255h122z" />
    <glyph glyph-name="H" unicode="H" horiz-adv-x="678" 
d="M600 690v-690h-125v316h-273v-316h-125v690h125v-271h273v271h125z" />
    <glyph glyph-name="I" unicode="I" horiz-adv-x="279" 
d="M202 0h-125v690h125v-690z" />
    <glyph glyph-name="J" unicode="J" horiz-adv-x="354" 
d="M279 690l0.000976562 -538c0 -52.667 -12.5 -93 -37.5 -121s-60.5 -42 -106.5 -42c-44.667 0 -81.334 5.66699 -110.001 17l13 87h47c46.667 0 70 20.667 70 62v535h124z" />
    <glyph glyph-name="K" unicode="K" horiz-adv-x="612" 
d="M263 311h-68.001c4.66699 -21.333 7 -44 7 -68v-243h-125v690h125v-203c0 -29.333 -2.33301 -56 -7 -80h68l189 283h136l-186 -278c-11.333 -18 -26.666 -35.333 -45.999 -52v-3c23.333 -19.333 41.333 -39 54 -59l191 -298h-140z" />
    <glyph glyph-name="L" unicode="L" horiz-adv-x="521" 
d="M200 690l-0.000976562 -529.001c0 -21.333 4.33301 -36.166 13 -44.499s24 -12.5 46 -12.5h240l5 -97c-65.333 -6 -156.666 -9 -273.999 -9c-103.333 0 -155 47.667 -155 143v549h125z" />
    <glyph glyph-name="M" unicode="M" horiz-adv-x="894" 
d="M625 690l129.002 -0.000976562c31.333 0 47.666 -16.333 48.999 -49l28 -641h-123l-23 589h-19l-119 -459c-7.33301 -28 -24.666 -42 -51.999 -42h-96c-28 0 -45.667 14 -53 42l-121 459h-17l-22 -589h-122l26 641c1.33301 32.667 17.666 49 48.999 49h130
c27.333 0 44.333 -14 51 -42l98 -374c1.33301 -4.66699 8.33301 -36 21 -94h15c7.33301 38.667 14.333 70.334 21 95.001l98 373c7.33301 28 24.666 42 51.999 42z" />
    <glyph glyph-name="N" unicode="N" horiz-adv-x="715" 
d="M638 690v-643.999c0 -30.667 -15.333 -46 -46 -46h-99c-24 0 -41.333 12.667 -52 38l-194 423c-23.333 50 -37 84.333 -41 103h-12c4 -28 6 -62.667 6 -104v-460h-123v644c0 30.667 15.667 46 47 46h97c13.333 0 23.833 -3 31.5 -9s14.5 -15.667 20.5 -29l188 -411
l21 -47c12 -26.667 21 -47.334 27 -62.001h12c-3.33301 42 -5 79.333 -5 112v446h122z" />
    <glyph glyph-name="O" unicode="O" horiz-adv-x="675" 
d="M337 703c106.667 0 180.834 -25.667 222.501 -77s62.5 -145 62.5 -281s-20.833 -229.667 -62.5 -281s-115.834 -77 -222.501 -77c-106 0 -179.833 25.667 -221.5 77s-62.5 145 -62.5 281s20.833 229.667 62.5 281s115.5 77 221.5 77zM337 596
c-58 0 -97.833 -17.833 -119.5 -53.5s-32.5 -101.5 -32.5 -197.5s10.833 -161.833 32.5 -197.5s61.5 -53.5 119.5 -53.5c58.667 0 98.834 17.833 120.501 53.5s32.5 101.5 32.5 197.5s-10.833 161.833 -32.5 197.5s-61.834 53.5 -120.501 53.5z" />
    <glyph glyph-name="P" unicode="P" horiz-adv-x="601" 
d="M77 0v690c59.333 6 142.666 9 249.999 9c90.667 0 152.834 -15.5 186.501 -46.5s50.5 -89.5 50.5 -175.5s-16 -144.5 -48 -175.5s-89.667 -46.5 -173 -46.5c-49.333 0 -96.333 2.66699 -141 8v-263h-125zM202 357h122c44 0.666992 74 9.16699 90 25.5s24 47.833 24 94.5
s-8 78.167 -24 94.5s-46 24.5 -90 24.5h-122v-239z" />
    <glyph glyph-name="Q" unicode="Q" horiz-adv-x="677" 
d="M338 703c106 0 180 -25.833 222 -77.5s63 -145.167 63 -280.5s-21 -228.833 -63 -280.5s-116 -77.5 -222 -77.5s-179.833 25.667 -221.5 77s-62.5 145 -62.5 281s20.833 229.667 62.5 281s115.5 77 221.5 77zM338 596c-58 0 -98 -17.833 -120 -53.5
s-33 -101.5 -33 -197.5s11 -161.833 33 -197.5s62 -53.5 120 -53.5c58.667 0 98.834 17.833 120.501 53.5s32.5 101.5 32.5 197.5s-10.833 161.833 -32.5 197.5s-61.834 53.5 -120.501 53.5zM261 -111l31 73c83.333 -29.333 179.333 -51.333 288 -66l-39 -120
c-88.667 21.333 -182 59 -280 113z" />
    <glyph glyph-name="R" unicode="R" horiz-adv-x="629" 
d="M593 0h-132.998l-55 214c-12.667 41.333 -39.334 62 -80.001 62l-124 1v-277h-124v690c59.333 6 143 9 251 9c87.333 0 149.166 -14.5 185.499 -43.5s54.5 -81.833 54.5 -158.5c0 -53.333 -10 -94.166 -30 -122.499s-53 -45.5 -99 -51.5v-5
c20 -4.66699 38.667 -15.334 56 -32.001s29.333 -40 36 -70zM201.002 379h124c44.667 0.666992 75.167 8.66699 91.5 24s24.5 44 24.5 86s-8.16699 70.333 -24.5 85s-46.833 22 -91.5 22h-124v-217z" />
    <glyph glyph-name="S" unicode="S" horiz-adv-x="570" 
d="M326 273l-139 44.001c-50 16 -85.667 40.167 -107 72.5s-32 74.833 -32 127.5c0 75.333 17.5 125 52.5 149s96.5 36 184.5 36c84.667 0 157 -7.66699 217 -23l-8 -89c-76 2.66699 -144.333 4 -205 4c-46 0 -76.667 -4.5 -92 -13.5s-23 -30.833 -23 -65.5
c0 -28.667 5.5 -48.834 16.5 -60.501s31.167 -22.167 60.5 -31.5l133 -41c52.667 -16.667 89.5 -41.167 110.5 -73.5s31.5 -74.833 31.5 -127.5c0 -76 -18 -127.167 -54 -153.5s-99.667 -39.5 -191 -39.5c-76 0 -150.667 7.33301 -224 22l8 92
c116.667 -2.66699 189.667 -4 219 -4c46 0 76.667 5.33301 92 16s23 33.334 23 68.001c0 29.333 -5.16699 49.666 -15.5 60.999s-29.5 21.333 -57.5 30z" />
    <glyph glyph-name="T" unicode="T" horiz-adv-x="592" 
d="M571 583h-213v-583h-126v583h-211v107h550v-107z" />
    <glyph glyph-name="U" unicode="U" horiz-adv-x="671" 
d="M599 690l0.000976562 -420c0 -103.333 -19.333 -176.333 -58 -219s-105.334 -64 -200.001 -64c-98.667 0 -168.167 21.333 -208.5 64s-60.5 115.667 -60.5 219v420h125v-420c0 -66 10.167 -111.833 30.5 -137.5s56.5 -38.5 108.5 -38.5c51.333 0 87 12.833 107 38.5
s30 71.5 30 137.5v420h126z" />
    <glyph glyph-name="V" unicode="V" horiz-adv-x="622" 
d="M611 690l-195 -655c-6.66699 -23.333 -22 -35 -46 -35h-118c-10.667 0 -20.167 3.16699 -28.5 9.5s-13.833 14.833 -16.5 25.5l-196 655h129l141 -518c2 -8 5 -20.833 9 -38.5s7 -30.5 9 -38.5h25c4 21.333 10.333 47 19 77l139 518h129z" />
    <glyph glyph-name="W" unicode="W" horiz-adv-x="961" 
d="M932 690l-119 -654.999c-2.66699 -10.667 -8.16699 -19.167 -16.5 -25.5s-18.166 -9.5 -29.499 -9.5h-131c-26 0 -41.333 12 -46 36l-87 481c-3.33301 18 -7.66602 45 -12.999 81h-20c-6 -38.667 -10.333 -65.667 -13 -81l-86 -481
c-2 -10.667 -7.33301 -19.334 -16 -26.001s-19 -10 -31 -10h-130c-11.333 0 -21.333 3.16699 -30 9.5s-14 14.833 -16 25.5l-119 655h130l82 -503c4 -22.667 7.66699 -54 11 -94h21c6 38.667 11.333 70 16 94l85 463c4.66699 26.667 20 40 46 40h122
c11.333 0 21.166 -3.66699 29.499 -11s13.5 -17 15.5 -29l85 -464c6.66699 -33.333 11.334 -64.333 14.001 -93h22c1.33301 9.33301 3.16602 24.5 5.49902 45.5s4.16602 36.5 5.49902 46.5l83 505h130z" />
    <glyph glyph-name="X" unicode="X" horiz-adv-x="626" 
d="M322 312h-19l-154 -312h-132l183 355l-170 335h131l141 -288h21l141 288h132l-171 -335l184 -355h-133z" />
    <glyph glyph-name="Y" unicode="Y" horiz-adv-x="589" 
d="M357 233v-233h-125v235l-227 455h132l126 -268c4.66699 -10.667 14 -38.334 28 -83.001h8c14 44.667 23.333 72.334 28 83.001l126 268h130z" />
    <glyph glyph-name="Z" unicode="Z" horiz-adv-x="574" 
d="M530 102v-102h-485v102l340 486h-334v102h472v-102l-340 -486h347z" />
    <glyph glyph-name="bracketleft" unicode="[" horiz-adv-x="339" 
d="M303 691h-90c-11.333 0 -17 -6 -17 -18v-743c0 -12 5.66699 -18 17 -18h90v-77h-153c-44.667 0 -67 22.333 -67 67v799c0 19.333 6.33301 35.333 19 48s28.667 19 48 19h153v-77z" />
    <glyph glyph-name="backslash" unicode="\" horiz-adv-x="535" 
d="M513 -69h-98l-393 759h98z" />
    <glyph glyph-name="bracketright" unicode="]" horiz-adv-x="339" 
d="M36 768h152c20 0 36.333 -6.33301 49 -19s19 -28.667 19 -48v-799c0 -19.333 -6.33301 -35.333 -19 -48s-29 -19 -49 -19h-152v77h89c11.333 0 17 6 17 18v743c0 12 -5.66699 18 -17 18h-89v77z" />
    <glyph glyph-name="asciicircum" unicode="^" horiz-adv-x="447" 
d="M417 397l-48 -28l-141 169h-8l-142 -169l-48 28l150 219h88z" />
    <glyph glyph-name="underscore" unicode="_" 
d="M505 -86h-442v86h442v-86z" />
    <glyph glyph-name="grave" unicode="`" horiz-adv-x="337" 
d="M274 584l-38 -54l-212 112l62 89z" />
    <glyph glyph-name="a" unicode="a" horiz-adv-x="558" 
d="M77 394l-12.002 86c86 16 167.667 24 245 24c63.333 0 109.833 -12.667 139.5 -38s44.5 -69.666 44.5 -132.999v-333h-96l-13 75c-51.333 -57.333 -113.666 -86 -186.999 -86c-46 0 -83.333 12.5 -112 37.5s-43 59.833 -43 104.5v50c0 39.333 12.667 69.666 38 90.999
s61 32 107 32h184v30c-0.666992 28 -7 46.667 -19 56s-35.667 14 -71 14c-51.333 0 -119.666 -3.33301 -204.999 -10zM163.998 166v-19.001c0 -40 21.333 -60 64 -60c48.667 0 96.667 19.333 144 58v76h-156c-19.333 -0.666992 -32.833 -5.66699 -40.5 -15
s-11.5 -22.666 -11.5 -39.999z" />
    <glyph glyph-name="b" unicode="b" horiz-adv-x="581" 
d="M188 700v-165c0 -47.333 -4 -85.333 -12 -114c52 55.333 112 83 180 83c62 0 107.333 -20 136 -60s43 -105.333 43 -196c0 -85.333 -16.833 -150 -50.5 -194s-93.5 -66 -179.5 -66c-38 0 -80 3.16699 -126 9.5s-83.667 15.5 -113 27.5v675h122zM188 347
l0.00195312 -249.999c38.667 -9.33301 76.667 -13.333 114 -12c39.333 0.666992 67 12.667 83 36s24.333 65.666 25 126.999c-0.666992 60 -7.33398 100.667 -20.001 122s-39.334 32 -80.001 32c-20 0 -38.667 -4.33301 -56 -13s-39.333 -22.667 -66 -42z" />
    <glyph glyph-name="c" unicode="c" horiz-adv-x="498" 
d="M454 98l11.001 -80.002c-48.667 -20 -108.667 -30 -180 -30c-87.333 0 -149 19.333 -185 58s-54 105.334 -54 200.001s18.167 161.334 54.5 200.001s98.166 58 185.499 58c68.667 0 125.667 -9.33301 171 -28l-14 -76c-32.667 1.33301 -78 2 -136 2
c-50.667 0 -85.667 -11 -105 -33s-29 -63 -29 -123c0 -60.667 9.66699 -102.167 29 -124.5s54.333 -33.5 105 -33.5c53.333 0 102.333 3.33301 147 10z" />
    <glyph glyph-name="d" unicode="d" horiz-adv-x="583" 
d="M515 700v-700.001h-96l-10 67c-56.667 -52.667 -120 -79 -190 -79c-60 0 -103.667 21.833 -131 65.5s-41 108.5 -41 194.5c0 94 15.167 160.167 45.5 198.5s77.833 57.5 142.5 57.5c62.667 0 117 -14.333 163 -43c-3.33301 26.667 -5 59.334 -5 98.001v141h122z
M393 141.999l-0.000976562 242.999c-53.333 13.333 -94 20 -122 20c-38 0 -64 -10.167 -78 -30.5s-21 -62.166 -21 -125.499c0 -62 6.83301 -103.833 20.5 -125.5s37.5 -32.5 71.5 -32.5c22.667 0 42.334 3.5 59.001 10.5s40 20.5 70 40.5z" />
    <glyph glyph-name="e" unicode="e" horiz-adv-x="548" 
d="M375 194l-200.001 0.00195312c4.66699 -42.667 16.667 -71.167 36 -85.5s51 -21.5 95 -21.5c50 0 108.667 4 176 12l11 -78c-46 -22 -113.333 -33 -202 -33s-151.667 19.667 -189 59s-56 105.666 -56 198.999c0 95.333 18.333 162.166 55 200.499
s97.334 57.5 182.001 57.5c78 0 134.667 -14.167 170 -42.5s53 -70.833 53 -127.5c0 -93.333 -43.667 -140 -131 -140zM172.999 279.002h167.999c29.333 0 44 19 44 57c0 26.667 -7 45.334 -21 56.001s-39.333 16 -76 16c-42.667 0 -72.167 -8.83301 -88.5 -26.5
s-25.166 -51.834 -26.499 -102.501z" />
    <glyph glyph-name="f" unicode="f" horiz-adv-x="395" 
d="M403 624l-96 -0.000976562c-27.333 0 -46.5 -5.16699 -57.5 -15.5s-16.5 -28.166 -16.5 -53.499v-65h143v-88h-143v-402h-122v402h-87v83l87 5v81c0 48 12 84.667 36 110s63 38 117 38c64 0 113.667 -3 149 -9z" />
    <glyph glyph-name="g" unicode="g" 
d="M545 431l-64.001 -6.99902c8.66699 -21.333 13 -47.333 13 -78c0 -56.667 -16.333 -97.167 -49 -121.5s-90 -36.5 -172 -36.5c-36 0 -66 2.33301 -90 7c-8 -12 -9.66699 -25.5 -5 -40.5s16 -23.5 34 -25.5l179 -25c48 -6.66699 82.5 -21.334 103.5 -44.001
s31.5 -55.667 31.5 -99c0 -60 -17.833 -101.167 -53.5 -123.5s-100.167 -33.5 -193.5 -33.5c-94.667 0 -159.667 10.833 -195 32.5s-53 60.834 -53 117.501c0 25.333 6 46 18 62s31.667 31.333 59 46c-22 20.667 -31.167 47.167 -27.5 79.5s17.167 56.166 40.5 71.499
c-46 22 -69 66 -69 132c0 58 16.333 99 49 123s90.334 36 173.001 36c48.667 0 89.667 -4.66699 123 -14h155zM272.999 273.001c41.333 0 69.833 5.33301 85.5 16s23.5 29.667 23.5 57s-7.83301 46.166 -23.5 56.499s-44.167 15.5 -85.5 15.5s-70 -5.16699 -86 -15.5
s-24 -29.166 -24 -56.499s8 -46.333 24 -57s44.667 -16 86 -16zM325.999 19.001l-140 17.001c-25.333 -23.333 -38 -46.333 -38 -69c0 -28.667 8.16699 -46.834 24.5 -54.501s51.5 -11.5 105.5 -11.5s89.333 4 106 12s25 25.667 25 53c0 20 -5 32.833 -15 38.5
s-32.667 10.5 -68 14.5z" />
    <glyph glyph-name="h" unicode="h" horiz-adv-x="590" 
d="M191 700l0.00195312 -180c0 -36 -2.66699 -69 -8 -99c72.667 55.333 141.667 83 207 83c43.333 0 76.666 -11.667 99.999 -35s35 -57 35 -101v-368h-122v331c0 27.333 -3.66699 45.833 -11 55.5s-21 14.5 -41 14.5c-38.667 0 -92.334 -20 -161.001 -60v-341h-122v700h123
z" />
    <glyph glyph-name="i" unicode="i" horiz-adv-x="265" 
d="M104 703h56c23.333 0 35 -11.667 35 -35v-55c0 -23.333 -11.667 -35 -35 -35h-56c-23.333 0 -35 11.667 -35 35v55c0 23.333 11.667 35 35 35zM193 0h-121v490h121v-490z" />
    <glyph glyph-name="j" unicode="j" horiz-adv-x="267" 
d="M106 704h56c23.333 0 35 -11.667 35 -35v-54c0 -23.333 -11.667 -35 -35 -35h-56c-23.333 0 -35 11.667 -35 35v54c0 23.333 11.667 35 35 35zM195 490v-480.999c0 -42.667 -10 -82.834 -30 -120.501s-47.333 -67.167 -82 -88.5l-68 53c38.667 46 58 98 58 156v481h122z
" />
    <glyph glyph-name="k" unicode="k" horiz-adv-x="534" 
d="M238 234l-53.999 0.00195312c4 -34.667 6 -59.667 6 -75v-159h-122v700h123v-298c0 -31.333 -2.33301 -60 -7 -86h53l134 174h138l-137 -174c-10.667 -16.667 -24.334 -30.334 -41.001 -41.001v-2c13.333 -8.66699 27 -24.334 41 -47.001l153 -226h-138z" />
    <glyph glyph-name="l" unicode="l" horiz-adv-x="314" 
d="M191 700l0.00195312 -547.001c-0.666992 -19.333 3.83301 -33.666 13.5 -42.999s24.5 -14 44.5 -14h42l14 -90c-22.667 -11.333 -57.334 -17 -104.001 -17c-40.667 0 -72.834 11.667 -96.501 35s-35.5 56.333 -35.5 99v577h122z" />
    <glyph glyph-name="m" unicode="m" horiz-adv-x="875" 
d="M167 490l7.00195 -72c65.333 57.333 129.333 86 192 86c66 0 107.667 -27.333 125 -82c61.333 54.667 123.333 82 186 82c43.333 0 76.333 -11.667 99 -35s34 -57 34 -101v-368h-119v331c-0.666992 25.333 -5.33398 43.333 -14.001 54s-24.334 16 -47.001 16
c-19.333 0 -37.5 -4 -54.5 -12s-42.833 -23.667 -77.5 -47v-342h-117v331c0.666992 26 -3.83301 44.167 -13.5 54.5s-25.5 15.5 -47.5 15.5c-18.667 0 -36.667 -4 -54 -12s-43 -23.333 -77 -46v-343h-121v490h99z" />
    <glyph glyph-name="n" unicode="n" horiz-adv-x="590" 
d="M170 490l8.00195 -72.001c76 57.333 146.667 86 212 86c43.333 0 76.666 -11.667 99.999 -35s35 -57 35 -101v-368h-122v331c0 27.333 -3.66699 45.833 -11 55.5s-21 14.5 -41 14.5c-22.667 0 -45.834 -4.66699 -69.501 -14s-54.167 -24.666 -91.5 -45.999v-341h-122v490
h102z" />
    <glyph glyph-name="o" unicode="o" horiz-adv-x="576" 
d="M289 504c88 0 150.167 -19.667 186.5 -59s54.5 -106 54.5 -200s-18.167 -160.5 -54.5 -199.5s-98.5 -58.5 -186.5 -58.5c-88.667 0 -151.334 19.5 -188.001 58.5s-55 105.5 -55 199.5s18.333 160.667 55 200s99.334 59 188.001 59zM289 407
c-45.333 0 -76 -11.167 -92 -33.5s-24 -65.166 -24 -128.499c0 -62.667 8 -105.167 24 -127.5s46.667 -33.5 92 -33.5c44 0 74.167 11.167 90.5 33.5s24.5 64.833 24.5 127.5c0 63.333 -8.16699 106.166 -24.5 128.499s-46.5 33.5 -90.5 33.5z" />
    <glyph glyph-name="p" unicode="p" horiz-adv-x="591" 
d="M168 490l7.99902 -73c22.667 25.333 52.834 46 90.501 62s74.5 24 110.5 24c111.333 0 167 -87.333 167 -262c0 -92.667 -15.167 -158 -45.5 -196s-77.833 -57 -142.5 -57c-66 0 -122.667 16 -170 48c2.66699 -34 3.66699 -68 3 -102v-129h-121v685h100zM188.999 342
v-234c62.667 -14 106.334 -21 131.001 -21c37.333 0 63.166 10.167 77.499 30.5s21.5 61.833 21.5 124.5c0 61.333 -6.5 103.5 -19.5 126.5s-35.5 34.5 -67.5 34.5c-22 0 -43.5 -4.83301 -64.5 -14.5s-47.167 -25.167 -78.5 -46.5z" />
    <glyph glyph-name="q" unicode="q" horiz-adv-x="580" 
d="M514 -195l-122.001 0.000976562v151c0 42 3.33301 77.333 10 106c-59.333 -50 -120.666 -75 -183.999 -75c-58 0 -101.167 20.833 -129.5 62.5s-42.5 106.167 -42.5 193.5s16.667 152.666 50 195.999s94.333 65 183 65c36 0 76.833 -3.33301 122.5 -10
s83.167 -15.667 112.5 -27v-662zM392.999 140.001l0.000976562 253.998c-37.333 10 -76 14.333 -116 13c-40.667 -1.33301 -68.5 -13.666 -83.5 -36.999s-22.5 -67.666 -22.5 -132.999c0 -52.667 6.16699 -90.167 18.5 -112.5s36.166 -33.5 71.499 -33.5
c22.667 0 43.667 4 63 12s42.333 20.333 69 37z" />
    <glyph glyph-name="r" unicode="r" horiz-adv-x="413" 
d="M400 504l-13 -114h-35c-34.667 0 -88.667 -14.667 -162 -44v-346h-122v490h95l11 -72c70 57.333 137.333 86 202 86h24z" />
    <glyph glyph-name="s" unicode="s" horiz-adv-x="517" 
d="M287 186l-129.001 34.9961c-42.667 12 -72.5 29 -89.5 51s-25.5 53 -25.5 93c0 52.667 15 89 45 109s81.667 30 155 30c80 -1.33301 152.333 -7.33301 217 -18l-9 -84c-82.667 2.66699 -145 4 -187 4c-44 0 -72.333 -2.16699 -85 -6.5s-19 -16.166 -19 -35.499
c0 -4.66699 0.5 -9 1.5 -13l2.5 -10c0.666992 -2.66699 2.5 -5.16699 5.5 -7.5s5.16699 -4.16602 6.5 -5.49902s4.66602 -3 9.99902 -5s9 -3.33301 11 -4s6.66699 -2 14 -4s12.666 -3.33301 15.999 -4l132 -36c42 -12 72 -28.167 90 -48.5s27 -51.166 27 -92.499
c0 -57.333 -16.333 -95.833 -49 -115.5s-89.334 -29.5 -170.001 -29.5c-73.333 0 -141.666 5.33301 -204.999 16l8 85c34.667 -2.66699 90.334 -4 167.001 -4c52.667 0 87.834 3 105.501 9s26.5 18.667 26.5 38c0 4 -0.333008 7.66699 -1 11s-1.66699 6.33301 -3 9
s-2.66602 5 -3.99902 7s-3.66602 4 -6.99902 6s-6 3.5 -8 4.5s-5.5 2.33301 -10.5 4s-8.66699 2.83398 -11 3.50098l-13.5 4c-6.66699 2 -11.334 3.33301 -14.001 4z" />
    <glyph glyph-name="t" unicode="t" horiz-adv-x="400" 
d="M231 402v-249.001c0 -21.333 4.33301 -36.166 13 -44.499s24 -12.5 46 -12.5h67l13 -90c-35.333 -11.333 -77.333 -17 -126 -17c-42.667 0 -75.5 12.333 -98.5 37s-34.5 60 -34.5 106v270h-89v83l88 5v141h121v-141h144v-88h-144z" />
    <glyph glyph-name="u" unicode="u" horiz-adv-x="579" 
d="M511 490l-0.000976562 -490h-96l-9 66c-69.333 -52.667 -137.666 -79 -204.999 -79c-90.667 0 -136 45.333 -136 136v367h122v-331c-0.666992 -26 3.33301 -44 12 -54s24.667 -15 48 -15c33.333 0 81 18 143 54v346h121z" />
    <glyph glyph-name="v" unicode="v" horiz-adv-x="546" 
d="M535 490l-168.001 -461.001c-7.33301 -19.333 -21 -29 -41 -29h-106c-21.333 0 -34.666 9.66699 -39.999 29l-168 461h128l102 -323c14.667 -51.333 22.667 -79.666 24 -84.999h13l26 85l101 323h129z" />
    <glyph glyph-name="w" unicode="w" horiz-adv-x="834" 
d="M815 490l-129 -457.001c-5.33301 -22 -19.666 -33 -42.999 -33h-103c-25.333 0 -40.333 12.667 -45 38l-59 301c-1.33301 7.33301 -3.33301 20 -6 38s-5 32 -7 42h-12l-14 -80l-57 -301c-2 -11.333 -7.33301 -20.5 -16 -27.5s-18.667 -10.5 -30 -10.5h-101
c-25.333 0 -40 11 -44 33l-130 457h124l81 -337c7.33301 -30.667 11.666 -56.667 12.999 -78h13c1.33301 6 3 14.167 5 24.5l5.5 28.5c1.66699 8.66699 3.16699 17 4.5 25l60 301c4.66699 24 19 36 43 36h99c11.333 0 21 -3.33301 29 -10s13 -15.667 15 -27l58 -300
c1.33301 -10 3.83301 -24.167 7.5 -42.5s6.16699 -30.166 7.5 -35.499h13c6 40.667 10.333 66.667 13 78l81 337h124z" />
    <glyph glyph-name="x" unicode="x" horiz-adv-x="546" 
d="M280 210h-14l-123 -210h-128l155 252l-143 238h127l111 -192h16l111 192h127l-143 -238l155 -252h-128z" />
    <glyph glyph-name="y" unicode="y" horiz-adv-x="546" 
d="M533 490l-182.001 -504.997c-19.333 -55.333 -49 -101.333 -89 -138s-92.667 -53.334 -158 -50.001l-10 77c38.667 10.667 69.334 25.167 92.001 43.5s40 42.166 52 71.499l5 11h-24c-22 0 -35.667 10 -41 30l-166 460h129l107 -337
c6.66699 -20.667 12 -42.334 16 -65.001h14c2.66699 8 6.16699 19.333 10.5 34s7.5 25 9.5 31l105 337h130z" />
    <glyph glyph-name="z" unicode="z" horiz-adv-x="518" 
d="M473 93v-93h-428v93l288 304h-284v93h420v-93l-288 -304h292z" />
    <glyph glyph-name="braceleft" unicode="{" horiz-adv-x="331" 
d="M292 768v-75.001c-32 0 -53.667 -5.16699 -65 -15.5s-17 -29.166 -17 -56.499v-163c0.666992 -42 -5.83301 -72.5 -19.5 -91.5s-39.5 -31.833 -77.5 -38.5c38.667 -11.333 65 -26.166 79 -44.499s21.333 -45.5 22 -81.5v-221c0 -27.333 5.66699 -46 17 -56s33 -15 65 -15
v-75c-132 -14 -198 31.333 -198 136v247c0 22.667 -3.66699 37.5 -11 44.5s-23.333 15.167 -48 24.5v82c15.333 4.66699 24.833 7.66699 28.5 9s8.5 4.66602 14.5 9.99902s9.5 11.833 10.5 19.5s1.5 19.167 1.5 34.5v190c0 104.667 66 150 198 136z" />
    <glyph glyph-name="bar" unicode="|" horiz-adv-x="254" 
d="M170 -169h-86v950h86v-950z" />
    <glyph glyph-name="braceright" unicode="}" horiz-adv-x="332" 
d="M40 693l0.000976562 75.0029c132 14 198 -31.333 198 -136v-190c0 -20 1.83301 -34.333 5.5 -43s8.16699 -14.334 13.5 -17.001s17.333 -7 36 -13v-82c-14.667 -5.33301 -24 -9 -28 -11s-9.33301 -5.66699 -16 -11s-10.834 -11.5 -12.501 -18.5s-2.5 -16.5 -2.5 -28.5
v-247c0 -104.667 -66 -150 -198 -136v75c32 0 53.667 5 65 15s17 28.667 17 56v221c0.666992 36 8 63.167 22 81.5s40.333 33.166 79 44.499c-38 6.66699 -63.833 19.5 -77.5 38.5s-20.167 49.5 -19.5 91.5v163c0 27.333 -5.66699 46.166 -17 56.499s-33 15.5 -65 15.5z" />
    <glyph glyph-name="asciitilde" unicode="~" horiz-adv-x="519" 
d="M128 221l-59.001 -0.000976562c-6 45.333 -1.33301 79.666 14 102.999s37 34.333 65 33c22.667 -1.33301 58.834 -10.166 108.501 -26.499s81.834 -25.166 96.501 -26.499c16 -2.66699 26.5 -0.333984 31.5 6.99902s7.5 21 7.5 41h59c6 -44.667 1.5 -78.5 -13.5 -101.5
s-36.833 -33.833 -65.5 -32.5c-25.333 0.666992 -62.833 9.33398 -112.5 26.001s-80.834 25.667 -93.501 27c-16 2 -26.333 -0.666992 -31 -8s-7 -21.333 -7 -42z" />
    <glyph glyph-name="uni00A0" unicode="&#xa0;" horiz-adv-x="220" 
 />
    <glyph glyph-name="exclamdown" unicode="&#xa1;" horiz-adv-x="271" 
d="M122 501h29c16 0 27.167 -3.16699 33.5 -9.5s9.5 -17.5 9.5 -33.5v-52c0 -16 -3.16699 -27 -9.5 -33s-17.5 -9 -33.5 -9h-29c-16.667 0 -28.167 3 -34.5 9s-9.5 17 -9.5 33v52c0 16 3.16699 27.167 9.5 33.5s17.833 9.5 34.5 9.5zM196 91v-281h-121v281l13 194h95z" />
    <glyph glyph-name="cent" unicode="&#xa2;" horiz-adv-x="513" 
d="M453 199l11.999 -78c-44 -18 -98.333 -28 -163 -30l-9 -91h-54l9 92c-74 4.66699 -126.333 26.667 -157 66s-46 103 -46 191c0 94 18.167 160.5 54.5 199.5s98.5 58.5 186.5 58.5l13 -1l9 84h54l-8 -87c42 -4.66699 76.333 -12.667 103 -24l-14 -78
c-21.333 2 -54.666 3.66699 -99.999 5l-30 -316c51.333 0 98 3 140 9zM259.999 193l28 313.001c-46 -2 -78 -14.333 -96 -37s-27 -62.667 -27 -120c0 -52 7.16699 -89.833 21.5 -113.5s38.833 -37.834 73.5 -42.501z" />
    <glyph glyph-name="sterling" unicode="&#xa3;" horiz-adv-x="577" 
d="M531 105l-0.00390625 -105h-476v105c32.667 14.667 54.334 36.167 65.001 64.5s14.667 63.5 12 105.5l-3 55h-77l-1 67h74l-8 121c-4 73.333 9.83301 122.333 41.5 147s83.834 37 156.501 37c56 0 120.667 -3.33301 194 -10l-7 -98c-47.333 2 -106.333 3 -177 3
c-34 0 -57.333 -5.66699 -70 -17s-17.667 -33.333 -15 -66l8 -117h192l-4 -67h-184l4 -55c2.66699 -44 -1.66602 -78.5 -12.999 -103.5s-30.666 -49.167 -57.999 -72.5c16 4 39.667 6 71 6h275z" />
    <glyph glyph-name="currency" unicode="&#xa4;" horiz-adv-x="589" 
d="M479 115l-72 72.001c-34 -23.333 -71.667 -35 -113 -35s-79 11.667 -113 35l-70 -71l-55 55l71 71c-22 32.667 -33 69 -33 109c0 42 11.667 80 35 114l-70 70l52 52l69 -71c34.667 23.333 72.667 35 114 35c42.667 0 80.667 -12 114 -36l72 72l51 -52l-72 -71
c22.667 -32.667 34 -70.334 34 -113.001c0 -41.333 -11.667 -79 -35 -113l73 -71zM294 223.001c34.667 -0.666992 64.5 11.666 89.5 36.999s37.5 56 37.5 92s-12.5 66.5 -37.5 91.5s-54.833 37.5 -89.5 37.5c-35.333 0 -65.666 -12.5 -90.999 -37.5s-38 -55.5 -38 -91.5
s12.667 -66.667 38 -92s55.666 -37.666 90.999 -36.999z" />
    <glyph glyph-name="yen" unicode="&#xa5;" horiz-adv-x="635" 
d="M424 333h124.999v-68h-160l-8 -16v-32h168v-67h-168v-150h-125v150h-164l-1 67h165v31l-9 17h-155l-2 68h122l-184 357h130l127 -259c2.66699 -6 12.334 -33.667 29.001 -83h9c10 34.667 19.667 62.667 29 84l126 258h129z" />
    <glyph glyph-name="brokenbar" unicode="&#xa6;" horiz-adv-x="256" 
d="M171 381h-86v400h86v-400zM171 -169h-86v400h86v-400z" />
    <glyph glyph-name="section" unicode="&#xa7;" horiz-adv-x="548" 
d="M317 314l-162.002 93.002c-32.667 18.667 -57.5 39.167 -74.5 61.5s-25.5 54.166 -25.5 95.499c0 54.667 16.667 91.5 50 110.5s87 28.5 161 28.5c84.667 -1.33301 158 -5.33301 220 -12l-8 -92c-46.667 3.33301 -106 5 -178 5
c-41.333 0.666992 -70.666 -1.5 -87.999 -6.5s-26.666 -17.5 -27.999 -37.5c-0.666992 -18 3.83301 -32.5 13.5 -43.5s24.834 -22.167 45.501 -33.5l146 -80c50 -26 81.167 -59 93.5 -99s10.166 -87.667 -6.50098 -143h-86c2.66699 41.333 -1 72.666 -11 93.999
s-30.667 41 -62 59zM72.998 372.002l85.999 0.000976562c-3.33301 -42 -0.166016 -73.5 9.50098 -94.5s30.5 -40.5 62.5 -58.5l162 -92c33.333 -18.667 58.5 -39.334 75.5 -62.001s25.5 -55 25.5 -97c0 -56 -17 -93.333 -51 -112s-87 -28 -159 -28
c-89.333 1.33301 -163.333 5.33301 -222 12l9 92c46 -3.33301 105.667 -5.33301 179 -6c28 0 49 0.833008 63 2.5s26 6 36 13s15 17.5 15 31.5c1.33301 18 -3 32.667 -13 44s-24.667 22 -44 32l-146 81c-50 25.333 -81.333 58 -94 98s-10.667 88 6 144z" />
    <glyph glyph-name="dieresis" unicode="&#xa8;" horiz-adv-x="418" 
d="M100 703h41c19.333 0 29 -10.333 29 -31v-55c0 -20 -9.66699 -30 -29 -30h-41c-19.333 0 -29 10 -29 30v55c0 20.667 9.66699 31 29 31zM280 703h39c20.667 0 31 -10.333 31 -31v-55c0 -20 -10.333 -30 -31 -30h-39c-20.667 0 -31 10 -31 30v55c0 20.667 10.333 31 31 31
z" />
    <glyph glyph-name="copyright" unicode="&#xa9;" horiz-adv-x="822" 
d="M411 703c101.333 0 186.666 -33.833 255.999 -101.5s104 -153.167 104 -256.5s-34.667 -188.833 -104 -256.5s-154.666 -101.5 -255.999 -101.5s-186.833 34 -256.5 102s-104.5 153.333 -104.5 256s34.833 188 104.5 256s155.167 102 256.5 102zM411 643
c-82.667 0 -153 -28.5 -211 -85.5s-87 -127.833 -87 -212.5s29 -155.5 87 -212.5s128.333 -85.5 211 -85.5s152.834 28.333 210.501 85s86.5 127.667 86.5 213s-28.833 156.333 -86.5 213s-127.834 85 -210.501 85zM554 217l7 -67.001c-40 -10.667 -88.333 -16 -145 -16
c-71.333 0 -121.666 15.833 -150.999 47.5s-44 86.834 -44 165.501c0 78 14.667 133 44 165s79.666 48 150.999 48c52.667 0 97.667 -4.66699 135 -14l-8 -68c-43.333 2 -86 3 -128 3c-38.667 0 -65.167 -9.5 -79.5 -28.5s-21.5 -54.167 -21.5 -105.5
c0 -52 7 -87.333 21 -106s40.667 -28 80 -28c56 0 102.333 1.33301 139 4z" />
    <glyph glyph-name="ordfeminine" unicode="&#xaa;" horiz-adv-x="439" 
d="M79 533l-8.00195 62.999c64 10.667 124 16 180 16c41.333 0 72.5 -9 93.5 -27s31.5 -48.333 31.5 -91v-220h-72l-10 57c-37.333 -43.333 -82.666 -65 -135.999 -65c-31.333 0 -56.5 7.83301 -75.5 23.5s-28.5 37.834 -28.5 66.501v37c0 25.333 8.83301 45.333 26.5 60
s41.834 22 72.501 22h133v20c0 29.333 -18.333 44 -55 44c-29.333 0 -80 -2 -152 -6zM140.998 384.999v-10.001c0 -13.333 3.83301 -22.666 11.5 -27.999s19.5 -8 35.5 -8c31.333 0 64 13 98 39v50l-102 -9c-28.667 -2 -43 -13.333 -43 -34z" />
    <glyph glyph-name="guillemotleft" unicode="&#xab;" horiz-adv-x="504" 
d="M262 421l-114 -170l115 -174l-64 -41l-160 202v26l159 198zM458 421l-114 -170l115 -174l-64 -41l-160 202v26l159 198z" />
    <glyph glyph-name="logicalnot" unicode="&#xac;" horiz-adv-x="587" 
d="M516 344v-210h-91v121h-360v89h451z" />
    <glyph glyph-name="softhyphen" unicode="&#xad;" horiz-adv-x="428" 
d="M364 211h-300v86h300v-86z" />
    <glyph glyph-name="registered" unicode="&#xae;" horiz-adv-x="536" 
d="M269 702c61.333 0 113.666 -21.667 156.999 -65s65 -95.666 65 -156.999c0 -62 -21.667 -114.667 -65 -158s-95.666 -65 -156.999 -65c-62 0 -114.667 21.667 -158 65s-65 96 -65 158c0 61.333 21.667 113.666 65 156.999s96 65 158 65zM269 295c50 0 93 18.167 129 54.5
s54 79.833 54 130.5c0 51.333 -18 95 -54 131s-79 54 -129 54c-51.333 0 -94.833 -18 -130.5 -54s-53.5 -79.667 -53.5 -131s18 -95 54 -131s79.333 -54 130 -54zM323 476l-0.000976562 -1.99902c20.667 -2.66699 34 -15.334 40 -38.001l26 -76h-56l-23 74
c-6 15.333 -17.667 23 -35 23h-53v-97h-53v244c22.667 2 58.334 3 107.001 3c37.333 0 63.833 -5.16699 79.5 -15.5s23.5 -28.833 23.5 -55.5c0 -35.333 -18.667 -55.333 -56 -60zM221.999 494.001l53 -0.000976562c20 0.666992 33.5 3.5 40.5 8.5s10.167 14.5 9.5 28.5
c0.666992 14.667 -2.5 24.334 -9.5 29.001s-20.5 7 -40.5 7h-53v-73z" />
    <glyph glyph-name="macron" unicode="&#xaf;" horiz-adv-x="400" 
d="M345 601h-290v84h290v-84z" />
    <glyph glyph-name="degree" unicode="&#xb0;" horiz-adv-x="352" 
d="M176 703c36 0 67.167 -12.499 93.5 -37.499s39.5 -55.5 39.5 -91.5s-13 -67 -39 -93s-57.333 -39 -94 -39s-68 13 -94 39s-39 57 -39 93c0 35.333 13 65.666 39 90.999s57.333 38 94 38zM176 636.001c-18 0 -33 -5.83301 -45 -17.5s-18 -26.5 -18 -44.5
c0 -18.667 6 -34 18 -46s27 -18 45 -18c17.333 0 32 6 44 18s18 27.333 18 46c0 18 -5.83301 32.833 -17.5 44.5s-26.5 17.5 -44.5 17.5z" />
    <glyph glyph-name="plusminus" unicode="&#xb1;" horiz-adv-x="581" 
d="M515 411v-90h-180v-125h-90v125h-179v90h179v126h91v-126h179zM66 145h449v-90h-449v90z" />
    <glyph glyph-name="twosuperior" unicode="&#xb2;" horiz-adv-x="433" 
d="M62 697l-4.00098 70.001c50.667 9.33301 99.334 14 146.001 14c56.667 0 97.334 -6.83301 122.001 -20.5s37 -40.834 37 -81.501c0 -39.333 -25.333 -83.333 -76 -132l-114 -108c17.333 3.33301 38.666 4.33301 63.999 3h141v-82h-324v51c0 16.667 5 29.667 15 39
l112 106c51.333 48.667 78 86.334 80 113.001c1.33301 13.333 -3.16699 22.166 -13.5 26.499s-27.5 6.5 -51.5 6.5c-40 0 -84.667 -1.66699 -134 -5z" />
    <glyph glyph-name="threesuperior" unicode="&#xb3;" horiz-adv-x="414" 
d="M64 704l-4.00098 67c50 7.33301 97.333 11 142 11c56.667 0 96 -6.83301 118 -20.5s33 -38.834 33 -75.501c0 -31.333 -5.5 -55.666 -16.5 -72.999s-31.167 -28 -60.5 -32v-2c32 -4.66699 54.5 -15.167 67.5 -31.5s19.833 -40.5 20.5 -72.5
c1.33301 -44 -10 -75.5 -34 -94.5s-65 -28.5 -123 -28.5c-43.333 0 -95 3.66699 -155 11l4 69c46 -2.66699 88.333 -4 127 -4c32.667 0 55.167 4.16699 67.5 12.5s18.5 24.166 18.5 47.499c0 17.333 -5.16699 30.5 -15.5 39.5s-29.833 13.5 -58.5 13.5h-85v67h85
c27.333 0 45.333 4.83301 54 14.5s13 22.834 13 39.501c0 17.333 -5.16699 29 -15.5 35s-30.166 9 -59.499 9c-38 0 -79 -0.666992 -123 -2z" />
    <glyph glyph-name="acute" unicode="&#xb4;" horiz-adv-x="337" 
d="M302 642l-213 -112l-38 54l188 147z" />
    <glyph glyph-name="paragraph" unicode="&#xb6;" horiz-adv-x="596" 
d="M262 -210l-0.000976562 411c-81.333 7.33301 -139.833 30.333 -175.5 69s-53.5 98.667 -53.5 180c0 92 23.833 157 71.5 195s127.834 57 240.501 57c64.667 0 118.667 -5.66699 162 -17v-685h-87v624c-30.667 1.33301 -55 2.33301 -73 3v-837h-85z" />
    <glyph glyph-name="periodcentered" unicode="&#xb7;" horiz-adv-x="249" 
d="M106 327h37c16 0 27.167 -3.16699 33.5 -9.5s9.5 -17.833 9.5 -34.5v-50c0 -16.667 -3.16699 -28.167 -9.5 -34.5s-17.5 -9.5 -33.5 -9.5h-37c-16 0 -27.167 3.16699 -33.5 9.5s-9.5 17.833 -9.5 34.5v50c0 16.667 3.16699 28.167 9.5 34.5s17.5 9.5 33.5 9.5z" />
    <glyph glyph-name="cedilla" unicode="&#xb8;" horiz-adv-x="242" 
d="M71 -93l11.999 53c48.667 5.33301 82.834 3.83301 102.501 -4.5s29.167 -28.5 28.5 -60.5c-1.33301 -46 -19.5 -80.833 -54.5 -104.5s-78.5 -32.167 -130.5 -25.5l17 59c24 -0.666992 44 4.5 60 15.5s24.667 26.167 26 45.5c0.666992 9.33301 -3 15.333 -11 18
s-24.667 4 -50 4z" />
    <glyph glyph-name="onesuperior" unicode="&#xb9;" horiz-adv-x="300" 
d="M233 360h-94v288c0 20 1.33301 35 4 45l-106 -24l-11 63l113 42h94v-414z" />
    <glyph glyph-name="ordmasculine" unicode="&#xba;" horiz-adv-x="441" 
d="M221 612c62.667 0 106.834 -13.168 132.501 -39.501s38.5 -71.166 38.5 -134.499s-12.833 -107.833 -38.5 -133.5s-69.834 -38.5 -132.501 -38.5c-63.333 0 -107.666 12.833 -132.999 38.5s-38 70.167 -38 133.5c0 64 12.667 109 38 135s69.666 39 132.999 39z
M221 540.999c-30 0 -50.5 -7 -61.5 -21s-16.5 -41.333 -16.5 -82c0 -40 5.5 -67 16.5 -81s31.5 -21 61.5 -21s50.333 7 61 21s16 41 16 81c0 40.667 -5.33301 68 -16 82s-31 21 -61 21z" />
    <glyph glyph-name="guillemotright" unicode="&#xbb;" horiz-adv-x="504" 
d="M465 264v-26l-160 -202l-64 41l115 174l-114 170l64 41zM269 264v-26l-160 -202l-64 41l115 174l-114 170l64 41z" />
    <glyph glyph-name="onequarter" unicode="&#xbc;" horiz-adv-x="881" 
d="M143 276v288c0 16.667 1.33301 31.667 4 45l-106 -24l-11 63l113 42h93v-414h-93zM655 690l-428 -690h-82l428 690h82zM845 97l-48.998 -7.00098v-90h-87v89h-182c-18.667 0 -32.834 6.5 -42.501 19.5s-9.83398 29.833 -0.500977 50.5l117 255h88l-108 -237
c-2 -5.33301 -1.5 -9.66602 1.5 -12.999s7.83301 -5 14.5 -5h112v109l15 66h72v-175h49v-62z" />
    <glyph glyph-name="onehalf" unicode="&#xbd;" horiz-adv-x="900" 
d="M236 276h-93v288c0 16.667 1.33301 31.667 4 45l-106 -24l-11 63l113 42h93v-414zM219 0h-82l429 690h81zM540 337l-4.00098 70.001c50 9.33301 98.333 14 145 14c56.667 0 97.5 -7 122.5 -21s37.5 -41 37.5 -81c0 -38 -25.333 -82 -76 -132l-114 -108
c17.333 3.33301 38.666 4.33301 63.999 3h140v-82h-323v51c0 16.667 4.66699 29.667 14 39l112 106c51.333 48 78.333 85.667 81 113c0.666992 13.333 -4.16602 22.166 -14.499 26.499s-27.166 6.5 -50.499 6.5c-40 0 -84.667 -1.66699 -134 -5z" />
    <glyph glyph-name="threequarters" unicode="&#xbe;" horiz-adv-x="970" 
d="M273 495v-2c32 -4.66699 54.5 -15.167 67.5 -31.5s19.833 -40.5 20.5 -72.5c0.666992 -44 -11 -75.5 -35 -94.5s-64.667 -28.5 -122 -28.5c-43.333 0 -95 3.66699 -155 11l4 69c46 -2.66699 88 -4 126 -4c32.667 0 55.167 4.16699 67.5 12.5s18.5 23.833 18.5 46.5
c0 17.333 -5 30.666 -15 39.999s-29.333 14 -58 14l-85 2v62l85 3c27.333 0 45.166 4.66699 53.499 14s12.5 22.333 12.5 39c0 18 -5.16699 30 -15.5 36s-30.166 9 -59.499 9c-48.667 0 -89.334 -1 -122.001 -3l-4 68c46.667 6.66699 94 10 142 10
c56.667 0 95.834 -6.83301 117.501 -20.5s32.5 -38.5 32.5 -74.5c0 -31.333 -5.33301 -55.666 -16 -72.999s-30.667 -28 -60 -32zM752 690l-429 -690h-81l428 690h82zM934 97l-48 -6.99902v-90h-87v89h-182c-19.333 0 -33.833 6.5 -43.5 19.5s-9.5 29.833 0.5 50.5l117 255
h88l-108 -237c-2.66699 -4.66699 -2.5 -8.83398 0.5 -12.501s7.83301 -5.5 14.5 -5.5h113v109l15 66h72v-175h48v-62z" />
    <glyph glyph-name="questiondown" unicode="&#xbf;" horiz-adv-x="503" 
d="M250 505h28c16.667 0 28.167 -3.16699 34.5 -9.5s9.5 -17.5 9.5 -33.5v-52c0 -16 -3.16699 -27.167 -9.5 -33.5s-17.833 -9.5 -34.5 -9.5h-28c-16.667 0 -28.167 3.16699 -34.5 9.5s-9.5 17.5 -9.5 33.5v52c0 16 3.16699 27.167 9.5 33.5s17.833 9.5 34.5 9.5zM213 289
l100.004 -0.00488281c1.33301 -33.333 -2.83398 -64.166 -12.501 -92.499s-22 -52.166 -37 -71.499s-30 -37.166 -45 -53.499s-28.167 -33.166 -39.5 -50.499s-17.333 -34.333 -18 -51c-1.33301 -26 6.5 -45.167 23.5 -57.5s45.167 -18.5 84.5 -18.5
c52.667 0 118.667 2.33301 198 7l5 -85l-22.5 -4.5l-22.5 -4.5c-3.33301 -0.666992 -9.83301 -1.83398 -19.5 -3.50098s-16.834 -2.66699 -21.501 -3s-11.834 -1.16602 -21.501 -2.49902s-18.167 -2.16602 -25.5 -2.49902s-16.333 -0.833008 -27 -1.5s-21.834 -1 -33.501 -1
h-37.5c-138.667 0 -208 51.667 -208 155c0 27.333 5.83301 52.5 17.5 75.5s26 43.167 43 60.5l51.5 53c17.333 18 32.5 40 45.5 66s20.5 54.667 22.5 86z" />
    <glyph glyph-name="Agrave" unicode="&#xc0;" horiz-adv-x="636" 
d="M341 724l-213 112l63 90l188 -148zM446 195h-256l-57 -195h-128l207 657c6 22 21 33 45 33h122c24 0 39 -11 45 -33l207 -657h-128zM416 298l-69 238c-9.33301 36 -14.333 55.667 -15 59h-27l-16 -59l-69 -238h196z" />
    <glyph glyph-name="Aacute" unicode="&#xc1;" horiz-adv-x="636" 
d="M281 724l-38 54l188 148l62 -90zM446 195h-256l-57 -195h-128l207 657c6 22 21 33 45 33h122c24 0 39 -11 45 -33l207 -657h-128zM416 298l-69 238c-9.33301 36 -14.333 55.667 -15 59h-27l-16 -59l-69 -238h196z" />
    <glyph glyph-name="Acircumflex" unicode="&#xc2;" horiz-adv-x="636" 
d="M180 723l-37 50l132 132h88l131 -133l-38 -49l-133 96h-8zM446 195h-256l-57 -195h-128l207 657c6 22 21 33 45 33h122c24 0 39 -11 45 -33l207 -657h-128zM416 298l-69 238c-9.33301 36 -14.333 55.667 -15 59h-27l-16 -59l-69 -238h196z" />
    <glyph glyph-name="Atilde" unicode="&#xc3;" horiz-adv-x="636" 
d="M205 760l-52.999 -0.000976562c-6 43.333 -1 76.333 15 99s37.667 33 65 31c22 -2 49 -10.333 81 -25s56.667 -23 74 -25c16.667 -2.66699 28 -0.5 34 6.5s9 19.833 9 38.5h53c6 -42 1.33301 -74.5 -14 -97.5s-37.333 -33.5 -66 -31.5c-25.333 2 -54.333 10.667 -87 26
s-55.667 24 -69 26c-16.667 2 -27.834 -0.666992 -33.501 -8s-8.5 -20.666 -8.5 -39.999zM446.001 194.999h-256l-57 -195h-128l207 657c6 22 21 33 45 33h122c24 0 39 -11 45 -33l207 -657h-128zM416.001 297.999l-69 238c-9.33301 36 -14.333 55.667 -15 59h-27l-16 -59
l-69 -238h196z" />
    <glyph glyph-name="Adieresis" unicode="&#xc4;" horiz-adv-x="636" 
d="M249 763h-40c-20 0 -30 10 -30 30v55c0 20.667 10 31 30 31h40c19.333 0 29 -10.333 29 -31v-55c0 -20 -9.66699 -30 -29 -30zM428 763h-40c-20 0 -30 10 -30 30v55c0 20.667 10 31 30 31h40c20 0 30 -10.333 30 -31v-55c0 -20 -10 -30 -30 -30zM446 195h-256l-57 -195
h-128l207 657c6 22 21 33 45 33h122c24 0 39 -11 45 -33l207 -657h-128zM416 298l-69 238c-9.33301 36 -14.333 55.667 -15 59h-27l-16 -59l-69 -238h196z" />
    <glyph glyph-name="Aring" unicode="&#xc5;" horiz-adv-x="636" 
d="M319 713c-32 0 -58.999 10.5 -80.999 31.5s-33 47.167 -33 78.5s11.167 57.666 33.5 78.999s49.166 32 80.499 32c30.667 0 57.167 -10.667 79.5 -32s33.5 -47.666 33.5 -78.999s-11 -57.5 -33 -78.5s-48.667 -31.5 -80 -31.5zM319.001 878c-15.333 0 -28 -5 -38 -15
s-15 -23.333 -15 -40c0 -16 5.16699 -28.833 15.5 -38.5s22.833 -14.5 37.5 -14.5s27.167 4.83301 37.5 14.5s15.5 22.5 15.5 38.5c0 16.667 -5.16699 30 -15.5 40s-22.833 15 -37.5 15zM446.001 195h-256l-57 -195h-128l207 657c6 22 21 33 45 33h122c24 0 39 -11 45 -33
l207 -657h-128zM416.001 298l-69 238c-9.33301 36 -14.333 55.667 -15 59h-27l-16 -59l-69 -238h196z" />
    <glyph glyph-name="AE" unicode="&#xc6;" horiz-adv-x="921" 
d="M870 102l5.99902 -95.999c-64.667 -5.33301 -167 -8 -307 -8c-36.667 0 -66.334 12.167 -89.001 36.5s-34 55.833 -34 94.5v73h-217l-107 -202h-130l312 568c24.667 47.333 55.334 79.666 92.001 96.999s93.334 26 170.001 26c130.667 0 234 -2.33301 310 -7l-6 -97h-248
c-18 0 -32.333 -5.5 -43 -16.5s-16 -25.833 -16 -44.5v-116h270v-97h-270v-153c0 -21.333 4.5 -36.333 13.5 -45s24.167 -13 45.5 -13h248zM445.999 301.001v239c0 30 8.66699 53 26 69h-9c-14.667 -9.33301 -30.667 -28.333 -48 -57l-133 -251h164z" />
    <glyph glyph-name="Ccedilla" unicode="&#xc7;" horiz-adv-x="578" 
d="M535 108l11 -93.998c-55.333 -17.333 -126 -26 -212 -26c-103.333 0 -176 26.667 -218 80s-63 145.666 -63 276.999s21 223.666 63 276.999s114.667 80 218 80c76.667 0 142.667 -7.33301 198 -22l-12 -95c-58 4.66699 -120 7 -186 7c-57.333 0 -96.5 -17.5 -117.5 -52.5
s-31.5 -99.833 -31.5 -194.5s10.5 -159.5 31.5 -194.5s60.167 -52.5 117.5 -52.5c84.667 0 151.667 3.33301 201 10zM259 -107.998l11.999 53.001c49.333 5.33301 83.833 3.83301 103.5 -4.5s28.834 -28.5 27.501 -60.5c-1.33301 -46 -19.5 -80.833 -54.5 -104.5
s-78.5 -31.834 -130.5 -24.501l18 59c24 -0.666992 44 4.33301 60 15s24.333 25.667 25 45c0.666992 9.33301 -2.83301 15.333 -10.5 18s-24.5 4 -50.5 4z" />
    <glyph glyph-name="Egrave" unicode="&#xc8;" 
d="M334 741l-213 111l63 90l188 -147zM517 101l6 -95c-60.667 -5.33301 -162 -8 -304 -8c-45.333 0 -81.166 11.667 -107.499 35s-39.833 55.333 -40.5 96v432c0.666992 40.667 14.167 72.667 40.5 96s62.166 35 107.499 35c142 0 243.333 -2.66699 304 -8l-6 -96h-270
c-18 0 -30.833 -4.33301 -38.5 -13s-11.5 -23.667 -11.5 -45v-121h283v-96h-283v-154c0 -21.333 3.83301 -36.333 11.5 -45s20.5 -13 38.5 -13h270z" />
    <glyph glyph-name="Eacute" unicode="&#xc9;" 
d="M274 741l-38 54l188 147l62 -90zM517 101l6 -95c-60.667 -5.33301 -162 -8 -304 -8c-45.333 0 -81.166 11.667 -107.499 35s-39.833 55.333 -40.5 96v432c0.666992 40.667 14.167 72.667 40.5 96s62.166 35 107.499 35c142 0 243.333 -2.66699 304 -8l-6 -96h-270
c-18 0 -30.833 -4.33301 -38.5 -13s-11.5 -23.667 -11.5 -45v-121h283v-96h-283v-154c0 -21.333 3.83301 -36.333 11.5 -45s20.5 -13 38.5 -13h270z" />
    <glyph glyph-name="Ecircumflex" unicode="&#xca;" 
d="M173 740l-37 50l132 131h88l131 -132l-38 -49l-133 95h-8zM517 101l6 -95c-60.667 -5.33301 -162 -8 -304 -8c-45.333 0 -81.166 11.667 -107.499 35s-39.833 55.333 -40.5 96v432c0.666992 40.667 14.167 72.667 40.5 96s62.166 35 107.499 35
c142 0 243.333 -2.66699 304 -8l-6 -96h-270c-18 0 -30.833 -4.33301 -38.5 -13s-11.5 -23.667 -11.5 -45v-121h283v-96h-283v-154c0 -21.333 3.83301 -36.333 11.5 -45s20.5 -13 38.5 -13h270z" />
    <glyph glyph-name="Edieresis" unicode="&#xcb;" 
d="M242 779h-40c-20 0 -30 10.333 -30 31v55c0 20 10 30 30 30h40c19.333 0 29 -10 29 -30v-55c0 -20.667 -9.66699 -31 -29 -31zM421 779h-40c-20 0 -30 10.333 -30 31v55c0 20 10 30 30 30h40c20 0 30 -10 30 -30v-55c0 -20.667 -10 -31 -30 -31zM517 101l6 -95
c-60.667 -5.33301 -162 -8 -304 -8c-45.333 0 -81.166 11.667 -107.499 35s-39.833 55.333 -40.5 96v432c0.666992 40.667 14.167 72.667 40.5 96s62.166 35 107.499 35c142 0 243.333 -2.66699 304 -8l-6 -96h-270c-18 0 -30.833 -4.33301 -38.5 -13
s-11.5 -23.667 -11.5 -45v-121h283v-96h-283v-154c0 -21.333 3.83301 -36.333 11.5 -45s20.5 -13 38.5 -13h270z" />
    <glyph glyph-name="Igrave" unicode="&#xcc;" horiz-adv-x="279" 
d="M200 778l-38 -54l-212 112l62 90zM202 0h-125v690h125v-690z" />
    <glyph glyph-name="Iacute" unicode="&#xcd;" horiz-adv-x="279" 
d="M315 836l-213 -112l-38 54l188 148zM202 0h-125v690h125v-690z" />
    <glyph glyph-name="Icircumflex" unicode="&#xce;" horiz-adv-x="279" 
d="M316 772l-39 -49l-133 96h-8l-134 -96l-37 50l131 132h88zM202 0h-125v690h125v-690z" />
    <glyph glyph-name="Idieresis" unicode="&#xcf;" horiz-adv-x="279" 
d="M30 879h40c20 0 30 -10.333 30 -31v-55c0 -20 -10 -30 -30 -30h-40c-19.333 0 -29 10 -29 30v55c0 20.667 9.66699 31 29 31zM210 879h39c20 0 30 -10.333 30 -31v-55c0 -20 -10 -30 -30 -30h-39c-20.667 0 -31 10 -31 30v55c0 20.667 10.333 31 31 31zM202 0h-125v690
h125v-690z" />
    <glyph glyph-name="Eth" unicode="&#xd0;" horiz-adv-x="675" 
d="M81 397v293c91.333 6 177.333 9 258 9c104.667 0 177.834 -25.5 219.501 -76.5s62.5 -143.5 62.5 -277.5s-20.833 -226.5 -62.5 -277.5s-114.834 -76.5 -219.501 -76.5c-80.667 0 -166.667 3 -258 9v331h-62v66h62zM207 331l0.000976562 -233.001
c50.667 -1.33301 94.667 -2 132 -2c57.333 0 96.666 17.833 117.999 53.5s32 100.834 32 195.501s-10.833 160 -32.5 196s-60.834 54 -117.501 54c-17.333 0 -40.666 -0.166992 -69.999 -0.5s-50 -0.5 -62 -0.5v-197h134v-66h-134z" />
    <glyph glyph-name="Ntilde" unicode="&#xd1;" horiz-adv-x="715" 
d="M250 760l-52.999 -0.000976562c-6 43.333 -0.833008 76.333 15.5 99s37.833 33 64.5 31c22.667 -2 50 -10.333 82 -25s56.333 -23 73 -25c16.667 -2.66699 28 -0.5 34 6.5s9 19.833 9 38.5h53c6 -42 1.33301 -74.5 -14 -97.5s-37.333 -33.5 -66 -31.5
c-25.333 2 -54.333 10.667 -87 26s-55.667 24 -69 26c-16.667 2 -27.834 -0.666992 -33.501 -8s-8.5 -20.666 -8.5 -39.999zM638.001 689.999v-643.999c0 -30.667 -15.333 -46 -46 -46h-99c-24 0 -41.333 12.667 -52 38l-194 423c-23.333 50 -37 84.333 -41 103h-12
c4 -28 6 -62.667 6 -104v-460h-123v644c0 30.667 15.667 46 47 46h97c13.333 0 23.833 -3 31.5 -9s14.5 -15.667 20.5 -29l188 -411l21 -47c12 -26.667 21 -47.334 27 -62.001h12c-3.33301 42 -5 79.333 -5 112v446h122z" />
    <glyph glyph-name="Ograve" unicode="&#xd2;" horiz-adv-x="675" 
d="M396 778l-38 -54l-212 112l62 90zM337 703c106.667 0 180.834 -25.667 222.501 -77s62.5 -145 62.5 -281s-20.833 -229.667 -62.5 -281s-115.834 -77 -222.501 -77c-106 0 -179.833 25.667 -221.5 77s-62.5 145 -62.5 281s20.833 229.667 62.5 281s115.5 77 221.5 77z
M337 596c-58 0 -97.833 -17.833 -119.5 -53.5s-32.5 -101.5 -32.5 -197.5s10.833 -161.833 32.5 -197.5s61.5 -53.5 119.5 -53.5c58.667 0 98.834 17.833 120.501 53.5s32.5 101.5 32.5 197.5s-10.833 161.833 -32.5 197.5s-61.834 53.5 -120.501 53.5z" />
    <glyph glyph-name="Oacute" unicode="&#xd3;" horiz-adv-x="675" 
d="M511 836l-213 -112l-37 54l187 148zM337 703c106.667 0 180.834 -25.667 222.501 -77s62.5 -145 62.5 -281s-20.833 -229.667 -62.5 -281s-115.834 -77 -222.501 -77c-106 0 -179.833 25.667 -221.5 77s-62.5 145 -62.5 281s20.833 229.667 62.5 281s115.5 77 221.5 77z
M337 596c-58 0 -97.833 -17.833 -119.5 -53.5s-32.5 -101.5 -32.5 -197.5s10.833 -161.833 32.5 -197.5s61.5 -53.5 119.5 -53.5c58.667 0 98.834 17.833 120.501 53.5s32.5 101.5 32.5 197.5s-10.833 161.833 -32.5 197.5s-61.834 53.5 -120.501 53.5z" />
    <glyph glyph-name="Ocircumflex" unicode="&#xd4;" horiz-adv-x="675" 
d="M512 772l-39 -49l-133 96h-8l-134 -96l-37 50l132 132h87zM337 703c106.667 0 180.834 -25.667 222.501 -77s62.5 -145 62.5 -281s-20.833 -229.667 -62.5 -281s-115.834 -77 -222.501 -77c-106 0 -179.833 25.667 -221.5 77s-62.5 145 -62.5 281
s20.833 229.667 62.5 281s115.5 77 221.5 77zM337 596c-58 0 -97.833 -17.833 -119.5 -53.5s-32.5 -101.5 -32.5 -197.5s10.833 -161.833 32.5 -197.5s61.5 -53.5 119.5 -53.5c58.667 0 98.834 17.833 120.501 53.5s32.5 101.5 32.5 197.5s-10.833 161.833 -32.5 197.5
s-61.834 53.5 -120.501 53.5z" />
    <glyph glyph-name="Otilde" unicode="&#xd5;" horiz-adv-x="675" 
d="M223 760l-52.999 -0.000976562c-6 43.333 -1 76.333 15 99s37.667 33 65 31c22 -2 49 -10.333 81 -25s56.667 -23 74 -25c16.667 -2.66699 28 -0.5 34 6.5s9 19.833 9 38.5h53c6 -42 1.33301 -74.5 -14 -97.5s-37.333 -33.5 -66 -31.5c-25.333 2 -54.5 10.667 -87.5 26
s-55.833 24 -68.5 26c-16.667 2 -27.834 -0.666992 -33.501 -8s-8.5 -20.666 -8.5 -39.999zM337.001 702.999c106.667 0 180.834 -25.667 222.501 -77s62.5 -145 62.5 -281s-20.833 -229.667 -62.5 -281s-115.834 -77 -222.501 -77c-106 0 -179.833 25.667 -221.5 77
s-62.5 145 -62.5 281s20.833 229.667 62.5 281s115.5 77 221.5 77zM337.001 595.999c-58 0 -97.833 -17.833 -119.5 -53.5s-32.5 -101.5 -32.5 -197.5s10.833 -161.833 32.5 -197.5s61.5 -53.5 119.5 -53.5c58.667 0 98.834 17.833 120.501 53.5s32.5 101.5 32.5 197.5
s-10.833 161.833 -32.5 197.5s-61.834 53.5 -120.501 53.5z" />
    <glyph glyph-name="Odieresis" unicode="&#xd6;" horiz-adv-x="675" 
d="M226 879h41c19.333 0 29 -10.333 29 -31v-55c0 -20 -9.66699 -30 -29 -30h-41c-19.333 0 -29 10 -29 30v55c0 20.667 9.66699 31 29 31zM406 879h39c20.667 0 31 -10.333 31 -31v-55c0 -20 -10.333 -30 -31 -30h-39c-20 0 -30 10 -30 30v55c0 20.667 10 31 30 31z
M337 703c106.667 0 180.834 -25.667 222.501 -77s62.5 -145 62.5 -281s-20.833 -229.667 -62.5 -281s-115.834 -77 -222.501 -77c-106 0 -179.833 25.667 -221.5 77s-62.5 145 -62.5 281s20.833 229.667 62.5 281s115.5 77 221.5 77zM337 596
c-58 0 -97.833 -17.833 -119.5 -53.5s-32.5 -101.5 -32.5 -197.5s10.833 -161.833 32.5 -197.5s61.5 -53.5 119.5 -53.5c58.667 0 98.834 17.833 120.501 53.5s32.5 101.5 32.5 197.5s-10.833 161.833 -32.5 197.5s-61.834 53.5 -120.501 53.5z" />
    <glyph glyph-name="multiply" unicode="&#xd7;" horiz-adv-x="486" 
d="M36 417l360 -323l58 70l-359 323z" />
    <glyph glyph-name="Oslash" unicode="&#xd8;" horiz-adv-x="675" 
d="M549 731l-30.998 -68.001c36.667 -24 63.167 -61.167 79.5 -111.5s24.5 -119.166 24.5 -206.499c0 -136 -20.833 -229.667 -62.5 -281s-115.834 -77 -222.501 -77c-50.667 0 -93.334 5.33301 -128.001 16l-30 -64l-56 23l32 66c-36 24 -62 61.167 -78 111.5
s-24 118.833 -24 205.5c0 136 20.833 229.667 62.5 281s115.5 77 221.5 77c52 0 94 -5 126 -15l31 66zM213.002 153.999l201 428.001c-19.333 9.33301 -45 14 -77 14c-58 0 -97.833 -17.833 -119.5 -53.5s-32.5 -101.5 -32.5 -197.5c0 -90.667 9.33301 -154.334 28 -191.001
zM460.002 539l-201.001 -430c20 -10 46 -15 78 -15c58.667 0 98.834 17.833 120.501 53.5s32.5 101.5 32.5 197.5c0 94 -10 158.667 -30 194z" />
    <glyph glyph-name="Ugrave" unicode="&#xd9;" horiz-adv-x="671" 
d="M396 778l-38 -54l-212 112l62 90zM599 690l0.000976562 -420c0 -103.333 -19.333 -176.333 -58 -219s-105.334 -64 -200.001 -64c-98.667 0 -168.167 21.333 -208.5 64s-60.5 115.667 -60.5 219v420h125v-420c0 -66 10.167 -111.833 30.5 -137.5s56.5 -38.5 108.5 -38.5
c51.333 0 87 12.833 107 38.5s30 71.5 30 137.5v420h126z" />
    <glyph glyph-name="Uacute" unicode="&#xda;" horiz-adv-x="671" 
d="M511 836l-213 -112l-37 54l187 148zM599 690l0.000976562 -420c0 -103.333 -19.333 -176.333 -58 -219s-105.334 -64 -200.001 -64c-98.667 0 -168.167 21.333 -208.5 64s-60.5 115.667 -60.5 219v420h125v-420c0 -66 10.167 -111.833 30.5 -137.5
s56.5 -38.5 108.5 -38.5c51.333 0 87 12.833 107 38.5s30 71.5 30 137.5v420h126z" />
    <glyph glyph-name="Ucircumflex" unicode="&#xdb;" horiz-adv-x="671" 
d="M512 772l-39 -49l-133 96h-8l-134 -96l-37 50l132 132h87zM599 690l0.000976562 -420c0 -103.333 -19.333 -176.333 -58 -219s-105.334 -64 -200.001 -64c-98.667 0 -168.167 21.333 -208.5 64s-60.5 115.667 -60.5 219v420h125v-420c0 -66 10.167 -111.833 30.5 -137.5
s56.5 -38.5 108.5 -38.5c51.333 0 87 12.833 107 38.5s30 71.5 30 137.5v420h126z" />
    <glyph glyph-name="Udieresis" unicode="&#xdc;" horiz-adv-x="671" 
d="M226 879h41c19.333 0 29 -10.333 29 -31v-55c0 -20 -9.66699 -30 -29 -30h-41c-19.333 0 -29 10 -29 30v55c0 20.667 9.66699 31 29 31zM406 879h39c20.667 0 31 -10.333 31 -31v-55c0 -20 -10.333 -30 -31 -30h-39c-20 0 -30 10 -30 30v55c0 20.667 10 31 30 31z
M599 690l0.000976562 -420c0 -103.333 -19.333 -176.333 -58 -219s-105.334 -64 -200.001 -64c-98.667 0 -168.167 21.333 -208.5 64s-60.5 115.667 -60.5 219v420h125v-420c0 -66 10.167 -111.833 30.5 -137.5s56.5 -38.5 108.5 -38.5c51.333 0 87 12.833 107 38.5
s30 71.5 30 137.5v420h126z" />
    <glyph glyph-name="Yacute" unicode="&#xdd;" horiz-adv-x="589" 
d="M256 724l-38 54l188 148l63 -90zM357 233v-233h-125v235l-227 455h132l126 -268c4.66699 -10.667 14 -38.334 28 -83.001h8c14 44.667 23.333 72.334 28 83.001l126 268h130z" />
    <glyph glyph-name="Thorn" unicode="&#xde;" horiz-adv-x="601" 
d="M203 690v-118c22.667 0.666992 64 1 124 1c89.333 0 150.833 -15.833 184.5 -47.5s50.5 -91.167 50.5 -178.5c0 -86.667 -16 -145.667 -48 -177s-89.333 -47 -172 -47c-48.667 0 -95 2.66699 -139 8v-131h-126v563v1v126h126zM203 226l120 -0.000976562
c44 0.666992 73.833 9 89.5 25s23.5 48 23.5 96c0 48.667 -7.83301 81.334 -23.5 98.001s-45.5 25 -89.5 25h-120v-244z" />
    <glyph glyph-name="germandbls" unicode="&#xdf;" horiz-adv-x="691" 
d="M491 309l88.002 -47.002c31.333 -17.333 53.166 -35.166 65.499 -53.499s18.5 -44.5 18.5 -78.5c0 -53.333 -14.333 -90.166 -43 -110.499s-76.334 -30.5 -143.001 -30.5c-49.333 0 -103.333 3.66699 -162 11l7 87c46 -2 88.667 -3 128 -3c37.333 0 62.166 3 74.499 9
s18.5 20 18.5 42c0 8 -1 14.833 -3 20.5s-6.83301 11.667 -14.5 18s-13.667 10.833 -18 13.5s-14.166 8.33398 -29.499 17.001l-88 46c-52 28 -78 66.667 -78 116c0 13.333 1.5 25 4.5 35s9.16699 20.167 18.5 30.5s16 17.5 20 21.5s14.5 11.833 31.5 23.5
s27.167 18.834 30.5 21.501c21.333 16 35.833 29.5 43.5 40.5s11.5 24.167 11.5 39.5c0 18 -7.66699 31.5 -23 40.5s-47 13.5 -95 13.5c-48.667 0 -81.167 -6.33301 -97.5 -19s-24.5 -38.334 -24.5 -77.001v-536h-122v401h-87v89h87v60c0 70 18.667 117 56 141
s98.333 36 183 36c88.667 0 150.167 -10.5 184.5 -31.5s51.5 -58.5 51.5 -112.5c0 -24.667 -5.16699 -46.667 -15.5 -66s-30.833 -40.333 -61.5 -63c-7.33301 -6 -18 -13.667 -32 -23s-23.333 -16 -28 -20s-9.33398 -9.66699 -14.001 -17s-7 -15.333 -7 -24
s3.16699 -16.834 9.5 -24.501s12.333 -13.167 18 -16.5s17.834 -10 36.501 -20z" />
    <glyph glyph-name="agrave" unicode="&#xe0;" horiz-adv-x="558" 
d="M296 544l-212 112l62 89l188 -147zM77 394l-12.002 86c86 16 167.667 24 245 24c63.333 0 109.833 -12.667 139.5 -38s44.5 -69.666 44.5 -132.999v-333h-96l-13 75c-51.333 -57.333 -113.666 -86 -186.999 -86c-46 0 -83.333 12.5 -112 37.5s-43 59.833 -43 104.5v50
c0 39.333 12.667 69.666 38 90.999s61 32 107 32h184v30c-0.666992 28 -7 46.667 -19 56s-35.667 14 -71 14c-51.333 0 -119.666 -3.33301 -204.999 -10zM163.998 166v-19.001c0 -40 21.333 -60 64 -60c48.667 0 96.667 19.333 144 58v76h-156
c-19.333 -0.666992 -32.833 -5.66699 -40.5 -15s-11.5 -22.666 -11.5 -39.999z" />
    <glyph glyph-name="aacute" unicode="&#xe1;" horiz-adv-x="558" 
d="M236 544l-38 54l188 147l63 -89zM77 394l-12.002 86c86 16 167.667 24 245 24c63.333 0 109.833 -12.667 139.5 -38s44.5 -69.666 44.5 -132.999v-333h-96l-13 75c-51.333 -57.333 -113.666 -86 -186.999 -86c-46 0 -83.333 12.5 -112 37.5s-43 59.833 -43 104.5v50
c0 39.333 12.667 69.666 38 90.999s61 32 107 32h184v30c-0.666992 28 -7 46.667 -19 56s-35.667 14 -71 14c-51.333 0 -119.666 -3.33301 -204.999 -10zM163.998 166v-19.001c0 -40 21.333 -60 64 -60c48.667 0 96.667 19.333 144 58v76h-156
c-19.333 -0.666992 -32.833 -5.66699 -40.5 -15s-11.5 -22.666 -11.5 -39.999z" />
    <glyph glyph-name="acircumflex" unicode="&#xe2;" horiz-adv-x="558" 
d="M136 543l-37 50l131 131h88l132 -132l-39 -49l-133 96h-8zM77 394l-12.002 86c86 16 167.667 24 245 24c63.333 0 109.833 -12.667 139.5 -38s44.5 -69.666 44.5 -132.999v-333h-96l-13 75c-51.333 -57.333 -113.666 -86 -186.999 -86c-46 0 -83.333 12.5 -112 37.5
s-43 59.833 -43 104.5v50c0 39.333 12.667 69.666 38 90.999s61 32 107 32h184v30c-0.666992 28 -7 46.667 -19 56s-35.667 14 -71 14c-51.333 0 -119.666 -3.33301 -204.999 -10zM163.998 166v-19.001c0 -40 21.333 -60 64 -60c48.667 0 96.667 19.333 144 58v76h-156
c-19.333 -0.666992 -32.833 -5.66699 -40.5 -15s-11.5 -22.666 -11.5 -39.999z" />
    <glyph glyph-name="atilde" unicode="&#xe3;" horiz-adv-x="558" 
d="M161 579h-53c-6 43.333 -1 76.333 15 99s37.333 33 64 31c22.667 -2 50 -10.167 82 -24.5s56.667 -22.5 74 -24.5c16.667 -2.66699 27.834 -0.5 33.501 6.5s8.5 19.5 8.5 37.5h54c6 -42 1.33301 -74.333 -14 -97s-37.333 -33 -66 -31c-25.333 2 -54.5 10.667 -87.5 26
s-55.833 24 -68.5 26c-16.667 2 -27.834 -0.833008 -33.501 -8.5s-8.5 -21.167 -8.5 -40.5zM77 394l-12.002 86c86 16 167.667 24 245 24c63.333 0 109.833 -12.667 139.5 -38s44.5 -69.666 44.5 -132.999v-333h-96l-13 75c-51.333 -57.333 -113.666 -86 -186.999 -86
c-46 0 -83.333 12.5 -112 37.5s-43 59.833 -43 104.5v50c0 39.333 12.667 69.666 38 90.999s61 32 107 32h184v30c-0.666992 28 -7 46.667 -19 56s-35.667 14 -71 14c-51.333 0 -119.666 -3.33301 -204.999 -10zM163.998 166v-19.001c0 -40 21.333 -60 64 -60
c48.667 0 96.667 19.333 144 58v76h-156c-19.333 -0.666992 -32.833 -5.66699 -40.5 -15s-11.5 -22.666 -11.5 -39.999z" />
    <glyph glyph-name="adieresis" unicode="&#xe4;" horiz-adv-x="558" 
d="M205 583h-41c-19.333 0 -29 10 -29 30v55c0 20.667 9.66699 31 29 31h41c19.333 0 29 -10.333 29 -31v-55c0 -20 -9.66699 -30 -29 -30zM383 583h-39c-20.667 0 -31 10 -31 30v55c0 20.667 10.333 31 31 31h39c20.667 0 31 -10.333 31 -31v-55c0 -20 -10.333 -30 -31 -30
zM77 394l-12.002 86c86 16 167.667 24 245 24c63.333 0 109.833 -12.667 139.5 -38s44.5 -69.666 44.5 -132.999v-333h-96l-13 75c-51.333 -57.333 -113.666 -86 -186.999 -86c-46 0 -83.333 12.5 -112 37.5s-43 59.833 -43 104.5v50c0 39.333 12.667 69.666 38 90.999
s61 32 107 32h184v30c-0.666992 28 -7 46.667 -19 56s-35.667 14 -71 14c-51.333 0 -119.666 -3.33301 -204.999 -10zM163.998 166v-19.001c0 -40 21.333 -60 64 -60c48.667 0 96.667 19.333 144 58v76h-156c-19.333 -0.666992 -32.833 -5.66699 -40.5 -15
s-11.5 -22.666 -11.5 -39.999z" />
    <glyph glyph-name="aring" unicode="&#xe5;" horiz-adv-x="558" 
d="M275 533c-32 0 -59 10.5 -81 31.5s-33 47.167 -33 78.5s11 57.666 33 78.999s49 32 81 32c30.667 0 57.167 -10.667 79.5 -32s33.5 -47.666 33.5 -78.999s-11 -57.5 -33 -78.5s-48.667 -31.5 -80 -31.5zM275 698c-16 0 -28.833 -5 -38.5 -15s-14.5 -23.333 -14.5 -40
s5 -29.834 15 -39.501s22.667 -14.5 38 -14.5c14.667 0 27 4.83301 37 14.5s15 22.834 15 39.501s-5 30 -15 40s-22.333 15 -37 15zM77 394l-12.002 86c86 16 167.667 24 245 24c63.333 0 109.833 -12.667 139.5 -38s44.5 -69.666 44.5 -132.999v-333h-96l-13 75
c-51.333 -57.333 -113.666 -86 -186.999 -86c-46 0 -83.333 12.5 -112 37.5s-43 59.833 -43 104.5v50c0 39.333 12.667 69.666 38 90.999s61 32 107 32h184v30c-0.666992 28 -7 46.667 -19 56s-35.667 14 -71 14c-51.333 0 -119.666 -3.33301 -204.999 -10zM163.998 166
v-19.001c0 -40 21.333 -60 64 -60c48.667 0 96.667 19.333 144 58v76h-156c-19.333 -0.666992 -32.833 -5.66699 -40.5 -15s-11.5 -22.666 -11.5 -39.999z" />
    <glyph glyph-name="ae" unicode="&#xe6;" horiz-adv-x="870" 
d="M698 194l-199.998 -0.000976562c4.66699 -42.667 16.667 -71.167 36 -85.5s51.333 -21.5 96 -21.5c49.333 0 107.666 4 174.999 12l11 -78c-46 -22 -113.333 -33 -202 -33c-57.333 0 -103.5 8 -138.5 24s-60.833 41.333 -77.5 76c-54.667 -66 -121.334 -99 -200.001 -99
c-46 0 -83.333 12.5 -112 37.5s-43 59.833 -43 104.5v50c0 38.667 12.667 68.834 38 90.501s60.666 32.5 105.999 32.5h184v30c0 28 -6.16699 46.667 -18.5 56s-36.166 14 -71.499 14c-51.333 0 -119.666 -3.33301 -204.999 -10l-11 86c86 16 167.333 24 244 24
c63.333 0 109.666 -12.667 138.999 -38c34.667 25.333 87.667 38 159 38c77.333 0 133.5 -14 168.5 -42s52.833 -70.667 53.5 -128c0 -93.333 -43.667 -140 -131 -140zM496.002 278.999h167.999c29.333 0 44 19 44 57c0 26.667 -6.83301 45.334 -20.5 56.001
s-38.834 16 -75.501 16c-43.333 0 -73.166 -8.83301 -89.499 -26.5s-25.166 -51.834 -26.499 -102.501zM164.001 165.999l0.000976562 -19.001c0 -21.333 5 -36.666 15 -45.999s26.333 -14 49 -14c52 0 102 21.333 150 64c-4.66699 23.333 -7.33398 46.666 -8.00098 69.999
h-154c-19.333 -0.666992 -32.833 -5.66699 -40.5 -15s-11.5 -22.666 -11.5 -39.999z" />
    <glyph glyph-name="ccedilla" unicode="&#xe7;" horiz-adv-x="498" 
d="M454 98l11.001 -80.002c-48.667 -20 -108.667 -30 -180 -30c-87.333 0 -149 19.333 -185 58s-54 105.334 -54 200.001s18.167 161.334 54.5 200.001s98.166 58 185.499 58c68.667 0 125.667 -9.33301 171 -28l-14 -76c-32.667 1.33301 -78 2 -136 2
c-50.667 0 -85.667 -11 -105 -33s-29 -63 -29 -123c0 -60.667 9.66699 -102.167 29 -124.5s54.333 -33.5 105 -33.5c53.333 0 102.333 3.33301 147 10zM212.001 -106.002l11.999 53.001c49.333 5.33301 83.833 3.83301 103.5 -4.5s28.834 -28.5 27.501 -60.5
c-1.33301 -46 -19.5 -80.833 -54.5 -104.5s-78.5 -31.834 -130.5 -24.501l18 59c24 -0.666992 44 4.33301 60 15s24.333 25.667 25 45c0.666992 9.33301 -2.83301 15.333 -10.5 18s-24.5 4 -50.5 4z" />
    <glyph glyph-name="egrave" unicode="&#xe8;" horiz-adv-x="548" 
d="M307 544l-213 112l63 89l188 -147zM375 194l-200.001 0.00195312c4.66699 -42.667 16.667 -71.167 36 -85.5s51 -21.5 95 -21.5c50 0 108.667 4 176 12l11 -78c-46 -22 -113.333 -33 -202 -33s-151.667 19.667 -189 59s-56 105.666 -56 198.999
c0 95.333 18.333 162.166 55 200.499s97.334 57.5 182.001 57.5c78 0 134.667 -14.167 170 -42.5s53 -70.833 53 -127.5c0 -93.333 -43.667 -140 -131 -140zM172.999 279.002h167.999c29.333 0 44 19 44 57c0 26.667 -7 45.334 -21 56.001s-39.333 16 -76 16
c-42.667 0 -72.167 -8.83301 -88.5 -26.5s-25.166 -51.834 -26.499 -102.501z" />
    <glyph glyph-name="eacute" unicode="&#xe9;" horiz-adv-x="548" 
d="M247 544l-38 54l188 147l63 -89zM375 194l-200.001 0.00195312c4.66699 -42.667 16.667 -71.167 36 -85.5s51 -21.5 95 -21.5c50 0 108.667 4 176 12l11 -78c-46 -22 -113.333 -33 -202 -33s-151.667 19.667 -189 59s-56 105.666 -56 198.999
c0 95.333 18.333 162.166 55 200.499s97.334 57.5 182.001 57.5c78 0 134.667 -14.167 170 -42.5s53 -70.833 53 -127.5c0 -93.333 -43.667 -140 -131 -140zM172.999 279.002h167.999c29.333 0 44 19 44 57c0 26.667 -7 45.334 -21 56.001s-39.333 16 -76 16
c-42.667 0 -72.167 -8.83301 -88.5 -26.5s-25.166 -51.834 -26.499 -102.501z" />
    <glyph glyph-name="ecircumflex" unicode="&#xea;" horiz-adv-x="548" 
d="M147 543l-37 50l131 131h88l132 -132l-39 -49l-133 96h-8zM375 194l-200.001 0.00195312c4.66699 -42.667 16.667 -71.167 36 -85.5s51 -21.5 95 -21.5c50 0 108.667 4 176 12l11 -78c-46 -22 -113.333 -33 -202 -33s-151.667 19.667 -189 59s-56 105.666 -56 198.999
c0 95.333 18.333 162.166 55 200.499s97.334 57.5 182.001 57.5c78 0 134.667 -14.167 170 -42.5s53 -70.833 53 -127.5c0 -93.333 -43.667 -140 -131 -140zM172.999 279.002h167.999c29.333 0 44 19 44 57c0 26.667 -7 45.334 -21 56.001s-39.333 16 -76 16
c-42.667 0 -72.167 -8.83301 -88.5 -26.5s-25.166 -51.834 -26.499 -102.501z" />
    <glyph glyph-name="edieresis" unicode="&#xeb;" horiz-adv-x="548" 
d="M215 583h-40c-19.333 0 -29 10 -29 30v55c0 20.667 9.66699 31 29 31h40c20 0 30 -10.333 30 -31v-55c0 -20 -10 -30 -30 -30zM394 583h-40c-20 0 -30 10 -30 30v55c0 20.667 10 31 30 31h40c20 0 30 -10.333 30 -31v-55c0 -20 -10 -30 -30 -30zM375 194
l-200.001 0.00195312c4.66699 -42.667 16.667 -71.167 36 -85.5s51 -21.5 95 -21.5c50 0 108.667 4 176 12l11 -78c-46 -22 -113.333 -33 -202 -33s-151.667 19.667 -189 59s-56 105.666 -56 198.999c0 95.333 18.333 162.166 55 200.499s97.334 57.5 182.001 57.5
c78 0 134.667 -14.167 170 -42.5s53 -70.833 53 -127.5c0 -93.333 -43.667 -140 -131 -140zM172.999 279.002h167.999c29.333 0 44 19 44 57c0 26.667 -7 45.334 -21 56.001s-39.333 16 -76 16c-42.667 0 -72.167 -8.83301 -88.5 -26.5s-25.166 -51.834 -26.499 -102.501z
" />
    <glyph glyph-name="igrave" unicode="&#xec;" horiz-adv-x="266" 
d="M194 598l-38 -54l-213 112l63 89zM194 0h-122v490h122v-490z" />
    <glyph glyph-name="iacute" unicode="&#xed;" horiz-adv-x="266" 
d="M308 656l-212 -112l-38 54l188 147zM194 0h-122v490h122v-490z" />
    <glyph glyph-name="icircumflex" unicode="&#xee;" horiz-adv-x="266" 
d="M309 592l-38 -49l-133 96h-8l-134 -96l-37 50l131 131h88zM194 0h-122v490h122v-490z" />
    <glyph glyph-name="idieresis" unicode="&#xef;" horiz-adv-x="266" 
d="M24 699h40c20 0 30 -10.333 30 -31v-55c0 -20 -10 -30 -30 -30h-40c-20 0 -30 10 -30 30v55c0 20.667 10 31 30 31zM203 699h40c20 0 30 -10.333 30 -31v-55c0 -20 -10 -30 -30 -30h-40c-20 0 -30 10 -30 30v55c0 20.667 10 31 30 31zM194 0h-122v490h122v-490z" />
    <glyph glyph-name="eth" unicode="&#xf0;" 
d="M455 670l-61.001 -49c80.667 -70 121 -182 121 -336c0 -101.333 -17.333 -176.333 -52 -225s-95.667 -73 -183 -73c-80 0 -138.833 18.5 -176.5 55.5s-56.5 95.167 -56.5 174.5c0 78 16.167 136.333 48.5 175s85.5 58 159.5 58c46 0 86.667 -9 122 -27
c-11.333 58.667 -32.666 103 -63.999 133l-72 -57l-40 48l58 46c-34.667 15.333 -80.667 22 -138 20l12 85c80 4 149 -9.33301 207 -40l75 61zM280.999 84c44.667 0 73.834 15.001 87.501 45.001s20.5 83 20.5 159c0 6 -0.166992 14.667 -0.5 26s-0.5 19.666 -0.5 24.999
c-32 9.33301 -68.333 14 -109 14c-38.667 0 -65.834 -10.5 -81.501 -31.5s-23.5 -55.167 -23.5 -102.5c0 -50 8.16699 -85 24.5 -105s43.833 -30 82.5 -30z" />
    <glyph glyph-name="ntilde" unicode="&#xf1;" horiz-adv-x="590" 
d="M188 579h-52.999c-6 44 -1 77.167 15 99.5s37.667 32.5 65 30.5c22.667 -2 50 -10.167 82 -24.5s56.333 -22.5 73 -24.5c16.667 -2.66699 28 -0.5 34 6.5s9 19.5 9 37.5h53c6 -42 1.33301 -74.333 -14 -97s-37.333 -33 -66 -31c-25.333 2 -54.333 10.667 -87 26
s-55.667 24 -69 26c-16.667 2 -27.834 -0.833008 -33.501 -8.5s-8.5 -21.167 -8.5 -40.5zM170.001 490l8.00195 -72.001c76 57.333 146.667 86 212 86c43.333 0 76.666 -11.667 99.999 -35s35 -57 35 -101v-368h-122v331c0 27.333 -3.66699 45.833 -11 55.5
s-21 14.5 -41 14.5c-22.667 0 -45.834 -4.66699 -69.501 -14s-54.167 -24.666 -91.5 -45.999v-341h-122v490h102z" />
    <glyph glyph-name="ograve" unicode="&#xf2;" horiz-adv-x="576" 
d="M348 598l-38 -54l-212 112l62 89zM289 504c88 0 150.167 -19.667 186.5 -59s54.5 -106 54.5 -200s-18.167 -160.5 -54.5 -199.5s-98.5 -58.5 -186.5 -58.5c-88.667 0 -151.334 19.5 -188.001 58.5s-55 105.5 -55 199.5s18.333 160.667 55 200s99.334 59 188.001 59z
M289 407c-45.333 0 -76 -11.167 -92 -33.5s-24 -65.166 -24 -128.499c0 -62.667 8 -105.167 24 -127.5s46.667 -33.5 92 -33.5c44 0 74.167 11.167 90.5 33.5s24.5 64.833 24.5 127.5c0 63.333 -8.16699 106.166 -24.5 128.499s-46.5 33.5 -90.5 33.5z" />
    <glyph glyph-name="oacute" unicode="&#xf3;" horiz-adv-x="576" 
d="M463 656l-213 -112l-38 54l188 147zM289 504c88 0 150.167 -19.667 186.5 -59s54.5 -106 54.5 -200s-18.167 -160.5 -54.5 -199.5s-98.5 -58.5 -186.5 -58.5c-88.667 0 -151.334 19.5 -188.001 58.5s-55 105.5 -55 199.5s18.333 160.667 55 200s99.334 59 188.001 59z
M289 407c-45.333 0 -76 -11.167 -92 -33.5s-24 -65.166 -24 -128.499c0 -62.667 8 -105.167 24 -127.5s46.667 -33.5 92 -33.5c44 0 74.167 11.167 90.5 33.5s24.5 64.833 24.5 127.5c0 63.333 -8.16699 106.166 -24.5 128.499s-46.5 33.5 -90.5 33.5z" />
    <glyph glyph-name="ocircumflex" unicode="&#xf4;" horiz-adv-x="576" 
d="M464 592l-39 -49l-133 96h-8l-134 -96l-37 50l131 131h88zM289 504c88 0 150.167 -19.667 186.5 -59s54.5 -106 54.5 -200s-18.167 -160.5 -54.5 -199.5s-98.5 -58.5 -186.5 -58.5c-88.667 0 -151.334 19.5 -188.001 58.5s-55 105.5 -55 199.5s18.333 160.667 55 200
s99.334 59 188.001 59zM289 407c-45.333 0 -76 -11.167 -92 -33.5s-24 -65.166 -24 -128.499c0 -62.667 8 -105.167 24 -127.5s46.667 -33.5 92 -33.5c44 0 74.167 11.167 90.5 33.5s24.5 64.833 24.5 127.5c0 63.333 -8.16699 106.166 -24.5 128.499s-46.5 33.5 -90.5 33.5
z" />
    <glyph glyph-name="otilde" unicode="&#xf5;" horiz-adv-x="576" 
d="M175 579h-54.001c-6 43.333 -0.833008 76.333 15.5 99s37.833 33 64.5 31c22.667 -2 50 -10.167 82 -24.5s56.333 -22.5 73 -24.5c17.333 -2.66699 28.833 -0.5 34.5 6.5s8.5 19.5 8.5 37.5h53c6 -42 1.5 -74.333 -13.5 -97s-36.833 -33 -65.5 -31
c-25.333 2 -54.5 10.667 -87.5 26s-55.833 24 -68.5 26c-17.333 2 -28.666 -0.666992 -33.999 -8s-8 -21 -8 -41zM288.999 504c88 0 150.167 -19.667 186.5 -59s54.5 -106 54.5 -200s-18.167 -160.5 -54.5 -199.5s-98.5 -58.5 -186.5 -58.5
c-88.667 0 -151.334 19.5 -188.001 58.5s-55 105.5 -55 199.5s18.333 160.667 55 200s99.334 59 188.001 59zM288.999 407c-45.333 0 -76 -11.167 -92 -33.5s-24 -65.166 -24 -128.499c0 -62.667 8 -105.167 24 -127.5s46.667 -33.5 92 -33.5c44 0 74.167 11.167 90.5 33.5
s24.5 64.833 24.5 127.5c0 63.333 -8.16699 106.166 -24.5 128.499s-46.5 33.5 -90.5 33.5z" />
    <glyph glyph-name="odieresis" unicode="&#xf6;" horiz-adv-x="576" 
d="M178 699h40c20 0 30 -10.333 30 -31v-55c0 -20 -10 -30 -30 -30h-40c-19.333 0 -29 10 -29 30v55c0 20.667 9.66699 31 29 31zM358 699h39c20 0 30 -10.333 30 -31v-55c0 -20 -10 -30 -30 -30h-39c-20.667 0 -31 10 -31 30v55c0 20.667 10.333 31 31 31zM289 504
c88 0 150.167 -19.667 186.5 -59s54.5 -106 54.5 -200s-18.167 -160.5 -54.5 -199.5s-98.5 -58.5 -186.5 -58.5c-88.667 0 -151.334 19.5 -188.001 58.5s-55 105.5 -55 199.5s18.333 160.667 55 200s99.334 59 188.001 59zM289 407c-45.333 0 -76 -11.167 -92 -33.5
s-24 -65.166 -24 -128.499c0 -62.667 8 -105.167 24 -127.5s46.667 -33.5 92 -33.5c44 0 74.167 11.167 90.5 33.5s24.5 64.833 24.5 127.5c0 63.333 -8.16699 106.166 -24.5 128.499s-46.5 33.5 -90.5 33.5z" />
    <glyph glyph-name="divide" unicode="&#xf7;" horiz-adv-x="560" 
d="M264 539h30c16.667 0 28.167 -3.16699 34.5 -9.5s9.5 -17.833 9.5 -34.5v-41c0 -16.667 -3.16699 -28 -9.5 -34s-17.833 -9 -34.5 -9h-30c-16.667 0 -28.167 3 -34.5 9s-9.5 17.333 -9.5 34v41c0 16.667 3.16699 28.167 9.5 34.5s17.833 9.5 34.5 9.5zM505 250h-450v88
h450v-88zM264 176h30c16.667 0 28.167 -3.16699 34.5 -9.5s9.5 -17.833 9.5 -34.5v-40c0 -16.667 -3.16699 -28.167 -9.5 -34.5s-17.833 -9.5 -34.5 -9.5h-30c-16.667 0 -28.167 3.16699 -34.5 9.5s-9.5 17.833 -9.5 34.5v40c0 16.667 3.16699 28.167 9.5 34.5
s17.833 9.5 34.5 9.5z" />
    <glyph glyph-name="oslash" unicode="&#xf8;" horiz-adv-x="576" 
d="M456 549l-32.001 -68c37.333 -16.667 64.333 -44 81 -82s25 -89.333 25 -154c0 -94 -18.167 -160.5 -54.5 -199.5s-98.5 -58.5 -186.5 -58.5c-32 0 -62.333 2.66699 -91 8l-35 -77l-47 22l33 71c-36 17.333 -62.167 44.833 -78.5 82.5s-24.5 88.167 -24.5 151.5
c0 94 18.333 160.667 55 200s99.334 59 188.001 59c30 0 58.333 -2.66699 85 -8l35 76zM197.999 117l133 285.999c-10.667 2.66699 -24.667 4 -42 4c-45.333 0 -76 -11.167 -92 -33.5s-24 -65.166 -24 -128.499s8.33301 -106 25 -128zM375.999 377.999l-134.001 -289
c10.667 -3.33301 26.334 -5 47.001 -5c44 0 74.167 11.167 90.5 33.5s24.5 64.833 24.5 127.5c0 66.667 -9.33301 111 -28 133z" />
    <glyph glyph-name="ugrave" unicode="&#xf9;" horiz-adv-x="579" 
d="M314 550l-212 111l62 90l188 -147zM511 490l-0.000976562 -490h-96l-9 66c-69.333 -52.667 -137.666 -79 -204.999 -79c-90.667 0 -136 45.333 -136 136v367h122v-331c-0.666992 -26 3.33301 -44 12 -54s24.667 -15 48 -15c33.333 0 81 18 143 54v346h121z" />
    <glyph glyph-name="uacute" unicode="&#xfa;" horiz-adv-x="579" 
d="M254 550l-37 54l187 147l63 -90zM511 490l-0.000976562 -490h-96l-9 66c-69.333 -52.667 -137.666 -79 -204.999 -79c-90.667 0 -136 45.333 -136 136v367h122v-331c-0.666992 -26 3.33301 -44 12 -54s24.667 -15 48 -15c33.333 0 81 18 143 54v346h121z" />
    <glyph glyph-name="ucircumflex" unicode="&#xfb;" horiz-adv-x="579" 
d="M154 549l-37 50l132 131h87l132 -132l-39 -49l-133 95h-8zM511 490l-0.000976562 -490h-96l-9 66c-69.333 -52.667 -137.666 -79 -204.999 -79c-90.667 0 -136 45.333 -136 136v367h122v-331c-0.666992 -26 3.33301 -44 12 -54s24.667 -15 48 -15c33.333 0 81 18 143 54
v346h121z" />
    <glyph glyph-name="udieresis" unicode="&#xfc;" horiz-adv-x="579" 
d="M223 589h-41c-19.333 0 -29 10 -29 30v55c0 20 9.66699 30 29 30h41c19.333 0 29 -10 29 -30v-55c0 -20 -9.66699 -30 -29 -30zM401 589h-39c-20 0 -30 10 -30 30v55c0 20 10 30 30 30h39c20.667 0 31 -10 31 -30v-55c0 -20 -10.333 -30 -31 -30zM511 490
l-0.000976562 -490h-96l-9 66c-69.333 -52.667 -137.666 -79 -204.999 -79c-90.667 0 -136 45.333 -136 136v367h122v-331c-0.666992 -26 3.33301 -44 12 -54s24.667 -15 48 -15c33.333 0 81 18 143 54v346h121z" />
    <glyph glyph-name="yacute" unicode="&#xfd;" horiz-adv-x="546" 
d="M237 544l-37 54l187 147l63 -89zM533 490l-182.001 -504.997c-19.333 -55.333 -49 -101.333 -89 -138s-92.667 -53.334 -158 -50.001l-10 77c38.667 10.667 69.334 25.167 92.001 43.5s40 42.166 52 71.499l5 11h-24c-22 0 -35.667 10 -41 30l-166 460h129l107 -337
c6.66699 -20.667 12 -42.334 16 -65.001h14c2.66699 8 6.16699 19.333 10.5 34s7.5 25 9.5 31l105 337h130z" />
    <glyph glyph-name="thorn" unicode="&#xfe;" horiz-adv-x="584" 
d="M190 700l0.00195312 -148.999c0 -41.333 -1.33301 -78 -4 -110c49.333 40.667 107 61 173 61c63.333 0 108.666 -20.833 135.999 -62.5s41 -107.834 41 -198.501c0 -94.667 -14.333 -160.667 -43 -198s-75 -56 -139 -56c-60.667 0 -116.334 13.333 -167.001 40
c2 -30 3 -61 3 -93v-129h-122v895h122zM190.002 350.001v-239.001c50 -20 90.333 -30 121 -30c36.667 0 62.5 11.333 77.5 34s22.5 64.667 22.5 126c0 62.667 -7.16699 105.334 -21.5 128.001s-38.833 34 -73.5 34c-35.333 0 -77.333 -17.667 -126 -53z" />
    <glyph glyph-name="ydieresis" unicode="&#xff;" horiz-adv-x="546" 
d="M206 583h-41c-19.333 0 -29 10 -29 30v55c0 20.667 9.66699 31 29 31h41c19.333 0 29 -10.333 29 -31v-55c0 -20 -9.66699 -30 -29 -30zM384 583h-39c-20 0 -30 10 -30 30v55c0 20.667 10 31 30 31h39c20.667 0 31 -10.333 31 -31v-55c0 -20 -10.333 -30 -31 -30z
M533 490l-182.001 -504.997c-19.333 -55.333 -49 -101.333 -89 -138s-92.667 -53.334 -158 -50.001l-10 77c38.667 10.667 69.334 25.167 92.001 43.5s40 42.166 52 71.499l5 11h-24c-22 0 -35.667 10 -41 30l-166 460h129l107 -337c6.66699 -20.667 12 -42.334 16 -65.001
h14c2.66699 8 6.16699 19.333 10.5 34s7.5 25 9.5 31l105 337h130z" />
    <glyph glyph-name="Amacron" unicode="&#x100;" horiz-adv-x="636" 
d="M464 778h-290v84h290v-84zM446 195h-256l-57 -195h-128l207 657c6 22 21 33 45 33h122c24 0 39 -11 45 -33l207 -657h-128zM416 298l-69 238c-9.33301 36 -14.333 55.667 -15 59h-27l-16 -59l-69 -238h196z" />
    <glyph glyph-name="amacron" unicode="&#x101;" horiz-adv-x="558" 
d="M420 598h-291v84h291v-84zM77 394l-12.002 86c86 16 167.667 24 245 24c63.333 0 109.833 -12.667 139.5 -38s44.5 -69.666 44.5 -132.999v-333h-96l-13 75c-51.333 -57.333 -113.666 -86 -186.999 -86c-46 0 -83.333 12.5 -112 37.5s-43 59.833 -43 104.5v50
c0 39.333 12.667 69.666 38 90.999s61 32 107 32h184v30c-0.666992 28 -7 46.667 -19 56s-35.667 14 -71 14c-51.333 0 -119.666 -3.33301 -204.999 -10zM163.998 166v-19.001c0 -40 21.333 -60 64 -60c48.667 0 96.667 19.333 144 58v76h-156
c-19.333 -0.666992 -32.833 -5.66699 -40.5 -15s-11.5 -22.666 -11.5 -39.999z" />
    <glyph glyph-name="Abreve" unicode="&#x102;" horiz-adv-x="636" 
d="M417 892l59 -8c4 -41.333 -8.33301 -75.5 -37 -102.5s-68.667 -40.5 -120 -40.5c-52 0 -92.5 13.5 -121.5 40.5s-41.5 61.167 -37.5 102.5l59 8c0 -44 33.333 -66 100 -66c65.333 0 98 22 98 66zM446 195h-256l-57 -195h-128l207 657c6 22 21 33 45 33h122
c24 0 39 -11 45 -33l207 -657h-128zM416 298l-69 238c-9.33301 36 -14.333 55.667 -15 59h-27l-16 -59l-69 -238h196z" />
    <glyph glyph-name="abreve" unicode="&#x103;" horiz-adv-x="558" 
d="M373 712l58.998 -8c4 -41.333 -8.5 -75.5 -37.5 -102.5s-69.167 -40.5 -120.5 -40.5s-91.666 13.5 -120.999 40.5s-41.666 61.167 -36.999 102.5l59 8c0 -44.667 33.333 -67 100 -67c65.333 0 98 22.333 98 67zM76.998 394l-12.002 86c86 16 167.667 24 245 24
c63.333 0 109.833 -12.667 139.5 -38s44.5 -69.666 44.5 -132.999v-333h-96l-13 75c-51.333 -57.333 -113.666 -86 -186.999 -86c-46 0 -83.333 12.5 -112 37.5s-43 59.833 -43 104.5v50c0 39.333 12.667 69.666 38 90.999s61 32 107 32h184v30
c-0.666992 28 -7 46.667 -19 56s-35.667 14 -71 14c-51.333 0 -119.666 -3.33301 -204.999 -10zM163.996 166v-19.001c0 -40 21.333 -60 64 -60c48.667 0 96.667 19.333 144 58v76h-156c-19.333 -0.666992 -32.833 -5.66699 -40.5 -15s-11.5 -22.666 -11.5 -39.999z" />
    <glyph glyph-name="Aogonek" unicode="&#x104;" horiz-adv-x="636" 
d="M634 -145l12.998 -48c-46 -18 -82.333 -24.5 -109 -19.5s-44.667 16.667 -54 35s-9.66602 39.5 -0.999023 63.5c13.333 39.333 45 77.333 95 114h-75l-57 195h-256l-57 -195h-128l207 657c6 22 21 33 45 33h122c24 0 39 -11 45 -33l207 -657
c-32 -40.667 -54 -76 -66 -106c-9.33301 -21.333 -7.16602 -35.5 6.50098 -42.5s34.5 -5.83301 62.5 3.5zM415.998 298l-69 238c-9.33301 36 -14.333 55.667 -15 59h-27l-16 -59l-69 -238h196z" />
    <glyph glyph-name="aogonek" unicode="&#x105;" horiz-adv-x="558" 
d="M497 -145l12.9961 -48c-46 -18 -82.5 -24.5 -109.5 -19.5s-45.167 16.667 -54.5 35s-9.66602 39.5 -0.999023 63.5c12.667 38.667 44.667 76.667 96 114h-43l-13 75c-51.333 -57.333 -113.666 -86 -186.999 -86c-46 0 -83.333 12.5 -112 37.5s-43 59.833 -43 104.5v50
c0 39.333 12.667 69.666 38 90.999s61 32 107 32h184v30c-0.666992 28 -7 46.667 -19 56s-35.667 14 -71 14c-51.333 0 -119.666 -3.33301 -204.999 -10l-12 86c86 16 167.667 24 245 24c63.333 0 109.833 -12.667 139.5 -38s44.5 -69.666 44.5 -132.999v-333
c-30.667 -38 -52.667 -73.333 -66 -106c-9.33301 -21.333 -7.16602 -35.5 6.50098 -42.5s34.5 -5.83301 62.5 3.5zM163.996 166v-19.001c0 -40 21.333 -60 64 -60c48.667 0 96.667 19.333 144 58v76h-156c-19.333 -0.666992 -32.833 -5.66699 -40.5 -15
s-11.5 -22.666 -11.5 -39.999z" />
    <glyph glyph-name="Cacute" unicode="&#x106;" horiz-adv-x="578" 
d="M498 836l-213 -112l-38 54l188 148zM535 108l11 -93.998c-55.333 -17.333 -126 -26 -212 -26c-103.333 0 -176 26.667 -218 80s-63 145.666 -63 276.999s21 223.666 63 276.999s114.667 80 218 80c76.667 0 142.667 -7.33301 198 -22l-12 -95c-58 4.66699 -120 7 -186 7
c-57.333 0 -96.5 -17.5 -117.5 -52.5s-31.5 -99.833 -31.5 -194.5s10.5 -159.5 31.5 -194.5s60.167 -52.5 117.5 -52.5c84.667 0 151.667 3.33301 201 10z" />
    <glyph glyph-name="cacute" unicode="&#x107;" horiz-adv-x="498" 
d="M444 656l-213 -112l-38 54l188 147zM454 98l11.001 -80.002c-48.667 -20 -108.667 -30 -180 -30c-87.333 0 -149 19.333 -185 58s-54 105.334 -54 200.001s18.167 161.334 54.5 200.001s98.166 58 185.499 58c68.667 0 125.667 -9.33301 171 -28l-14 -76
c-32.667 1.33301 -78 2 -136 2c-50.667 0 -85.667 -11 -105 -33s-29 -63 -29 -123c0 -60.667 9.66699 -102.167 29 -124.5s54.333 -33.5 105 -33.5c53.333 0 102.333 3.33301 147 10z" />
    <glyph glyph-name="Cdotaccent" unicode="&#x10a;" horiz-adv-x="578" 
d="M304 876h38c23.333 0 35 -11.667 35 -35v-54c0 -22.667 -11.667 -34 -35 -34h-38c-22.667 0 -34 11.333 -34 34v54c0 23.333 11.333 35 34 35zM535 108l11 -93.998c-55.333 -17.333 -126 -26 -212 -26c-103.333 0 -176 26.667 -218 80s-63 145.666 -63 276.999
s21 223.666 63 276.999s114.667 80 218 80c76.667 0 142.667 -7.33301 198 -22l-12 -95c-58 4.66699 -120 7 -186 7c-57.333 0 -96.5 -17.5 -117.5 -52.5s-31.5 -99.833 -31.5 -194.5s10.5 -159.5 31.5 -194.5s60.167 -52.5 117.5 -52.5c84.667 0 151.667 3.33301 201 10z
" />
    <glyph glyph-name="cdotaccent" unicode="&#x10b;" horiz-adv-x="498" 
d="M251 696h37c23.333 0 35 -11.667 35 -35v-54c0 -22.667 -11.667 -34 -35 -34h-37c-23.333 0 -35 11.333 -35 34v54c0 23.333 11.667 35 35 35zM454 98l11.001 -80.002c-48.667 -20 -108.667 -30 -180 -30c-87.333 0 -149 19.333 -185 58s-54 105.334 -54 200.001
s18.167 161.334 54.5 200.001s98.166 58 185.499 58c68.667 0 125.667 -9.33301 171 -28l-14 -76c-32.667 1.33301 -78 2 -136 2c-50.667 0 -85.667 -11 -105 -33s-29 -63 -29 -123c0 -60.667 9.66699 -102.167 29 -124.5s54.333 -33.5 105 -33.5
c53.333 0 102.333 3.33301 147 10z" />
    <glyph glyph-name="Ccaron" unicode="&#x10c;" horiz-adv-x="578" 
d="M498 872l-148 -131h-52l-148 131l37 50l133 -81h8l132 81zM535 108l11 -93.998c-55.333 -17.333 -126 -26 -212 -26c-103.333 0 -176 26.667 -218 80s-63 145.666 -63 276.999s21 223.666 63 276.999s114.667 80 218 80c76.667 0 142.667 -7.33301 198 -22l-12 -95
c-58 4.66699 -120 7 -186 7c-57.333 0 -96.5 -17.5 -117.5 -52.5s-31.5 -99.833 -31.5 -194.5s10.5 -159.5 31.5 -194.5s60.167 -52.5 117.5 -52.5c84.667 0 151.667 3.33301 201 10z" />
    <glyph glyph-name="ccaron" unicode="&#x10d;" horiz-adv-x="498" 
d="M445 691l-149 -131h-52l-148 131l37 51l133 -82h8l132 82zM454 98l11.001 -80.002c-48.667 -20 -108.667 -30 -180 -30c-87.333 0 -149 19.333 -185 58s-54 105.334 -54 200.001s18.167 161.334 54.5 200.001s98.166 58 185.499 58c68.667 0 125.667 -9.33301 171 -28
l-14 -76c-32.667 1.33301 -78 2 -136 2c-50.667 0 -85.667 -11 -105 -33s-29 -63 -29 -123c0 -60.667 9.66699 -102.167 29 -124.5s54.333 -33.5 105 -33.5c53.333 0 102.333 3.33301 147 10z" />
    <glyph glyph-name="Dcaron" unicode="&#x10e;" horiz-adv-x="671" 
d="M295 741l-148 131l37 50l133 -81h8l132 81l39 -50l-149 -131h-52zM77 0v689.998c91.333 6 177.333 9 258 9c104.667 0 177.834 -25.667 219.501 -77s62.5 -143.666 62.5 -276.999s-20.833 -225.666 -62.5 -276.999s-114.834 -77 -219.501 -77
c-80.667 0 -166.667 3 -258 9zM202 593.998l0.00195312 -496.001c52 -1.33301 96.333 -2 133 -2c57.333 0 96.666 17.833 117.999 53.5s32 100.834 32 195.501s-10.833 160 -32.5 196s-60.834 54 -117.501 54c-18 0 -41.5 -0.166992 -70.5 -0.5s-49.833 -0.5 -62.5 -0.5z
" />
    <glyph glyph-name="dcaron" unicode="&#x10f;" horiz-adv-x="583" 
d="M666 670l-0.000976562 -48.001c0 -45.333 -13 -87.666 -39 -126.999l-49 12c7.33301 28.667 11 59.667 11 93c-20 0 -30 9.33301 -30 28v42c1.33301 12 4.83301 20.333 10.5 25s15.834 7 30.501 7h29c14 0 23.833 -2.33301 29.5 -7s8.16699 -13 7.5 -25zM392.999 699.999
l122 -0.000976562v-700h-96l-10 67c-56.667 -52.667 -120 -79 -190 -79c-60 0 -103.667 21.833 -131 65.5s-41 108.5 -41 194.5c0 94 15.167 160.167 45.5 198.5s77.833 57.5 142.5 57.5c62.667 0 117 -14.333 163 -43c-3.33301 26.667 -5 59.334 -5 98.001v141z
M392.999 141.998l-0.000976562 242.999c-53.333 13.333 -94 20 -122 20c-38 0 -64 -10.167 -78 -30.5s-21 -62.166 -21 -125.499c0 -62 6.83301 -103.833 20.5 -125.5s37.5 -32.5 71.5 -32.5c22.667 0 42.334 3.5 59.001 10.5s40 20.5 70 40.5z" />
    <glyph glyph-name="Dcroat" unicode="&#x110;" horiz-adv-x="675" 
d="M81 397v293c91.333 6 177.333 9 258 9c104.667 0 177.834 -25.5 219.501 -76.5s62.5 -143.5 62.5 -277.5s-20.833 -226.5 -62.5 -277.5s-114.834 -76.5 -219.501 -76.5c-80.667 0 -166.667 3 -258 9v331h-62v66h62zM207 331l0.000976562 -233.001
c50.667 -1.33301 94.667 -2 132 -2c57.333 0 96.666 17.833 117.999 53.5s32 100.834 32 195.501s-10.833 160 -32.5 196s-60.834 54 -117.501 54c-17.333 0 -40.666 -0.166992 -69.999 -0.5s-50 -0.5 -62 -0.5v-197h134v-66h-134z" />
    <glyph glyph-name="dcroat" unicode="&#x111;" horiz-adv-x="579" 
d="M578 564l-63 -0.000976562v-564h-96l-10 67c-56.667 -52.667 -120 -79 -190 -79c-60 0 -103.667 21.833 -131 65.5s-41 108.5 -41 194.5c0 94 15.167 160.167 45.5 198.5s77.833 57.5 142.5 57.5c62.667 0 117 -14.333 163 -43c-3.33301 26.667 -5 59.334 -5 98.001v5
h-140v64h140v72h122v-72h63v-64zM393 141.999l-0.000976562 242.999c-53.333 13.333 -94 20 -122 20c-38 0 -64 -10.167 -78 -30.5s-21 -62.166 -21 -125.499c0 -62 6.83301 -103.833 20.5 -125.5s37.5 -32.5 71.5 -32.5c22.667 0 42.334 3.5 59.001 10.5s40 20.5 70 40.5z
" />
    <glyph glyph-name="Emacron" unicode="&#x112;" 
d="M457 795h-290v84h290v-84zM517 101l6 -95c-60.667 -5.33301 -162 -8 -304 -8c-45.333 0 -81.166 11.667 -107.499 35s-39.833 55.333 -40.5 96v432c0.666992 40.667 14.167 72.667 40.5 96s62.166 35 107.499 35c142 0 243.333 -2.66699 304 -8l-6 -96h-270
c-18 0 -30.833 -4.33301 -38.5 -13s-11.5 -23.667 -11.5 -45v-121h283v-96h-283v-154c0 -21.333 3.83301 -36.333 11.5 -45s20.5 -13 38.5 -13h270z" />
    <glyph glyph-name="emacron" unicode="&#x113;" horiz-adv-x="548" 
d="M431 598h-291v84h291v-84zM375 194l-200.001 0.00195312c4.66699 -42.667 16.667 -71.167 36 -85.5s51 -21.5 95 -21.5c50 0 108.667 4 176 12l11 -78c-46 -22 -113.333 -33 -202 -33s-151.667 19.667 -189 59s-56 105.666 -56 198.999
c0 95.333 18.333 162.166 55 200.499s97.334 57.5 182.001 57.5c78 0 134.667 -14.167 170 -42.5s53 -70.833 53 -127.5c0 -93.333 -43.667 -140 -131 -140zM172.999 279.002h167.999c29.333 0 44 19 44 57c0 26.667 -7 45.334 -21 56.001s-39.333 16 -76 16
c-42.667 0 -72.167 -8.83301 -88.5 -26.5s-25.166 -51.834 -26.499 -102.501z" />
    <glyph glyph-name="Edotaccent" unicode="&#x116;" 
d="M331 769h-38c-23.333 0 -35 11.667 -35 35v54c0 22.667 11.667 34 35 34h38c22.667 0 34 -11.333 34 -34v-54c0 -23.333 -11.333 -35 -34 -35zM517 101l6 -95c-60.667 -5.33301 -162 -8 -304 -8c-45.333 0 -81.166 11.667 -107.499 35s-39.833 55.333 -40.5 96v432
c0.666992 40.667 14.167 72.667 40.5 96s62.166 35 107.499 35c142 0 243.333 -2.66699 304 -8l-6 -96h-270c-18 0 -30.833 -4.33301 -38.5 -13s-11.5 -23.667 -11.5 -45v-121h283v-96h-283v-154c0 -21.333 3.83301 -36.333 11.5 -45s20.5 -13 38.5 -13h270z" />
    <glyph glyph-name="edotaccent" unicode="&#x117;" horiz-adv-x="548" 
d="M304 573h-38c-22.667 0 -34 11.333 -34 34v54c0 23.333 11.333 35 34 35h38c23.333 0 35 -11.667 35 -35v-54c0 -22.667 -11.667 -34 -35 -34zM375 194l-200.001 0.00195312c4.66699 -42.667 16.667 -71.167 36 -85.5s51 -21.5 95 -21.5c50 0 108.667 4 176 12l11 -78
c-46 -22 -113.333 -33 -202 -33s-151.667 19.667 -189 59s-56 105.666 -56 198.999c0 95.333 18.333 162.166 55 200.499s97.334 57.5 182.001 57.5c78 0 134.667 -14.167 170 -42.5s53 -70.833 53 -127.5c0 -93.333 -43.667 -140 -131 -140zM172.999 279.002h167.999
c29.333 0 44 19 44 57c0 26.667 -7 45.334 -21 56.001s-39.333 16 -76 16c-42.667 0 -72.167 -8.83301 -88.5 -26.5s-25.166 -51.834 -26.499 -102.501z" />
    <glyph glyph-name="Eogonek" unicode="&#x118;" 
d="M526 -139l12.998 -47c-46 -18 -82.5 -24.667 -109.5 -20s-45.167 16.167 -54.5 34.5s-9.66602 39.833 -0.999023 64.5c12.667 36.667 42.667 73 90 109c-52 -2.66699 -133.667 -4 -245 -4c-45.333 0 -81.166 11.667 -107.499 35s-39.833 55.333 -40.5 96v432
c0.666992 40.667 14.167 72.667 40.5 96s62.166 35 107.499 35c142 0 243.333 -2.66699 304 -8l-6 -96h-270c-18 0 -30.833 -4.33301 -38.5 -13s-11.5 -23.667 -11.5 -45v-121h283v-96h-283v-154c0 -21.333 3.83301 -36.333 11.5 -45s20.5 -13 38.5 -13h270l6 -95
c-30.667 -38 -52.667 -73.333 -66 -106c-9.33301 -20.667 -7.16602 -34.5 6.50098 -41.5s34.5 -6.16699 62.5 2.5z" />
    <glyph glyph-name="eogonek" unicode="&#x119;" horiz-adv-x="548" 
d="M497 -124l11.998 -47.998c-46 -18 -82.333 -24.5 -109 -19.5s-44.667 16.667 -54 35s-9.66602 39.5 -0.999023 63.5c10 30.667 32 61 66 91c-39.333 -6.66699 -79.333 -10 -120 -10c-88.667 0 -151.667 19.667 -189 59s-56 105.666 -56 198.999
c0 95.333 18.333 162.166 55 200.499s97.334 57.5 182.001 57.5c78 0 134.667 -14.167 170 -42.5s53 -70.833 53 -127.5c0 -93.333 -43.667 -140 -131 -140h-200c4.66699 -42.667 16.667 -71.167 36 -85.5s51 -21.5 95 -21.5c50 0 108.667 4 176 12l11 -78
c-32 -40.667 -54 -76 -66 -106c-9.33301 -21.333 -7 -35.5 7 -42.5s35 -5.83301 63 3.5zM172.998 279.002h167.999c29.333 0 44 19 44 57c0 26.667 -7 45.334 -21 56.001s-39.333 16 -76 16c-42.667 0 -72.167 -8.83301 -88.5 -26.5s-25.166 -51.834 -26.499 -102.501z" />
    <glyph glyph-name="Ecaron" unicode="&#x11a;" 
d="M286 757l-147 131l37 50l132 -81h8l133 81l38 -50l-148 -131h-53zM517 101l6 -95c-60.667 -5.33301 -162 -8 -304 -8c-45.333 0 -81.166 11.667 -107.499 35s-39.833 55.333 -40.5 96v432c0.666992 40.667 14.167 72.667 40.5 96s62.166 35 107.499 35
c142 0 243.333 -2.66699 304 -8l-6 -96h-270c-18 0 -30.833 -4.33301 -38.5 -13s-11.5 -23.667 -11.5 -45v-121h283v-96h-283v-154c0 -21.333 3.83301 -36.333 11.5 -45s20.5 -13 38.5 -13h270z" />
    <glyph glyph-name="ecaron" unicode="&#x11b;" horiz-adv-x="548" 
d="M260 560l-148 131l37 51l133 -82h8l132 82l38 -51l-148 -131h-52zM375 194l-200.001 0.00195312c4.66699 -42.667 16.667 -71.167 36 -85.5s51 -21.5 95 -21.5c50 0 108.667 4 176 12l11 -78c-46 -22 -113.333 -33 -202 -33s-151.667 19.667 -189 59
s-56 105.666 -56 198.999c0 95.333 18.333 162.166 55 200.499s97.334 57.5 182.001 57.5c78 0 134.667 -14.167 170 -42.5s53 -70.833 53 -127.5c0 -93.333 -43.667 -140 -131 -140zM172.999 279.002h167.999c29.333 0 44 19 44 57c0 26.667 -7 45.334 -21 56.001
s-39.333 16 -76 16c-42.667 0 -72.167 -8.83301 -88.5 -26.5s-25.166 -51.834 -26.499 -102.501z" />
    <glyph glyph-name="Gbreve" unicode="&#x11e;" horiz-adv-x="635" 
d="M430 892l59.999 -7.99902c4 -41.333 -8.5 -75.5 -37.5 -102.5s-69.167 -40.5 -120.5 -40.5s-91.666 13.5 -120.999 40.5s-42 61.167 -38 102.5l59 8c0 -44 33.333 -66 100 -66c32 0 56.5 5.66699 73.5 17s25.167 27.666 24.5 48.999zM575.999 398.001v-397.999h-93
l-11 68c-57.333 -54 -124.666 -81 -201.999 -81c-76 0 -131 28.833 -165 86.5s-51 149.167 -51 274.5c0 136 22 229.167 66 279.5s122.667 75.5 236 75.5c76.667 0 142.667 -7.66699 198 -23l-10 -93c-64.667 4 -125.334 6 -182.001 6c-36 0 -64 -2.5 -84 -7.5
s-37.667 -16.333 -53 -34s-25.833 -43 -31.5 -76s-8.5 -77.833 -8.5 -134.5c0 -92.667 9 -156.834 27 -192.501s50.333 -53.5 97 -53.5c44.667 0 93 16 145 48v255h122z" />
    <glyph glyph-name="gbreve" unicode="&#x11f;" 
d="M374 712l59 -8c4 -41.333 -8.5 -75.5 -37.5 -102.5s-68.833 -40.5 -119.5 -40.5c-52 0 -92.5 13.5 -121.5 40.5s-41.5 61.167 -37.5 102.5l59 8c0 -44.667 33.333 -67 100 -67c65.333 0 98 22.333 98 67zM545 431l-64.001 -6.99902c8.66699 -21.333 13 -47.333 13 -78
c0 -56.667 -16.333 -97.167 -49 -121.5s-90 -36.5 -172 -36.5c-36 0 -66 2.33301 -90 7c-8 -12 -9.66699 -25.5 -5 -40.5s16 -23.5 34 -25.5l179 -25c48 -6.66699 82.5 -21.334 103.5 -44.001s31.5 -55.667 31.5 -99c0 -60 -17.833 -101.167 -53.5 -123.5
s-100.167 -33.5 -193.5 -33.5c-94.667 0 -159.667 10.833 -195 32.5s-53 60.834 -53 117.501c0 25.333 6 46 18 62s31.667 31.333 59 46c-22 20.667 -31.167 47.167 -27.5 79.5s17.167 56.166 40.5 71.499c-46 22 -69 66 -69 132c0 58 16.333 99 49 123
s90.334 36 173.001 36c48.667 0 89.667 -4.66699 123 -14h155zM272.999 273.001c41.333 0 69.833 5.33301 85.5 16s23.5 29.667 23.5 57s-7.83301 46.166 -23.5 56.499s-44.167 15.5 -85.5 15.5s-70 -5.16699 -86 -15.5s-24 -29.166 -24 -56.499s8 -46.333 24 -57
s44.667 -16 86 -16zM325.999 19.001l-140 17.001c-25.333 -23.333 -38 -46.333 -38 -69c0 -28.667 8.16699 -46.834 24.5 -54.501s51.5 -11.5 105.5 -11.5s89.333 4 106 12s25 25.667 25 53c0 20 -5 32.833 -15 38.5s-32.667 10.5 -68 14.5z" />
    <glyph glyph-name="Gdotaccent" unicode="&#x120;" horiz-adv-x="635" 
d="M351 753h-38c-23.333 0 -35 11.333 -35 34v54c0 23.333 11.667 35 35 35h38c23.333 0 35 -11.667 35 -35v-54c0 -22.667 -11.667 -34 -35 -34zM576 398v-397.999h-93l-11 68c-57.333 -54 -124.666 -81 -201.999 -81c-76 0 -131 28.833 -165 86.5s-51 149.167 -51 274.5
c0 136 22 229.167 66 279.5s122.667 75.5 236 75.5c76.667 0 142.667 -7.66699 198 -23l-10 -93c-64.667 4 -125.334 6 -182.001 6c-36 0 -64 -2.5 -84 -7.5s-37.667 -16.333 -53 -34s-25.833 -43 -31.5 -76s-8.5 -77.833 -8.5 -134.5c0 -92.667 9 -156.834 27 -192.501
s50.333 -53.5 97 -53.5c44.667 0 93 16 145 48v255h122z" />
    <glyph glyph-name="gdotaccent" unicode="&#x121;" 
d="M295 573h-38c-23.333 0 -35 11.333 -35 34v54c0 23.333 11.667 35 35 35h38c22.667 0 34 -11.667 34 -35v-54c0 -22.667 -11.333 -34 -34 -34zM545 431l-64.001 -6.99902c8.66699 -21.333 13 -47.333 13 -78c0 -56.667 -16.333 -97.167 -49 -121.5s-90 -36.5 -172 -36.5
c-36 0 -66 2.33301 -90 7c-8 -12 -9.66699 -25.5 -5 -40.5s16 -23.5 34 -25.5l179 -25c48 -6.66699 82.5 -21.334 103.5 -44.001s31.5 -55.667 31.5 -99c0 -60 -17.833 -101.167 -53.5 -123.5s-100.167 -33.5 -193.5 -33.5c-94.667 0 -159.667 10.833 -195 32.5
s-53 60.834 -53 117.501c0 25.333 6 46 18 62s31.667 31.333 59 46c-22 20.667 -31.167 47.167 -27.5 79.5s17.167 56.166 40.5 71.499c-46 22 -69 66 -69 132c0 58 16.333 99 49 123s90.334 36 173.001 36c48.667 0 89.667 -4.66699 123 -14h155zM272.999 273.001
c41.333 0 69.833 5.33301 85.5 16s23.5 29.667 23.5 57s-7.83301 46.166 -23.5 56.499s-44.167 15.5 -85.5 15.5s-70 -5.16699 -86 -15.5s-24 -29.166 -24 -56.499s8 -46.333 24 -57s44.667 -16 86 -16zM325.999 19.001l-140 17.001c-25.333 -23.333 -38 -46.333 -38 -69
c0 -28.667 8.16699 -46.834 24.5 -54.501s51.5 -11.5 105.5 -11.5s89.333 4 106 12s25 25.667 25 53c0 20 -5 32.833 -15 38.5s-32.667 10.5 -68 14.5z" />
    <glyph glyph-name="Gcommaaccent" unicode="&#x122;" horiz-adv-x="635" 
d="M576 398v-397.999h-93l-11 68c-57.333 -54 -124.666 -81 -201.999 -81c-76 0 -131 28.833 -165 86.5s-51 149.167 -51 274.5c0 136 22 229.167 66 279.5s122.667 75.5 236 75.5c76.667 0 142.667 -7.66699 198 -23l-10 -93c-64.667 4 -125.334 6 -182.001 6
c-36 0 -64 -2.5 -84 -7.5s-37.667 -16.333 -53 -34s-25.833 -43 -31.5 -76s-8.5 -77.833 -8.5 -134.5c0 -92.667 9 -156.834 27 -192.501s50.333 -53.5 97 -53.5c44.667 0 93 16 145 48v255h122zM315 -54.999h30c14.667 0 24.667 -2.66699 30 -8s8 -14.666 8 -27.999v-53
c-0.666992 -52.667 -14 -99.667 -40 -141l-50 13c8 34 12 68.333 12 103c-20.667 0 -31 10.667 -31 32v46c0.666992 13.333 4.16699 22.666 10.5 27.999s16.5 8 30.5 8z" />
    <glyph glyph-name="gcommaaccent" unicode="&#x123;" 
d="M304 554h-28.998c-14.667 0 -24.834 2.5 -30.501 7.5s-8.5 14.167 -8.5 27.5v53c0.666992 51.333 14 98.333 40 141l50 -13c-8 -34 -12 -68.333 -12 -103c20.667 0 31 -10.333 31 -31v-47c-1.33301 -13.333 -4.83301 -22.5 -10.5 -27.5s-15.834 -7.5 -30.501 -7.5z
M545.002 431l-64.001 -6.99902c8.66699 -21.333 13 -47.333 13 -78c0 -56.667 -16.333 -97.167 -49 -121.5s-90 -36.5 -172 -36.5c-36 0 -66 2.33301 -90 7c-8 -12 -9.66699 -25.5 -5 -40.5s16 -23.5 34 -25.5l179 -25c48 -6.66699 82.5 -21.334 103.5 -44.001
s31.5 -55.667 31.5 -99c0 -60 -17.833 -101.167 -53.5 -123.5s-100.167 -33.5 -193.5 -33.5c-94.667 0 -159.667 10.833 -195 32.5s-53 60.834 -53 117.501c0 25.333 6 46 18 62s31.667 31.333 59 46c-22 20.667 -31.167 47.167 -27.5 79.5s17.167 56.166 40.5 71.499
c-46 22 -69 66 -69 132c0 58 16.333 99 49 123s90.334 36 173.001 36c48.667 0 89.667 -4.66699 123 -14h155zM273.001 273.001c41.333 0 69.833 5.33301 85.5 16s23.5 29.667 23.5 57s-7.83301 46.166 -23.5 56.499s-44.167 15.5 -85.5 15.5s-70 -5.16699 -86 -15.5
s-24 -29.166 -24 -56.499s8 -46.333 24 -57s44.667 -16 86 -16zM326.001 19.001l-140 17.001c-25.333 -23.333 -38 -46.333 -38 -69c0 -28.667 8.16699 -46.834 24.5 -54.501s51.5 -11.5 105.5 -11.5s89.333 4 106 12s25 25.667 25 53c0 20 -5 32.833 -15 38.5
s-32.667 10.5 -68 14.5z" />
    <glyph glyph-name="Hbar" unicode="&#x126;" horiz-adv-x="685" 
d="M668 516h-64v-516h-125v316h-273v-316h-125v516h-65v62h65v112h125v-112h273v112h125v-112h64v-62zM479 516h-273v-97h273v97z" />
    <glyph glyph-name="hbar" unicode="&#x127;" horiz-adv-x="594" 
d="M195 564l0.000976562 -44c0 -28.667 -2.66699 -61.667 -8 -99c72.667 55.333 141.667 83 207 83c43.333 0 76.666 -11.667 99.999 -35s35 -57 35 -101v-368h-122v331c0 27.333 -3.83301 45.833 -11.5 55.5s-21.5 14.5 -41.5 14.5c-38 0 -91.333 -20 -160 -60v-341h-122
v564h-70v64h70v72h122v-72h133v-64h-132z" />
    <glyph glyph-name="Imacron" unicode="&#x12a;" horiz-adv-x="279" 
d="M286 778h-291v84h291v-84zM202 0h-125v690h125v-690z" />
    <glyph glyph-name="imacron" unicode="&#x12b;" horiz-adv-x="266" 
d="M279 598h-290v84h290v-84zM194 0h-122v490h122v-490z" />
    <glyph glyph-name="Iogonek" unicode="&#x12e;" horiz-adv-x="279" 
d="M190 -145l12.999 -48c-46 -18 -82.5 -24.5 -109.5 -19.5s-45.167 16.667 -54.5 35s-9.33301 39.5 0 63.5c11.333 38 43 76 95 114h-57v690h125v-690h-15c-32 -40.667 -54 -76 -66 -106c-9.33301 -21.333 -7.16602 -35.5 6.50098 -42.5s34.5 -5.83301 62.5 3.5z" />
    <glyph glyph-name="iogonek" unicode="&#x12f;" horiz-adv-x="266" 
d="M153 573h-38c-23.333 0 -35 11.333 -35 34v54c0 23.333 11.667 35 35 35h38c23.333 0 35 -11.667 35 -35v-54c0 -22.667 -11.667 -34 -35 -34zM186 -145l12.998 -48c-46 -18 -82.333 -24.5 -109 -19.5s-44.667 16.667 -54 35s-9.66602 39.5 -0.999023 63.5
c13.333 39.333 45 77.333 95 114h-58v490h122v-490h-11c-32 -40.667 -54 -76 -66 -106c-9.33301 -21.333 -7.16602 -35.5 6.50098 -42.5s34.5 -5.83301 62.5 3.5z" />
    <glyph glyph-name="Idotaccent" unicode="&#x130;" horiz-adv-x="279" 
d="M121 876h38c23.333 0 35 -11.667 35 -35v-54c0 -22.667 -11.667 -34 -35 -34h-38c-22.667 0 -34 11.333 -34 34v54c0 23.333 11.333 35 34 35zM202 0h-125v690h125v-690z" />
    <glyph glyph-name="dotlessi" unicode="&#x131;" horiz-adv-x="266" 
d="M194 0h-122v490h122v-490z" />
    <glyph glyph-name="IJ" unicode="&#x132;" horiz-adv-x="633" 
d="M202 0h-125v690h125v-690zM559 690v-538c0 -52 -12.5 -92.167 -37.5 -120.5s-60.5 -42.5 -106.5 -42.5s-83 5.66699 -111 17l14 87h47c46 0 69 20.667 69 62v535h125z" />
    <glyph glyph-name="ij" unicode="&#x133;" horiz-adv-x="532" 
d="M371 704h56c23.333 0 35 -11.667 35 -35v-54c0 -23.333 -11.667 -35 -35 -35h-56c-23.333 0 -35 11.667 -35 35v54c0 23.333 11.667 35 35 35zM104 703h56c23.333 0 35 -11.667 35 -35v-55c0 -23.333 -11.667 -35 -35 -35h-56c-23.333 0 -35 11.667 -35 35v55
c0 23.333 11.667 35 35 35zM193 0h-121v490h121v-490zM459 490l0.000976562 -481.002c0 -43.333 -9.83301 -83.666 -29.5 -120.999s-46.834 -66.666 -81.501 -87.999l-68 53c38.667 46 58 98 58 156v481h121z" />
    <glyph glyph-name="Kcommaaccent" unicode="&#x136;" horiz-adv-x="612" 
d="M601 0h-140.001l-198 311h-68c4.66699 -21.333 7 -44 7 -68v-243h-125v690h125v-203c0 -29.333 -2.33301 -56 -7 -80h68l189 283h136l-186 -278c-11.333 -18 -26.666 -35.333 -45.999 -52v-3c23.333 -19.333 41.333 -39 54 -59zM307.999 -55h28.998
c14.667 0 24.834 -2.66699 30.501 -8s8.5 -14.666 8.5 -27.999v-53c-0.666992 -51.333 -14 -98.333 -40 -141l-50 13c8 34 12 68.333 12 103c-20.667 0 -31 10.667 -31 32v46c1.33301 13.333 4.83301 22.666 10.5 27.999s15.834 8 30.501 8z" />
    <glyph glyph-name="kcommaaccent" unicode="&#x137;" horiz-adv-x="534" 
d="M525 0l-137.999 0.00195312l-149 234h-54c4 -34.667 6 -59.667 6 -75v-159h-122v700h123v-298c0 -31.333 -2.33301 -60 -7 -86h53l134 174h138l-137 -174c-10.667 -16.667 -24.334 -30.334 -41.001 -41.001v-2c13.333 -8.66699 27 -24.334 41 -47.001zM271.001 -53.998
l30 -0.000976562c14.667 0 24.667 -2.66699 30 -8s8 -14.666 8 -27.999v-53c-0.666992 -52 -14 -99 -40 -141l-50 13c8 34.667 12 69.334 12 104.001c-20.667 0 -31 10.333 -31 31v46c0.666992 13.333 4.16699 22.666 10.5 27.999s16.5 8 30.5 8z" />
    <glyph glyph-name="Lacute" unicode="&#x139;" horiz-adv-x="521" 
d="M315 836l-212 -112l-38 54l188 148zM200 690l-0.000976562 -529.001c0 -21.333 4.33301 -36.166 13 -44.499s24 -12.5 46 -12.5h240l5 -97c-65.333 -6 -156.666 -9 -273.999 -9c-103.333 0 -155 47.667 -155 143v549h125z" />
    <glyph glyph-name="lacute" unicode="&#x13a;" horiz-adv-x="314" 
d="M308 855l-213 -112l-38 54l188 147zM191 700l0.00195312 -547.001c-0.666992 -19.333 3.83301 -33.666 13.5 -42.999s24.5 -14 44.5 -14h42l14 -90c-22.667 -11.333 -57.334 -17 -104.001 -17c-40.667 0 -72.834 11.667 -96.501 35s-35.5 56.333 -35.5 99v577h122z" />
    <glyph glyph-name="Lcommaaccent" unicode="&#x13b;" horiz-adv-x="521" 
d="M200 690l-0.000976562 -529.001c0 -21.333 4.33301 -36.166 13 -44.499s24 -12.5 46 -12.5h240l5 -97c-65.333 -6 -156.666 -9 -273.999 -9c-103.333 0 -155 47.667 -155 143v549h125zM279.999 -55.001h28.998c14.667 0 24.834 -2.66699 30.501 -8
s8.5 -14.666 8.5 -27.999v-53c-0.666992 -51.333 -14 -98.333 -40 -141l-50 13c8 34 12 68.333 12 103c-20.667 0 -31 10.667 -31 32v46c1.33301 13.333 4.83301 22.666 10.5 27.999s15.834 8 30.501 8z" />
    <glyph glyph-name="lcommaaccent" unicode="&#x13c;" horiz-adv-x="314" 
d="M191 700l0.00195312 -547.001c-0.666992 -19.333 3.83301 -33.666 13.5 -42.999s24.5 -14 44.5 -14h42l14 -90c-22.667 -11.333 -57.334 -17 -104.001 -17c-40.667 0 -72.834 11.667 -96.501 35s-35.5 56.333 -35.5 99v577h122zM163.002 -55.001h28.999
c14.667 0 24.834 -2.66699 30.501 -8s8.5 -14.666 8.5 -27.999v-53c-0.666992 -51.333 -14 -98.333 -40 -141l-50 13c8 34 12 68.333 12 103c-20.667 0 -31 10.667 -31 32v46c0.666992 13.333 4.16699 22.666 10.5 27.999s16.5 8 30.5 8z" />
    <glyph glyph-name="Lcaron" unicode="&#x13d;" horiz-adv-x="521" 
d="M340 691l30 0.000976562c14.667 0 24.667 -2.66699 30 -8s8 -14.666 8 -27.999v-53c0 -50.667 -13.333 -97.334 -40 -140.001l-50 12c8 35.333 12 70 12 104c-20.667 0 -31 10.333 -31 31v46c0.666992 13.333 4.16699 22.666 10.5 27.999s16.5 8 30.5 8zM200 690.001
l-0.000976562 -529.001c0 -21.333 4.33301 -36.166 13 -44.499s24 -12.5 46 -12.5h240l5 -97c-65.333 -6 -156.666 -9 -273.999 -9c-103.333 0 -155 47.667 -155 143v549h125z" />
    <glyph glyph-name="lcaron" unicode="&#x13e;" horiz-adv-x="314" 
d="M275 702h29c14.667 0 24.667 -2.33301 30 -7s8.33301 -13 9 -25v-48c-0.666992 -46 -14 -88.333 -40 -127l-49 12c7.33301 28.667 11 59.667 11 93c-20 0 -30 9.33301 -30 28v42c1.33301 12 4.83301 20.333 10.5 25s15.5 7 29.5 7zM191 700l0.00195312 -547.001
c-0.666992 -19.333 3.83301 -33.666 13.5 -42.999s24.5 -14 44.5 -14h42l14 -90c-22.667 -11.333 -57.334 -17 -104.001 -17c-40.667 0 -72.834 11.667 -96.501 35s-35.5 56.333 -35.5 99v577h122z" />
    <glyph glyph-name="Ldot" unicode="&#x13f;" horiz-adv-x="521" 
d="M200 690l-0.000976562 -529.001c0 -21.333 4.33301 -36.166 13 -44.499s24 -12.5 46 -12.5h240l5 -97c-65.333 -6 -156.666 -9 -273.999 -9c-103.333 0 -155 47.667 -155 143v549h125zM420.999 340.999h-38c-23.333 0 -35 11.667 -35 35v54c0 22.667 11.667 34 35 34h38
c23.333 0 35 -11.333 35 -34v-54c0 -23.333 -11.667 -35 -35 -35z" />
    <glyph glyph-name="ldot" unicode="&#x140;" horiz-adv-x="351" 
d="M191 700l0.00195312 -547.001c-0.666992 -19.333 3.83301 -33.666 13.5 -42.999s24.5 -14 44.5 -14h42l14 -90c-22.667 -11.333 -57.334 -17 -104.001 -17c-40.667 0 -72.834 11.667 -96.501 35s-35.5 56.333 -35.5 99v577h122zM323.002 327.999h-38
c-23.333 0 -35 11.667 -35 35v54c0 22.667 11.667 34 35 34h38c22.667 0 34 -11.333 34 -34v-54c0 -23.333 -11.333 -35 -34 -35z" />
    <glyph glyph-name="Lslash" unicode="&#x141;" horiz-adv-x="528" 
d="M505 104l5 -97.001c-65.333 -6 -156.333 -9 -273 -9c-104 0 -156 47.667 -156 143v180l-64 -26v72l64 26v297h125v-246l110 45v-72l-110 -45v-211c0 -21.333 4.33301 -36.166 13 -44.499s24 -12.5 46 -12.5h240z" />
    <glyph glyph-name="lslash" unicode="&#x142;" horiz-adv-x="344" 
d="M313 96l14.002 -90c-22.667 -11.333 -57.334 -17 -104.001 -17c-40.667 0 -72.834 11.667 -96.501 35s-35.5 56.333 -35.5 99v196l-76 -31v72l76 31v309h121v-259l102 41v-73l-102 -41v-215c0 -38 19.667 -57 59 -57h42z" />
    <glyph glyph-name="Nacute" unicode="&#x143;" horiz-adv-x="715" 
d="M538 836l-212 -112l-38 54l188 148zM638 690v-643.999c0 -30.667 -15.333 -46 -46 -46h-99c-24 0 -41.333 12.667 -52 38l-194 423c-23.333 50 -37 84.333 -41 103h-12c4 -28 6 -62.667 6 -104v-460h-123v644c0 30.667 15.667 46 47 46h97c13.333 0 23.833 -3 31.5 -9
s14.5 -15.667 20.5 -29l188 -411l21 -47c12 -26.667 21 -47.334 27 -62.001h12c-3.33301 42 -5 79.333 -5 112v446h122z" />
    <glyph glyph-name="nacute" unicode="&#x144;" horiz-adv-x="590" 
d="M264 544l-38 54l188 147l62 -89zM170 490l8.00195 -72.001c76 57.333 146.667 86 212 86c43.333 0 76.666 -11.667 99.999 -35s35 -57 35 -101v-368h-122v331c0 27.333 -3.66699 45.833 -11 55.5s-21 14.5 -41 14.5c-22.667 0 -45.834 -4.66699 -69.501 -14
s-54.167 -24.666 -91.5 -45.999v-341h-122v490h102z" />
    <glyph glyph-name="Ncommaaccent" unicode="&#x145;" horiz-adv-x="715" 
d="M638 690v-643.999c0 -30.667 -15.333 -46 -46 -46h-99c-24 0 -41.333 12.667 -52 38l-194 423c-23.333 50 -37 84.333 -41 103h-12c4 -28 6 -62.667 6 -104v-460h-123v644c0 30.667 15.667 46 47 46h97c13.333 0 23.833 -3 31.5 -9s14.5 -15.667 20.5 -29l188 -411
l21 -47c12 -26.667 21 -47.334 27 -62.001h12c-3.33301 42 -5 79.333 -5 112v446h122zM334 -54.999l28.999 0.000976562c14.667 0 24.834 -2.66699 30.501 -8s8.5 -14.666 8.5 -27.999v-53c-0.666992 -52 -14.334 -99 -41.001 -141l-49 13
c7.33301 31.333 11 65.666 11 102.999c-20 0 -30 10.667 -30 32v46c1.33301 13.333 4.83301 22.666 10.5 27.999s15.834 8 30.501 8z" />
    <glyph glyph-name="ncommaaccent" unicode="&#x146;" horiz-adv-x="590" 
d="M170 490l8.00195 -72.001c76 57.333 146.667 86 212 86c43.333 0 76.666 -11.667 99.999 -35s35 -57 35 -101v-368h-122v331c0 27.333 -3.66699 45.833 -11 55.5s-21 14.5 -41 14.5c-22.667 0 -45.834 -4.66699 -69.501 -14s-54.167 -24.666 -91.5 -45.999v-341h-122v490
h102zM278.002 -54.001l28.999 -0.000976562c14.667 0 24.834 -2.66699 30.501 -8s8.5 -14.666 8.5 -27.999v-53c-0.666992 -50 -14 -97 -40 -141l-50 13c8 34.667 12 69.334 12 104.001c-20.667 0 -31 10.333 -31 31v46c0.666992 13.333 4.16699 22.666 10.5 27.999
s16.5 8 30.5 8z" />
    <glyph glyph-name="Ncaron" unicode="&#x147;" horiz-adv-x="715" 
d="M539 872l-148 -131h-53l-147 131l37 50l133 -81h8l132 81zM638 690v-643.999c0 -30.667 -15.333 -46 -46 -46h-99c-24 0 -41.333 12.667 -52 38l-194 423c-23.333 50 -37 84.333 -41 103h-12c4 -28 6 -62.667 6 -104v-460h-123v644c0 30.667 15.667 46 47 46h97
c13.333 0 23.833 -3 31.5 -9s14.5 -15.667 20.5 -29l188 -411l21 -47c12 -26.667 21 -47.334 27 -62.001h12c-3.33301 42 -5 79.333 -5 112v446h122z" />
    <glyph glyph-name="ncaron" unicode="&#x148;" horiz-adv-x="590" 
d="M276 560l-147 131l37 51l133 -82h8l132 82l38 -51l-148 -131h-53zM170 490l8.00195 -72.001c76 57.333 146.667 86 212 86c43.333 0 76.666 -11.667 99.999 -35s35 -57 35 -101v-368h-122v331c0 27.333 -3.66699 45.833 -11 55.5s-21 14.5 -41 14.5
c-22.667 0 -45.834 -4.66699 -69.501 -14s-54.167 -24.666 -91.5 -45.999v-341h-122v490h102z" />
    <glyph glyph-name="Eng" unicode="&#x14a;" horiz-adv-x="715" 
d="M638 690l0.000976562 -756.002c0 -46 -12.833 -82.167 -38.5 -108.5s-59.5 -39.166 -101.5 -38.499c-40.667 0 -75.334 5.66699 -104.001 17l13 79h45c47.333 0 71 20.333 71 61v57h-32c-8.66699 0 -19.334 11 -32.001 33l-213 410c-12 24 -26 58 -42 102h-10
c4 -27.333 6 -61.666 6 -102.999v-443h-123v644c0 30.667 15.667 46 47 46h78c13.333 0 23.833 -2.83301 31.5 -8.5s14.834 -15.5 21.501 -29.5l205 -394c12.667 -24.667 28.667 -60.667 48 -108h12c-3.33301 40 -5 76.333 -5 109v431h123z" />
    <glyph glyph-name="eng" unicode="&#x14b;" horiz-adv-x="590" 
d="M163 490l10 -76c74 60 146 90 216 90c90.667 0 136 -45.333 136 -136v-423c0 -47.333 -11.5 -83.833 -34.5 -109.5s-55.833 -38.167 -98.5 -37.5c-43.333 0 -78.333 5.66699 -105 17l14 77h40c41.333 0 62 21 62 63v376c0 24 -3.83301 40.5 -11.5 49.5
s-22.167 13.5 -43.5 13.5c-38 0 -90.667 -18 -158 -54v-340h-122v490h95z" />
    <glyph glyph-name="Omacron" unicode="&#x14c;" horiz-adv-x="675" 
d="M482 778h-291v84h291v-84zM337 703c106.667 0 180.834 -25.667 222.501 -77s62.5 -145 62.5 -281s-20.833 -229.667 -62.5 -281s-115.834 -77 -222.501 -77c-106 0 -179.833 25.667 -221.5 77s-62.5 145 -62.5 281s20.833 229.667 62.5 281s115.5 77 221.5 77zM337 596
c-58 0 -97.833 -17.833 -119.5 -53.5s-32.5 -101.5 -32.5 -197.5s10.833 -161.833 32.5 -197.5s61.5 -53.5 119.5 -53.5c58.667 0 98.834 17.833 120.501 53.5s32.5 101.5 32.5 197.5s-10.833 161.833 -32.5 197.5s-61.834 53.5 -120.501 53.5z" />
    <glyph glyph-name="omacron" unicode="&#x14d;" horiz-adv-x="576" 
d="M434 598h-291v84h291v-84zM289 504c88 0 150.167 -19.667 186.5 -59s54.5 -106 54.5 -200s-18.167 -160.5 -54.5 -199.5s-98.5 -58.5 -186.5 -58.5c-88.667 0 -151.334 19.5 -188.001 58.5s-55 105.5 -55 199.5s18.333 160.667 55 200s99.334 59 188.001 59zM289 407
c-45.333 0 -76 -11.167 -92 -33.5s-24 -65.166 -24 -128.499c0 -62.667 8 -105.167 24 -127.5s46.667 -33.5 92 -33.5c44 0 74.167 11.167 90.5 33.5s24.5 64.833 24.5 127.5c0 63.333 -8.16699 106.166 -24.5 128.499s-46.5 33.5 -90.5 33.5z" />
    <glyph glyph-name="Ohungarumlaut" unicode="&#x150;" horiz-adv-x="675" 
d="M380 880l-145 -163l-51 39l112 182zM558 880l-145 -163l-49 39l110 182zM337 703c106.667 0 180.834 -25.667 222.501 -77s62.5 -145 62.5 -281s-20.833 -229.667 -62.5 -281s-115.834 -77 -222.501 -77c-106 0 -179.833 25.667 -221.5 77s-62.5 145 -62.5 281
s20.833 229.667 62.5 281s115.5 77 221.5 77zM337 596c-58 0 -97.833 -17.833 -119.5 -53.5s-32.5 -101.5 -32.5 -197.5s10.833 -161.833 32.5 -197.5s61.5 -53.5 119.5 -53.5c58.667 0 98.834 17.833 120.501 53.5s32.5 101.5 32.5 197.5s-10.833 161.833 -32.5 197.5
s-61.834 53.5 -120.501 53.5z" />
    <glyph glyph-name="ohungarumlaut" unicode="&#x151;" horiz-adv-x="576" 
d="M331 700l-144 -164l-51 40l111 181zM510 700l-145 -164l-50 39l111 182zM289 504c88 0 150.167 -19.667 186.5 -59s54.5 -106 54.5 -200s-18.167 -160.5 -54.5 -199.5s-98.5 -58.5 -186.5 -58.5c-88.667 0 -151.334 19.5 -188.001 58.5s-55 105.5 -55 199.5
s18.333 160.667 55 200s99.334 59 188.001 59zM289 407c-45.333 0 -76 -11.167 -92 -33.5s-24 -65.166 -24 -128.499c0 -62.667 8 -105.167 24 -127.5s46.667 -33.5 92 -33.5c44 0 74.167 11.167 90.5 33.5s24.5 64.833 24.5 127.5c0 63.333 -8.16699 106.166 -24.5 128.499
s-46.5 33.5 -90.5 33.5z" />
    <glyph glyph-name="OE" unicode="&#x152;" horiz-adv-x="930" 
d="M879 101l6 -95c-62.667 -5.33301 -166.667 -8 -312 -8c-27.333 0 -51.333 7.33301 -72 22c-46 -22 -100.667 -33 -164 -33c-106 0 -179.833 25.667 -221.5 77s-62.5 145 -62.5 281s20.833 229.667 62.5 281s115.5 77 221.5 77c62 0 119.333 -10 172 -30
c22 12.667 46.333 19 73 19c141.333 0 242.333 -2.66699 303 -8l-6 -96h-251c-21.333 0 -36.333 -4.33301 -45 -13s-13 -23.667 -13 -45v-120h272v-97h-272v-154c0 -21.333 4.33301 -36.333 13 -45s23.667 -13 45 -13h251zM444 141l-0.000976562 408
c0 13.333 1.33301 25 4 35c-34 8 -71 12 -111 12c-58 0 -97.833 -17.667 -119.5 -53s-32.5 -101.333 -32.5 -198c0 -96 10.833 -161.833 32.5 -197.5s61.5 -53.5 119.5 -53.5c44.667 0 81.334 4 110.001 12c-2 11.333 -3 23 -3 35z" />
    <glyph glyph-name="oe" unicode="&#x153;" horiz-adv-x="903" 
d="M701 199h-171c4 -45.333 15.667 -75.333 35 -90s52 -22 98 -22c48.667 0 106.667 4 174 12l11 -78c-46.667 -22 -114 -33 -202 -33c-83.333 0 -143 16.667 -179 50c-38 -34 -97.667 -51 -179 -51c-88 0 -150.333 19.5 -187 58.5s-55 105.5 -55 199.5
s18.333 160.667 55 200s99 59 187 59c81.333 0 140 -16.667 176 -50c34.667 32.667 90.667 49 168 49c152.667 0 229 -52.667 229 -158c0 -55.333 -12 -93.5 -36 -114.5s-65.333 -31.5 -124 -31.5zM528 280l159.001 -0.000976562c21.333 0 35.833 4.83301 43.5 14.5
s11.167 27.167 10.5 52.5c-2 20.667 -11.167 35.834 -27.5 45.501s-42.5 14.5 -78.5 14.5c-38.667 0 -65.834 -9 -81.501 -27s-24.167 -51.333 -25.5 -100zM288.001 83.999c42 0 71.167 9.49805 87.5 28.498s25.5 54.5 27.5 106.5l-1 29
c0 3.33301 0.166992 7.83301 0.5 13.5s0.5 9.83398 0.5 12.501c-2 51.333 -11.333 86.333 -28 105s-45.667 28 -87 28c-44.667 0 -75 -11.167 -91 -33.5s-24 -65.166 -24 -128.499c0 -62.667 8 -105.167 24 -127.5s46.333 -33.5 91 -33.5z" />
    <glyph glyph-name="Racute" unicode="&#x154;" horiz-adv-x="629" 
d="M270 724l-38 54l188 148l62 -90zM593 0h-132.998l-55 214c-12.667 41.333 -39.334 62 -80.001 62l-124 1v-277h-124v690c59.333 6 143 9 251 9c87.333 0 149.166 -14.5 185.499 -43.5s54.5 -81.833 54.5 -158.5c0 -53.333 -10 -94.166 -30 -122.499s-53 -45.5 -99 -51.5
v-5c20 -4.66699 38.667 -15.334 56 -32.001s29.333 -40 36 -70zM201.002 379h124c44.667 0.666992 75.167 8.66699 91.5 24s24.5 44 24.5 86s-8.16699 70.333 -24.5 85s-46.833 22 -91.5 22h-124v-217z" />
    <glyph glyph-name="racute" unicode="&#x155;" horiz-adv-x="413" 
d="M194 544l-37 54l187 147l63 -89zM163 490l11 -72c70 57.333 137.333 86 202 86h24l-13 -114h-35c-34.667 0 -88.667 -14.667 -162 -44v-346h-122v490h95z" />
    <glyph glyph-name="Rcommaaccent" unicode="&#x156;" horiz-adv-x="629" 
d="M593 0h-132.998l-55 214c-12.667 41.333 -39.334 62 -80.001 62l-124 1v-277h-124v690c59.333 6 143 9 251 9c87.333 0 149.166 -14.5 185.499 -43.5s54.5 -81.833 54.5 -158.5c0 -53.333 -10 -94.166 -30 -122.499s-53 -45.5 -99 -51.5v-5
c20 -4.66699 38.667 -15.334 56 -32.001s29.333 -40 36 -70zM201.002 379h124c44.667 0.666992 75.167 8.66699 91.5 24s24.5 44 24.5 86s-8.16699 70.333 -24.5 85s-46.833 22 -91.5 22h-124v-217zM316.002 -55h30.001c14.667 0 24.667 -2.66699 30 -8
s8.33301 -14.666 9 -27.999v-53c-0.666992 -52 -14.334 -99 -41.001 -141l-50 13c8 30 12 64.333 12 103c-21.333 0 -31.333 10.667 -30 32v46c0.666992 13.333 4 22.666 10 27.999s16 8 30 8z" />
    <glyph glyph-name="rcommaaccent" unicode="&#x157;" horiz-adv-x="413" 
d="M400 504l-13 -114h-35c-34.667 0 -88.667 -14.667 -162 -44v-346h-122v490h95l11 -72c70 57.333 137.333 86 202 86h24zM105 -54h30.001c14.667 0 24.667 -2.66699 30 -8s8.33301 -14.666 9 -27.999v-53c-0.666992 -50.667 -14.334 -97.667 -41.001 -141l-50 13
c8 31.333 12 66 12 104c-21.333 0 -31.333 10.333 -30 31v46c0.666992 13.333 4 22.666 10 27.999s16 8 30 8z" />
    <glyph glyph-name="Rcaron" unicode="&#x158;" horiz-adv-x="629" 
d="M282 741l-147 131l37 50l133 -81h8l132 81l38 -50l-148 -131h-53zM593 0h-132.998l-55 214c-12.667 41.333 -39.334 62 -80.001 62l-124 1v-277h-124v690c59.333 6 143 9 251 9c87.333 0 149.166 -14.5 185.499 -43.5s54.5 -81.833 54.5 -158.5
c0 -53.333 -10 -94.166 -30 -122.499s-53 -45.5 -99 -51.5v-5c20 -4.66699 38.667 -15.334 56 -32.001s29.333 -40 36 -70zM201.002 379h124c44.667 0.666992 75.167 8.66699 91.5 24s24.5 44 24.5 86s-8.16699 70.333 -24.5 85s-46.833 22 -91.5 22h-124v-217z" />
    <glyph glyph-name="rcaron" unicode="&#x159;" horiz-adv-x="413" 
d="M207 560l-148 131l37 51l133 -82h8l132 82l39 -51l-148 -131h-53zM163 490l11 -72c70 57.333 137.333 86 202 86h24l-13 -114h-35c-34.667 0 -88.667 -14.667 -162 -44v-346h-122v490h95z" />
    <glyph glyph-name="Sacute" unicode="&#x15a;" horiz-adv-x="570" 
d="M457 836l-212 -112l-38 54l188 148zM326 273l-139 44.001c-50 16 -85.667 40.167 -107 72.5s-32 74.833 -32 127.5c0 75.333 17.5 125 52.5 149s96.5 36 184.5 36c84.667 0 157 -7.66699 217 -23l-8 -89c-76 2.66699 -144.333 4 -205 4c-46 0 -76.667 -4.5 -92 -13.5
s-23 -30.833 -23 -65.5c0 -28.667 5.5 -48.834 16.5 -60.501s31.167 -22.167 60.5 -31.5l133 -41c52.667 -16.667 89.5 -41.167 110.5 -73.5s31.5 -74.833 31.5 -127.5c0 -76 -18 -127.167 -54 -153.5s-99.667 -39.5 -191 -39.5c-76 0 -150.667 7.33301 -224 22l8 92
c116.667 -2.66699 189.667 -4 219 -4c46 0 76.667 5.33301 92 16s23 33.334 23 68.001c0 29.333 -5.16699 49.666 -15.5 60.999s-29.5 21.333 -57.5 30z" />
    <glyph glyph-name="sacute" unicode="&#x15b;" horiz-adv-x="517" 
d="M437 656l-212 -112l-38 54l188 147zM287 186l-129.001 34.9961c-42.667 12 -72.5 29 -89.5 51s-25.5 53 -25.5 93c0 52.667 15 89 45 109s81.667 30 155 30c80 -1.33301 152.333 -7.33301 217 -18l-9 -84c-82.667 2.66699 -145 4 -187 4c-44 0 -72.333 -2.16699 -85 -6.5
s-19 -16.166 -19 -35.499c0 -4.66699 0.5 -9 1.5 -13l2.5 -10c0.666992 -2.66699 2.5 -5.16699 5.5 -7.5s5.16699 -4.16602 6.5 -5.49902s4.66602 -3 9.99902 -5s9 -3.33301 11 -4s6.66699 -2 14 -4s12.666 -3.33301 15.999 -4l132 -36c42 -12 72 -28.167 90 -48.5
s27 -51.166 27 -92.499c0 -57.333 -16.333 -95.833 -49 -115.5s-89.334 -29.5 -170.001 -29.5c-73.333 0 -141.666 5.33301 -204.999 16l8 85c34.667 -2.66699 90.334 -4 167.001 -4c52.667 0 87.834 3 105.501 9s26.5 18.667 26.5 38c0 4 -0.333008 7.66699 -1 11
s-1.66699 6.33301 -3 9s-2.66602 5 -3.99902 7s-3.66602 4 -6.99902 6s-6 3.5 -8 4.5s-5.5 2.33301 -10.5 4s-8.66699 2.83398 -11 3.50098l-13.5 4c-6.66699 2 -11.334 3.33301 -14.001 4z" />
    <glyph glyph-name="Scedilla" unicode="&#x15e;" horiz-adv-x="570" 
d="M326 273l-139 44.001c-50 16 -85.667 40.167 -107 72.5s-32 74.833 -32 127.5c0 75.333 17.5 125 52.5 149s96.5 36 184.5 36c84.667 0 157 -7.66699 217 -23l-8 -89c-76 2.66699 -144.333 4 -205 4c-46 0 -76.667 -4.5 -92 -13.5s-23 -30.833 -23 -65.5
c0 -28.667 5.5 -48.834 16.5 -60.501s31.167 -22.167 60.5 -31.5l133 -41c52.667 -16.667 89.5 -41.167 110.5 -73.5s31.5 -74.833 31.5 -127.5c0 -76 -18 -127.167 -54 -153.5s-99.667 -39.5 -191 -39.5c-76 0 -150.667 7.33301 -224 22l8 92
c116.667 -2.66699 189.667 -4 219 -4c46 0 76.667 5.33301 92 16s23 33.334 23 68.001c0 29.333 -5.16699 49.666 -15.5 60.999s-29.5 21.333 -57.5 30zM224 -107.999l11.998 53c48.667 5.33301 82.834 3.83301 102.501 -4.5s29.167 -28.5 28.5 -60.5
c-1.33301 -46 -19.5 -80.833 -54.5 -104.5s-78.5 -32.167 -130.5 -25.5l17 59c24.667 0 44.834 5.33301 60.501 16s24.167 25.667 25.5 45c0.666992 9.33301 -3 15.333 -11 18s-24.667 4 -50 4z" />
    <glyph glyph-name="scedilla" unicode="&#x15f;" horiz-adv-x="517" 
d="M287 186l-129.001 34.9961c-42.667 12 -72.5 29 -89.5 51s-25.5 53 -25.5 93c0 52.667 15 89 45 109s81.667 30 155 30c80 -1.33301 152.333 -7.33301 217 -18l-9 -84c-82.667 2.66699 -145 4 -187 4c-44 0 -72.333 -2.16699 -85 -6.5s-19 -16.166 -19 -35.499
c0 -4.66699 0.5 -9 1.5 -13l2.5 -10c0.666992 -2.66699 2.5 -5.16699 5.5 -7.5s5.16699 -4.16602 6.5 -5.49902s4.66602 -3 9.99902 -5s9 -3.33301 11 -4s6.66699 -2 14 -4s12.666 -3.33301 15.999 -4l132 -36c42 -12 72 -28.167 90 -48.5s27 -51.166 27 -92.499
c0 -57.333 -16.333 -95.833 -49 -115.5s-89.334 -29.5 -170.001 -29.5c-73.333 0 -141.666 5.33301 -204.999 16l8 85c34.667 -2.66699 90.334 -4 167.001 -4c52.667 0 87.834 3 105.501 9s26.5 18.667 26.5 38c0 4 -0.333008 7.66699 -1 11s-1.66699 6.33301 -3 9
s-2.66602 5 -3.99902 7s-3.66602 4 -6.99902 6s-6 3.5 -8 4.5s-5.5 2.33301 -10.5 4s-8.66699 2.83398 -11 3.50098l-13.5 4c-6.66699 2 -11.334 3.33301 -14.001 4zM187.999 -105.004l11.998 53.001c48.667 5.33301 82.834 3.83301 102.501 -4.5s29.167 -28.5 28.5 -60.5
c-1.33301 -46 -19.5 -80.833 -54.5 -104.5s-78.5 -31.834 -130.5 -24.501l17 59c24.667 -0.666992 44.834 4.33301 60.501 15s24.167 25.667 25.5 45c0.666992 9.33301 -2.83301 15.333 -10.5 18s-24.5 4 -50.5 4z" />
    <glyph glyph-name="Scaron" unicode="&#x160;" horiz-adv-x="570" 
d="M458 872l-148 -131h-53l-147 131l37 50l133 -81h8l132 81zM326 273l-139 44.001c-50 16 -85.667 40.167 -107 72.5s-32 74.833 -32 127.5c0 75.333 17.5 125 52.5 149s96.5 36 184.5 36c84.667 0 157 -7.66699 217 -23l-8 -89c-76 2.66699 -144.333 4 -205 4
c-46 0 -76.667 -4.5 -92 -13.5s-23 -30.833 -23 -65.5c0 -28.667 5.5 -48.834 16.5 -60.501s31.167 -22.167 60.5 -31.5l133 -41c52.667 -16.667 89.5 -41.167 110.5 -73.5s31.5 -74.833 31.5 -127.5c0 -76 -18 -127.167 -54 -153.5s-99.667 -39.5 -191 -39.5
c-76 0 -150.667 7.33301 -224 22l8 92c116.667 -2.66699 189.667 -4 219 -4c46 0 76.667 5.33301 92 16s23 33.334 23 68.001c0 29.333 -5.16699 49.666 -15.5 60.999s-29.5 21.333 -57.5 30z" />
    <glyph glyph-name="scaron" unicode="&#x161;" horiz-adv-x="517" 
d="M438 691l-148 -131h-53l-147 131l37 51l133 -82h8l132 82zM287 186l-129.001 34.9961c-42.667 12 -72.5 29 -89.5 51s-25.5 53 -25.5 93c0 52.667 15 89 45 109s81.667 30 155 30c80 -1.33301 152.333 -7.33301 217 -18l-9 -84c-82.667 2.66699 -145 4 -187 4
c-44 0 -72.333 -2.16699 -85 -6.5s-19 -16.166 -19 -35.499c0 -4.66699 0.5 -9 1.5 -13l2.5 -10c0.666992 -2.66699 2.5 -5.16699 5.5 -7.5s5.16699 -4.16602 6.5 -5.49902s4.66602 -3 9.99902 -5s9 -3.33301 11 -4s6.66699 -2 14 -4s12.666 -3.33301 15.999 -4l132 -36
c42 -12 72 -28.167 90 -48.5s27 -51.166 27 -92.499c0 -57.333 -16.333 -95.833 -49 -115.5s-89.334 -29.5 -170.001 -29.5c-73.333 0 -141.666 5.33301 -204.999 16l8 85c34.667 -2.66699 90.334 -4 167.001 -4c52.667 0 87.834 3 105.501 9s26.5 18.667 26.5 38
c0 4 -0.333008 7.66699 -1 11s-1.66699 6.33301 -3 9s-2.66602 5 -3.99902 7s-3.66602 4 -6.99902 6s-6 3.5 -8 4.5s-5.5 2.33301 -10.5 4s-8.66699 2.83398 -11 3.50098l-13.5 4c-6.66699 2 -11.334 3.33301 -14.001 4z" />
    <glyph glyph-name="Tcedilla" unicode="&#x162;" horiz-adv-x="592" 
d="M571 690v-107h-213v-583h-126v583h-211v107h550zM228 -96l11.998 53.001c48.667 5.33301 82.834 3.83301 102.501 -4.5s29.167 -28.5 28.5 -60.5c-1.33301 -46 -19.5 -80.833 -54.5 -104.5s-78.5 -31.834 -130.5 -24.501l17 59
c24.667 -0.666992 44.834 4.33301 60.501 15s24.167 25.667 25.5 45c0.666992 9.33301 -2.83301 15.333 -10.5 18s-24.5 4 -50.5 4z" />
    <glyph glyph-name="tcedilla" unicode="&#x163;" horiz-adv-x="400" 
d="M231 402v-249.001c0 -21.333 4.33301 -36.166 13 -44.499s24 -12.5 46 -12.5h67l13 -90c-35.333 -11.333 -77.333 -17 -126 -17c-42.667 0 -75.5 12.333 -98.5 37s-34.5 60 -34.5 106v270h-89v83l88 5v141h121v-141h144v-88h-144zM160 -104.001l11.9971 53
c48.667 5.33301 82.834 3.83301 102.501 -4.5s29.167 -28.5 28.5 -60.5c-1.33301 -46 -19.5 -80.833 -54.5 -104.5s-78.833 -32.167 -131.5 -25.5l18 59c24.667 -0.666992 44.834 4.5 60.501 15.5s23.834 26.167 24.501 45.5c0.666992 8.66699 -2.83301 14.5 -10.5 17.5
s-24.167 4.5 -49.5 4.5z" />
    <glyph glyph-name="Tcaron" unicode="&#x164;" horiz-adv-x="592" 
d="M270 741l-148 131l37 50l133 -81h8l132 81l39 -50l-149 -131h-52zM571 583h-213v-583h-126v583h-211v107h550v-107z" />
    <glyph glyph-name="tcaron" unicode="&#x165;" horiz-adv-x="400" 
d="M346 554l-50 13c8 34 12 68.333 12 103c-20.667 0 -31 10.667 -31 32v46c0.666992 13.333 4.16699 22.666 10.5 27.999s16.5 8 30.5 8h30c14.667 0 24.667 -2.66699 30 -8s8 -14.666 8 -27.999v-53c-0.666992 -52.667 -14 -99.667 -40 -141zM231 490l144 -0.000976562
v-88h-144v-249c0 -21.333 4.33301 -36.166 13 -44.499s24 -12.5 46 -12.5h67l13 -90c-35.333 -11.333 -77.333 -17 -126 -17c-42.667 0 -75.5 12.333 -98.5 37s-34.5 60 -34.5 106v270h-89v83l88 5v141h121v-141z" />
    <glyph glyph-name="Tbar" unicode="&#x166;" horiz-adv-x="592" 
d="M359 583v-166h133v-65h-133v-352h-126v352h-134v65h134v166h-211v107h549v-107h-212z" />
    <glyph glyph-name="tbar" unicode="&#x167;" horiz-adv-x="400" 
d="M231 402v-82.001h116v-63h-116v-104c0 -21.333 4.33301 -36.166 13 -44.499s24 -12.5 46 -12.5h67l13 -90c-35.333 -11.333 -77.333 -17 -126 -17c-42.667 0 -75.5 12.333 -98.5 37s-34.5 60 -34.5 106v125h-62v63h62v82h-89v83l88 5v141h121v-141h144v-88h-144z" />
    <glyph glyph-name="Umacron" unicode="&#x16a;" horiz-adv-x="671" 
d="M482 778h-291v84h291v-84zM599 690l0.000976562 -420c0 -103.333 -19.333 -176.333 -58 -219s-105.334 -64 -200.001 -64c-98.667 0 -168.167 21.333 -208.5 64s-60.5 115.667 -60.5 219v420h125v-420c0 -66 10.167 -111.833 30.5 -137.5s56.5 -38.5 108.5 -38.5
c51.333 0 87 12.833 107 38.5s30 71.5 30 137.5v420h126z" />
    <glyph glyph-name="umacron" unicode="&#x16b;" horiz-adv-x="579" 
d="M438 604h-291v84h291v-84zM511 490l-0.000976562 -490h-96l-9 66c-69.333 -52.667 -137.666 -79 -204.999 -79c-90.667 0 -136 45.333 -136 136v367h122v-331c-0.666992 -26 3.33301 -44 12 -54s24.667 -15 48 -15c33.333 0 81 18 143 54v346h121z" />
    <glyph glyph-name="Uring" unicode="&#x16e;" horiz-adv-x="671" 
d="M337 934c30.667 0 57.167 -10.667 79.5 -32s33.5 -47.666 33.5 -78.999s-11 -57.5 -33 -78.5s-48.667 -31.5 -80 -31.5c-32 0 -59 10.5 -81 31.5s-33 47.167 -33 78.5s11 57.666 33 78.999s49 32 81 32zM337 878c-15.333 0 -28 -5 -38 -15s-15 -23.333 -15 -40
c0 -16 5 -28.833 15 -38.5s22.667 -14.5 38 -14.5c14.667 0 27 4.83301 37 14.5s15 22.5 15 38.5c0 16.667 -5 30 -15 40s-22.333 15 -37 15zM599 690l0.000976562 -420c0 -103.333 -19.333 -176.333 -58 -219s-105.334 -64 -200.001 -64
c-98.667 0 -168.167 21.333 -208.5 64s-60.5 115.667 -60.5 219v420h125v-420c0 -66 10.167 -111.833 30.5 -137.5s56.5 -38.5 108.5 -38.5c51.333 0 87 12.833 107 38.5s30 71.5 30 137.5v420h126z" />
    <glyph glyph-name="uring" unicode="&#x16f;" horiz-adv-x="579" 
d="M293 539c-32 0 -59 10.5 -81 31.5s-33 47.167 -33 78.5s11 57.666 33 78.999s49 32 81 32c30.667 0 57.167 -10.667 79.5 -32s33.5 -47.666 33.5 -78.999s-11 -57.5 -33 -78.5s-48.667 -31.5 -80 -31.5zM293 703c-15.333 0 -28 -5 -38 -15s-15 -23 -15 -39
c0 -16.667 5 -29.834 15 -39.501s22.667 -14.5 38 -14.5c14.667 0 27 4.83301 37 14.5s15 22.834 15 39.501c0 16 -5 29 -15 39s-22.333 15 -37 15zM511 490l-0.000976562 -490h-96l-9 66c-69.333 -52.667 -137.666 -79 -204.999 -79c-90.667 0 -136 45.333 -136 136v367
h122v-331c-0.666992 -26 3.33301 -44 12 -54s24.667 -15 48 -15c33.333 0 81 18 143 54v346h121z" />
    <glyph glyph-name="Uhungarumlaut" unicode="&#x170;" horiz-adv-x="671" 
d="M380 880l-145 -163l-51 39l112 182zM558 880l-145 -163l-49 39l110 182zM599 690l0.000976562 -420c0 -103.333 -19.333 -176.333 -58 -219s-105.334 -64 -200.001 -64c-98.667 0 -168.167 21.333 -208.5 64s-60.5 115.667 -60.5 219v420h125v-420
c0 -66 10.167 -111.833 30.5 -137.5s56.5 -38.5 108.5 -38.5c51.333 0 87 12.833 107 38.5s30 71.5 30 137.5v420h126z" />
    <glyph glyph-name="uhungarumlaut" unicode="&#x171;" horiz-adv-x="579" 
d="M191 542l-51 39l112 182l84 -57zM320 581l110 182l84 -57l-145 -164zM390 490h120.999v-490h-96l-9 66c-69.333 -52.667 -137.666 -79 -204.999 -79c-90.667 0 -136 45.333 -136 136v367h122v-331c-0.666992 -26 3.33301 -44 12 -54s24.667 -15 48 -15
c33.333 0 81 18 143 54v346z" />
    <glyph glyph-name="Uogonek" unicode="&#x172;" horiz-adv-x="671" 
d="M599 690l-0.00195312 -420c0 -96.667 -17 -166.667 -51 -210s-91.667 -67.333 -173 -72c-29.333 -38 -50.666 -72.333 -63.999 -103c-9.33301 -21.333 -7 -35.5 7 -42.5s35 -5.83301 63 3.5l12 -48c-46 -18 -82.333 -24.5 -109 -19.5s-44.667 16.667 -54 35
s-9.66602 39.5 -0.999023 63.5c11.333 36.667 41.333 73.334 90 110.001c-90 2.66699 -153.667 25.667 -191 69s-56 114.666 -56 213.999v420h125v-420c0 -66 10.167 -111.833 30.5 -137.5s56.5 -38.5 108.5 -38.5c51.333 0 87 12.833 107 38.5s30 71.5 30 137.5v420h126z
" />
    <glyph glyph-name="uogonek" unicode="&#x173;" horiz-adv-x="579" 
d="M517 -145l12.9971 -48c-46 -18 -82.5 -24.5 -109.5 -19.5s-45.167 16.667 -54.5 35s-9.66602 39.5 -0.999023 63.5c12.667 38.667 44.667 76.667 96 114h-46l-9 66c-69.333 -52.667 -137.666 -79 -204.999 -79c-90.667 0 -136 45.333 -136 136v367h122v-331
c-0.666992 -26 3.33301 -44 12 -54s24.667 -15 48 -15c33.333 0 81 18 143 54v346h121v-490h3c-30.667 -38 -52.667 -73.333 -66 -106c-9.33301 -21.333 -7.16602 -35.5 6.50098 -42.5s34.5 -5.83301 62.5 3.5z" />
    <glyph glyph-name="Wcircumflex" unicode="&#x174;" horiz-adv-x="961" 
d="M657 771l-39 -49l-133 96h-8l-134 -96l-37 51l131 131h88zM932 690l-119 -654.999c-2.66699 -10.667 -8.16699 -19.167 -16.5 -25.5s-18.166 -9.5 -29.499 -9.5h-131c-26 0 -41.333 12 -46 36l-87 481c-3.33301 18 -7.66602 45 -12.999 81h-20
c-6 -38.667 -10.333 -65.667 -13 -81l-86 -481c-2 -10.667 -7.33301 -19.334 -16 -26.001s-19 -10 -31 -10h-130c-11.333 0 -21.333 3.16699 -30 9.5s-14 14.833 -16 25.5l-119 655h130l82 -503c4 -22.667 7.66699 -54 11 -94h21c6 38.667 11.333 70 16 94l85 463
c4.66699 26.667 20 40 46 40h122c11.333 0 21.166 -3.66699 29.499 -11s13.5 -17 15.5 -29l85 -464c6.66699 -33.333 11.334 -64.333 14.001 -93h22c1.33301 9.33301 3.16602 24.5 5.49902 45.5s4.16602 36.5 5.49902 46.5l83 505h130z" />
    <glyph glyph-name="wcircumflex" unicode="&#x175;" horiz-adv-x="834" 
d="M594 592l-39 -49l-133 96h-8l-134 -96l-37 50l131 131h88zM815 490l-129 -457.001c-5.33301 -22 -19.666 -33 -42.999 -33h-103c-25.333 0 -40.333 12.667 -45 38l-59 301c-1.33301 7.33301 -3.33301 20 -6 38s-5 32 -7 42h-12l-14 -80l-57 -301
c-2 -11.333 -7.33301 -20.5 -16 -27.5s-18.667 -10.5 -30 -10.5h-101c-25.333 0 -40 11 -44 33l-130 457h124l81 -337c7.33301 -30.667 11.666 -56.667 12.999 -78h13c1.33301 6 3 14.167 5 24.5l5.5 28.5c1.66699 8.66699 3.16699 17 4.5 25l60 301c4.66699 24 19 36 43 36
h99c11.333 0 21 -3.33301 29 -10s13 -15.667 15 -27l58 -300c1.33301 -10 3.83301 -24.167 7.5 -42.5s6.16699 -30.166 7.5 -35.499h13c6 40.667 10.333 66.667 13 78l81 337h124z" />
    <glyph glyph-name="Ycircumflex" unicode="&#x176;" horiz-adv-x="589" 
d="M156 723l-37 50l131 132h88l131 -133l-38 -49l-133 96h-8zM357 233v-233h-125v235l-227 455h132l126 -268c4.66699 -10.667 14 -38.334 28 -83.001h8c14 44.667 23.333 72.334 28 83.001l126 268h130z" />
    <glyph glyph-name="ycircumflex" unicode="&#x177;" horiz-adv-x="546" 
d="M137 543l-37 50l132 131h87l132 -132l-39 -49l-133 96h-8zM533 490l-182.001 -504.997c-19.333 -55.333 -49 -101.333 -89 -138s-92.667 -53.334 -158 -50.001l-10 77c38.667 10.667 69.334 25.167 92.001 43.5s40 42.166 52 71.499l5 11h-24c-22 0 -35.667 10 -41 30
l-166 460h129l107 -337c6.66699 -20.667 12 -42.334 16 -65.001h14c2.66699 8 6.16699 19.333 10.5 34s7.5 25 9.5 31l105 337h130z" />
    <glyph glyph-name="Ydieresis" unicode="&#x178;" horiz-adv-x="589" 
d="M224 763h-40c-20 0 -30 10 -30 30v55c0 20.667 10 31 30 31h40c20 0 30 -10.333 30 -31v-55c0 -20 -10 -30 -30 -30zM403 763h-40c-20 0 -30 10 -30 30v55c0 20.667 10 31 30 31h40c20 0 30 -10.333 30 -31v-55c0 -20 -10 -30 -30 -30zM357 233v-233h-125v235l-227 455
h132l126 -268c4.66699 -10.667 14 -38.334 28 -83.001h8c14 44.667 23.333 72.334 28 83.001l126 268h130z" />
    <glyph glyph-name="Zacute" unicode="&#x179;" horiz-adv-x="574" 
d="M253 724l-38 54l188 148l62 -90zM530 102v-102h-485v102l340 486h-334v102h472v-102l-340 -486h347z" />
    <glyph glyph-name="zacute" unicode="&#x17a;" horiz-adv-x="518" 
d="M222 544l-38 54l188 147l63 -89zM473 93v-93h-428v93l288 304h-284v93h420v-93l-288 -304h292z" />
    <glyph glyph-name="Zdotaccent" unicode="&#x17b;" horiz-adv-x="574" 
d="M310 753h-38c-23.333 0 -35 11.333 -35 34v54c0 23.333 11.667 35 35 35h38c23.333 0 35 -11.667 35 -35v-54c0 -22.667 -11.667 -34 -35 -34zM530 102v-102h-485v102l340 486h-334v102h472v-102l-340 -486h347z" />
    <glyph glyph-name="zdotaccent" unicode="&#x17c;" horiz-adv-x="518" 
d="M279 573h-37c-23.333 0 -35 11.333 -35 34v54c0 23.333 11.667 35 35 35h37c23.333 0 35 -11.667 35 -35v-54c0 -22.667 -11.667 -34 -35 -34zM473 93v-93h-428v93l288 304h-284v93h420v-93l-288 -304h292z" />
    <glyph glyph-name="Zcaron" unicode="&#x17d;" horiz-adv-x="574" 
d="M265 741l-147 131l37 50l133 -81h8l132 81l38 -50l-148 -131h-53zM530 102v-102h-485v102l340 486h-334v102h472v-102l-340 -486h347z" />
    <glyph glyph-name="zcaron" unicode="&#x17e;" horiz-adv-x="518" 
d="M235 560l-148 131l37 51l133 -82h8l132 82l39 -51l-149 -131h-52zM473 93v-93h-428v93l288 304h-284v93h420v-93l-288 -304h292z" />
    <glyph glyph-name="florin" unicode="&#x192;" horiz-adv-x="464" 
d="M435 606h-70.999c-25.333 0 -43.5 -4.66699 -54.5 -14s-17.5 -27.333 -19.5 -54l-13 -134h129l-8 -89h-129l-30 -322c-4 -48.667 -18.667 -85.667 -44 -111s-64.333 -38 -117 -38c-46 0 -84.667 3 -116 9l16 87h65c25.333 0 43.666 5 54.999 15s18.333 27.667 21 53
l28 307h-98l6 85l100 4l14 149c8.66699 98.667 63.667 148 165 148c50 0 89.333 -2.66699 118 -8z" />
    <glyph glyph-name="Scommaaccent" unicode="&#x218;" horiz-adv-x="570" 
d="M326 273l-139 44.001c-50 16 -85.667 40.167 -107 72.5s-32 74.833 -32 127.5c0 75.333 17.5 125 52.5 149s96.5 36 184.5 36c84.667 0 157 -7.66699 217 -23l-8 -89c-76 2.66699 -144.333 4 -205 4c-46 0 -76.667 -4.5 -92 -13.5s-23 -30.833 -23 -65.5
c0 -28.667 5.5 -48.834 16.5 -60.501s31.167 -22.167 60.5 -31.5l133 -41c52.667 -16.667 89.5 -41.167 110.5 -73.5s31.5 -74.833 31.5 -127.5c0 -76 -18 -127.167 -54 -153.5s-99.667 -39.5 -191 -39.5c-76 0 -150.667 7.33301 -224 22l8 92
c116.667 -2.66699 189.667 -4 219 -4c46 0 76.667 5.33301 92 16s23 33.334 23 68.001c0 29.333 -5.16699 49.666 -15.5 60.999s-29.5 21.333 -57.5 30zM268 -54.999l28.999 0.000976562c14.667 0 24.834 -2.66699 30.501 -8s8.5 -14.666 8.5 -27.999v-53
c-0.666992 -52 -14.334 -99 -41.001 -141l-49 13c7.33301 31.333 11 65.666 11 102.999c-20 0 -30 10.667 -30 32v46c1.33301 13.333 4.83301 22.666 10.5 27.999s15.834 8 30.501 8z" />
    <glyph glyph-name="scommaaccent" unicode="&#x219;" horiz-adv-x="517" 
d="M287 186l-129.001 34.9961c-42.667 12 -72.5 29 -89.5 51s-25.5 53 -25.5 93c0 52.667 15 89 45 109s81.667 30 155 30c80 -1.33301 152.333 -7.33301 217 -18l-9 -84c-82.667 2.66699 -145 4 -187 4c-44 0 -72.333 -2.16699 -85 -6.5s-19 -16.166 -19 -35.499
c0 -4.66699 0.5 -9 1.5 -13l2.5 -10c0.666992 -2.66699 2.5 -5.16699 5.5 -7.5s5.16699 -4.16602 6.5 -5.49902s4.66602 -3 9.99902 -5s9 -3.33301 11 -4s6.66699 -2 14 -4s12.666 -3.33301 15.999 -4l132 -36c42 -12 72 -28.167 90 -48.5s27 -51.166 27 -92.499
c0 -57.333 -16.333 -95.833 -49 -115.5s-89.334 -29.5 -170.001 -29.5c-73.333 0 -141.666 5.33301 -204.999 16l8 85c34.667 -2.66699 90.334 -4 167.001 -4c52.667 0 87.834 3 105.501 9s26.5 18.667 26.5 38c0 4 -0.333008 7.66699 -1 11s-1.66699 6.33301 -3 9
s-2.66602 5 -3.99902 7s-3.66602 4 -6.99902 6s-6 3.5 -8 4.5s-5.5 2.33301 -10.5 4s-8.66699 2.83398 -11 3.50098l-13.5 4c-6.66699 2 -11.334 3.33301 -14.001 4zM246.999 -54.0039h29c14.667 0 24.834 -2.66699 30.501 -8s8.5 -14.666 8.5 -27.999v-53
c-0.666992 -50.667 -14.334 -97.667 -41.001 -141l-49 13c7.33301 32 11 66.667 11 104c-21.333 0 -31.333 10.333 -30 31v46c0.666992 13.333 4 22.666 10 27.999s16.333 8 31 8z" />
    <glyph glyph-name="uni021A" unicode="&#x21a;" horiz-adv-x="592" 
d="M571 583h-213v-583h-126v583h-211v107h550v-107zM270 -55h30c14.667 0 24.667 -2.66699 30 -8s8 -14.666 8 -27.999v-53c-0.666992 -52.667 -14 -99.667 -40 -141l-50 13c8 34 12 68.333 12 103c-20.667 0 -31 10.667 -31 32v46
c0.666992 13.333 4.16699 22.666 10.5 27.999s16.5 8 30.5 8z" />
    <glyph glyph-name="uni021B" unicode="&#x21b;" horiz-adv-x="400" 
d="M231 402v-249.001c0 -21.333 4.33301 -36.166 13 -44.499s24 -12.5 46 -12.5h67l13 -90c-35.333 -11.333 -77.333 -17 -126 -17c-42.667 0 -75.5 12.333 -98.5 37s-34.5 60 -34.5 106v270h-89v83l88 5v141h121v-141h144v-88h-144zM216 -55.001h30
c14.667 0 24.667 -2.66699 30 -8s8 -14.666 8 -27.999v-53c0 -51.333 -13.333 -98.333 -40 -141l-50 13c8 30 12 64.333 12 103c-20.667 0 -31 10.667 -31 32v46c0.666992 13.333 4.16699 22.666 10.5 27.999s16.5 8 30.5 8z" />
    <glyph glyph-name="circumflex" unicode="&#x2c6;" horiz-adv-x="436" 
d="M395 586l-39 -49l-133 96h-8l-134 -96l-37 50l131 132h88z" />
    <glyph glyph-name="caron" unicode="&#x2c7;" horiz-adv-x="436" 
d="M394 685l-149 -131h-52l-148 131l37 50l133 -81h8l132 81z" />
    <glyph glyph-name="breve" unicode="&#x2d8;" horiz-adv-x="385" 
d="M292 702l59 -8c4 -41.333 -8.5 -75.5 -37.5 -102.5s-68.833 -40.5 -119.5 -40.5c-52 0 -92.5 13.5 -121.5 40.5s-41.5 61.167 -37.5 102.5l59 8c0 -44 33.333 -66 100 -66c65.333 0 98 22 98 66z" />
    <glyph glyph-name="dotaccent" unicode="&#x2d9;" horiz-adv-x="229" 
d="M96 694h38c22.667 0 34 -11.667 34 -35v-54c0 -22.667 -11.333 -34 -34 -34h-38c-23.333 0 -35 11.333 -35 34v54c0 23.333 11.667 35 35 35z" />
    <glyph glyph-name="ring" unicode="&#x2da;" horiz-adv-x="306" 
d="M153 750c30.667 0 57.167 -10.834 79.5 -32.501s33.5 -47.834 33.5 -78.501c0 -31.333 -11 -57.666 -33 -78.999s-48.667 -32 -80 -32c-32 0 -58.833 10.5 -80.5 31.5s-32.5 47.5 -32.5 79.5c0 30.667 11 56.834 33 78.501s48.667 32.5 80 32.5zM153 692.999
c-15.333 0 -28 -5 -38 -15s-15 -23 -15 -39c0 -16.667 5 -29.834 15 -39.501s22.667 -14.5 38 -14.5s28 4.83301 38 14.5s15 22.834 15 39.501c0 16 -5.16699 29 -15.5 39s-22.833 15 -37.5 15z" />
    <glyph glyph-name="ogonek" unicode="&#x2db;" horiz-adv-x="251" 
d="M142 2l50.999 -2.00098c-32 -39.333 -54 -74.666 -66 -105.999c-10 -21.333 -8 -35.5 6 -42.5s35 -5.83301 63 3.5l13 -48c-46 -18 -82.5 -24.5 -109.5 -19.5s-45.167 16.667 -54.5 35s-9.66602 39.5 -0.999023 63.5c13.333 39.333 46 78 98 116z" />
    <glyph glyph-name="tilde" unicode="&#x2dc;" horiz-adv-x="431" 
d="M103 577l-52.999 -0.000976562c-6 43.333 -0.833008 76.333 15.5 99s37.833 33 64.5 31c22.667 -2 50 -10.333 82 -25s56.333 -23 73 -25c16.667 -2.66699 28 -0.5 34 6.5s9 19.833 9 38.5h53c6 -42 1.33301 -74.5 -14 -97.5s-37.333 -33.5 -66 -31.5
c-25.333 2 -54.333 10.667 -87 26s-55.667 24 -69 26c-16.667 2 -27.834 -0.666992 -33.501 -8s-8.5 -20.666 -8.5 -39.999z" />
    <glyph glyph-name="hungarumlaut" unicode="&#x2dd;" horiz-adv-x="481" 
d="M247 686l-145 -164l-51 39l112 182zM426 686l-145 -164l-50 39l111 182z" />
    <glyph glyph-name="Delta" unicode="&#x394;" horiz-adv-x="641" 
d="M620 46v-46h-600v46l238 644h125zM475 98l-132.002 387.001c-1.33301 4 -8.66602 32.333 -21.999 85l-10 -39c-5.33301 -20.667 -9.66602 -36.334 -12.999 -47.001l-134 -386h311z" />
    <glyph glyph-name="Omega" unicode="&#x3a9;" horiz-adv-x="719" 
d="M49 107h90.001c22.667 0 45.334 -3.66699 68.001 -11c-50.667 38.667 -86.5 79.334 -107.5 122.001s-31.167 97.334 -30.5 164.001c0 109.333 22.667 190.166 68 242.499s119.666 78.5 222.999 78.5c102.667 0 176.667 -26.333 222 -79s68 -134 68 -244
c0 -68.667 -10.333 -123.834 -31 -165.501s-56.334 -81.167 -107.001 -118.5c26 7.33301 48.667 11 68 11h90v-107h-266v101c43.333 32.667 73.5 68.5 90.5 107.5s25.5 90.833 25.5 155.5c0 85.333 -12.167 145.5 -36.5 180.5s-65.833 52.5 -124.5 52.5
c-59.333 0 -100.833 -17.5 -124.5 -52.5s-35.5 -95.833 -35.5 -182.5c0 -66.667 8.5 -118 25.5 -154s46.833 -71.667 89.5 -107v-101h-265v107z" />
    <glyph glyph-name="mu" unicode="&#x3bc;" horiz-adv-x="608" 
d="M527 490l0.000976562 -489.999h-95l-11 71c-63.333 -56 -125.666 -84 -186.999 -84c-19.333 0 -38 2.66699 -56 8c4 -18.667 6 -38 6 -58v-132h-106v685h122v-331c-0.666992 -20.667 4.66602 -35.834 15.999 -45.501s29 -14.5 53 -14.5c35.333 0 80.666 14 135.999 42
v349h122z" />
    <glyph glyph-name="pi" unicode="&#x3c0;" horiz-adv-x="645" 
d="M621 398h-85v-398h-121v398h-185v-398h-121v398h-85v93h597v-93z" />
    <glyph glyph-name="uni0401" unicode="&#x401;" 
d="M241 779h-40c-20 0 -30 10.333 -30 31v55c0 20 10 30 30 30h40c20 0 30 -10 30 -30v-55c0 -20.667 -10 -31 -30 -31zM420 779h-40c-20 0 -30 10.333 -30 31v55c0 20 10 30 30 30h40c20 0 30 -10 30 -30v-55c0 -20.667 -10 -31 -30 -31zM517 101l5 -95
c-60.667 -5.33301 -162 -8 -304 -8c-45.333 0 -81 11.667 -107 35s-39 55.333 -39 96v432c0 40.667 13 72.667 39 96s61.667 35 107 35c142 0 243.333 -2.66699 304 -8l-5 -96h-271c-18 0 -30.667 -4.33301 -38 -13s-11 -23.667 -11 -45v-121h282v-96h-282v-154
c0 -21.333 3.66699 -36.333 11 -45s20 -13 38 -13h271z" />
    <glyph glyph-name="uni0402" unicode="&#x402;" horiz-adv-x="757" 
d="M358 583l0.000976562 -184.998c58.667 32.667 121.667 49 189 49c55.333 0 98.166 -14.667 128.499 -44s45.5 -85 45.5 -167c0 -90 -22.5 -153.833 -67.5 -191.5s-109.167 -54.834 -192.5 -51.501l-12 90c54 5.33301 92 17.666 114 36.999s33 54.333 33 105
c0 50 -6.5 82 -19.5 96s-37.5 21 -73.5 21c-46 0 -94.333 -12.667 -145 -38v-304h-126v583h-211v107h549v-107h-212z" />
    <glyph glyph-name="uni0403" unicode="&#x403;" horiz-adv-x="524" 
d="M470 836l-213 -112l-38 54l188 148zM76 0v549c0 42 13 76.333 39 103s59 40 99 40c136.667 0 234.667 -3 294 -9l-6 -95h-242c-22 0 -37.333 -4.5 -46 -13.5s-13 -25.5 -13 -49.5v-525h-125z" />
    <glyph glyph-name="uni0404" unicode="&#x404;" horiz-adv-x="583" 
d="M534 109l12 -94.998c-54 -17.333 -123 -26 -207 -26c-105.333 0 -179.333 26.667 -222 80s-64 145.666 -64 276.999s21.333 223.666 64 276.999s116.667 80 222 80c78.667 0 145.667 -7.33301 201 -22l-12 -95c-62 4 -125 6 -189 6c-52.667 0 -90.667 -13.333 -114 -40
s-37 -73.667 -41 -141h284v-94h-286c2 -82 14.5 -138.667 37.5 -170s62.833 -47 119.5 -47c82.667 0 147.667 3.33301 195 10z" />
    <glyph glyph-name="uni0405" unicode="&#x405;" horiz-adv-x="570" 
d="M326 273l-139 44.001c-50 16 -85.667 40.167 -107 72.5s-32 74.833 -32 127.5c0 75.333 17.5 125 52.5 149s96.5 36 184.5 36c84.667 0 157 -7.66699 217 -23l-8 -89c-76 2.66699 -144.333 4 -205 4c-46 0 -76.667 -4.5 -92 -13.5s-23 -30.833 -23 -65.5
c0 -28.667 5.5 -48.834 16.5 -60.501s31.167 -22.167 60.5 -31.5l133 -41c52.667 -16.667 89.5 -41.167 110.5 -73.5s31.5 -74.833 31.5 -127.5c0 -76 -18 -127.167 -54 -153.5s-99.667 -39.5 -191 -39.5c-76 0 -150.667 7.33301 -224 22l8 92
c116.667 -2.66699 189.667 -4 219 -4c46 0 76.667 5.33301 92 16s23 33.334 23 68.001c0 29.333 -5.16699 49.666 -15.5 60.999s-29.5 21.333 -57.5 30z" />
    <glyph glyph-name="uni0406" unicode="&#x406;" horiz-adv-x="280" 
d="M203 0h-125v690h125v-690z" />
    <glyph glyph-name="uni0407" unicode="&#x407;" horiz-adv-x="280" 
d="M31 878h40c19.333 0 29 -10 29 -30v-56c0 -20 -9.66699 -30 -29 -30h-40c-20 0 -30 10 -30 30v56c0 20 10 30 30 30zM210 878h40c20 0 30 -10 30 -30v-56c0 -20 -10 -30 -30 -30h-40c-20 0 -30 10 -30 30v56c0 20 10 30 30 30zM203 0h-125v690h125v-690z" />
    <glyph glyph-name="uni0408" unicode="&#x408;" horiz-adv-x="354" 
d="M279 690l0.000976562 -538c0 -52.667 -12.5 -93 -37.5 -121s-60.5 -42 -106.5 -42c-44.667 0 -81.334 5.66699 -110.001 17l13 87h47c46.667 0 70 20.667 70 62v535h124z" />
    <glyph glyph-name="uni0409" unicode="&#x409;" horiz-adv-x="973" 
d="M579 426l116 0.00390625c90 0 152.333 -15.833 187 -47.5s52 -88.5 52 -170.5c0 -82.667 -16.5 -139.334 -49.5 -170.001s-89.167 -46 -168.5 -46c-111.333 0 -198 2.66699 -260 8v593h-105c-34.667 0 -53.667 -21 -57 -63c-11.333 -118 -20.666 -201.833 -27.999 -251.5
s-19 -95.834 -35 -138.501c-20.667 -52 -46.5 -88.667 -77.5 -110s-72.833 -32 -125.5 -32l-9 85c41.333 14 73.333 44.333 96 91c4.66699 9.33301 8.66699 19.166 12 29.499s6.66602 21.666 9.99902 33.999s6 23.333 8 33s4.16699 22.667 6.5 39l5.5 39
c1.33301 9.66699 2.83301 24.834 4.5 45.501s3 36 4 46s2.5 27.667 4.5 53s3.33301 43.666 4 54.999c4.66699 94.667 57 142 157 142h248v-264zM579 97.0039l116 -1c46.667 0 77.167 7.5 91.5 22.5s21.5 45.833 21.5 92.5c0 45.333 -7.33301 76.333 -22 93s-45 25 -91 25
h-116v-232z" />
    <glyph glyph-name="uni040A" unicode="&#x40a;" horiz-adv-x="977" 
d="M583 423l117 -0.000976562c89.333 0 151.333 -15.667 186 -47s52 -87.666 52 -168.999c0 -82 -16.333 -138.333 -49 -169s-88.667 -46 -168 -46c-112.667 0 -200 2.66699 -262 8v325h-256v-325h-125v690h125v-267h256v267h124v-267zM583 96.999l117 -1
c46 0 76.167 7.33301 90.5 22s21.5 45 21.5 91c0 45.333 -7.16699 76.333 -21.5 93s-44.5 25 -90.5 25h-117v-230z" />
    <glyph glyph-name="uni040B" unicode="&#x40b;" horiz-adv-x="776" 
d="M358 583l-0.000976562 -183.001c68.667 32 136.334 48 203.001 48c57.333 0 99.5 -13.167 126.5 -39.5s40.5 -67.166 40.5 -122.499v-286h-125v260c0 30 -6.16699 50.833 -18.5 62.5s-34.833 17.5 -67.5 17.5c-50 0 -103 -12 -159 -36v-304h-126v583h-211v107h549v-107
h-212z" />
    <glyph glyph-name="uni040C" unicode="&#x40c;" horiz-adv-x="619" 
d="M277 724l-38 54l188 148l63 -90zM357 362l-0.000976562 -4c56.667 -6 97.667 -28.833 123 -68.5s57 -116.5 95 -230.5l20 -59h-131c-39.333 118.667 -65.666 192 -78.999 220c-24 47.333 -53.667 76 -89 86c-12 3.33301 -26 5 -42 5h-58
c4.66699 -26.667 7 -49.334 7 -68.001v-243h-125v690h125v-203c0 -23.333 -2.33301 -50 -7 -80h58c20.667 0 39.167 3.83301 55.5 11.5s30.666 19.334 42.999 35.001s23.5 34 33.5 55s20 46.333 30 76l31 94.5c1.33301 4.66699 2.33301 8.33398 3 11.001h127
c-37.333 -114 -62.666 -184.333 -75.999 -211c-26.667 -56.667 -60.667 -92.334 -102 -107.001c-12.667 -4.66699 -26.667 -8 -42 -10z" />
    <glyph glyph-name="uni040D" unicode="&#x40d;" horiz-adv-x="701" 
d="M414 778l-38 -54l-212 112l62 90zM623 0h-121.001v452c0 27.333 2.66699 56.333 8 87h-6c-13.333 -36 -26 -64 -38 -84l-261 -455h-127v690h120v-446c0 -33.333 -2.66699 -63.333 -8 -90h7c8.66699 25.333 21.334 53 38.001 83l260 453h128v-690z" />
    <glyph glyph-name="uni040E" unicode="&#x40e;" horiz-adv-x="579" 
d="M388 892l59.999 -7.99902c4 -41.333 -8.5 -75.5 -37.5 -102.5s-69.167 -40.5 -120.5 -40.5s-91.666 13.5 -120.999 40.5s-42 61.167 -38 102.5l59 8c0 -44 33.333 -66 100 -66c32 0 56.5 5.66699 73.5 17s25.167 27.666 24.5 48.999zM573.999 690.001l-176.998 -515
c-20 -58 -42.5 -102 -67.5 -132s-58.833 -47 -101.5 -51c-46.667 -3.33301 -95 1.66699 -145 15l14 91c26 -1.33301 44.667 -2.33301 56 -3s24.166 -0.333984 38.499 0.999023s24 3.33301 29 6s11.167 7.33398 18.5 14.001s12.833 14 16.5 22s8.5 19.667 14.5 35l9 25h-36
c-40.667 0 -67.334 19.333 -80.001 58l-150 434h128l123 -377c2 -8.66699 8 -13 18 -13h33l130 390h129z" />
    <glyph glyph-name="uni040F" unicode="&#x40f;" horiz-adv-x="683" 
d="M605 690v-690h-212l-5 -151h-86l-6 151h-218v690h125v-593h276v593h126z" />
    <glyph glyph-name="uni0410" unicode="&#x410;" horiz-adv-x="636" 
d="M446 195h-256l-57 -195h-128l207 657c6 22 21 33 45 33h122c24 0 39 -11 45 -33l207 -657h-128zM416 298l-69 238c-9.33301 36 -14.333 55.667 -15 59h-27l-16 -59l-69 -238h196z" />
    <glyph glyph-name="uni0411" unicode="&#x411;" horiz-adv-x="607" 
d="M203 404l121 0.000976562c90 0 152.667 -15.167 188 -45.5s53 -84.5 53 -162.5c0 -46 -5 -82.833 -15 -110.5s-27 -48.334 -51 -62.001s-49.667 -22.5 -77 -26.5s-65 -6 -113 -6c-82.667 0 -158.667 3 -228 9h-3v690c88.667 4.66699 163.667 7 225 7
c62 0 135.667 -2.33301 221 -7l-10 -101h-311v-185zM203 94.001l121 -0.999023c47.333 0 78.333 7 93 21s22 43 22 87c0 43.333 -7.33301 72.666 -22 87.999s-45.667 23 -93 23h-121v-218z" />
    <glyph glyph-name="uni0412" unicode="&#x412;" horiz-adv-x="628" 
d="M439 360v-4.00195c50 -4.66699 85.833 -22.167 107.5 -52.5s32.5 -74.166 32.5 -131.499c0 -69.333 -17.167 -116.666 -51.5 -141.999s-92.833 -38 -175.5 -38c-119.333 0 -210.666 2.66699 -273.999 8v690c56.667 5.33301 137.667 8 243 8
c89.333 0 151.166 -12.5 185.499 -37.5s51.5 -72.5 51.5 -142.5c0 -50 -9.33301 -87.833 -28 -113.5s-49 -40.5 -91 -44.5zM200 402.998l125.999 -0.000976562c42.667 0 71.834 6.83301 87.501 20.5s23.5 39.834 23.5 78.501c0 38 -8.66699 63.333 -26 76s-49.333 19 -96 19
h-115v-194zM199.999 93.9971l132.001 -1.00098c46.667 0 78.5 6.83301 95.5 20.5s25.5 40.834 25.5 81.501c0 45.333 -8.83301 76 -26.5 92s-50.834 24.333 -99.501 25h-127v-218z" />
    <glyph glyph-name="uni0413" unicode="&#x413;" horiz-adv-x="524" 
d="M76 0v549c0 42 13 76.333 39 103s59 40 99 40c136.667 0 234.667 -3 294 -9l-6 -95h-242c-22 0 -37.333 -4.5 -46 -13.5s-13 -25.5 -13 -49.5v-525h-125z" />
    <glyph glyph-name="uni0414" unicode="&#x414;" horiz-adv-x="717" 
d="M690 97l-0.00195312 -247.999h-87l-11 151h-474l-11 -151h-87v248h71c48.667 114 79.667 264.667 93 452c2.66699 43.333 17.834 77.666 45.501 102.999s64.834 38 111.501 38h261v-593h88zM476.998 97.001l0.000976562 496h-108c-22.667 0 -38.834 -4.66699 -48.501 -14
s-15.167 -26 -16.5 -50c-8 -99.333 -18.833 -182 -32.5 -248s-34.167 -127.333 -61.5 -184h267z" />
    <glyph glyph-name="uni0415" unicode="&#x415;" 
d="M517 101l5 -95c-60.667 -5.33301 -162 -8 -304 -8c-45.333 0 -81 11.667 -107 35s-39 55.333 -39 96v432c0 40.667 13 72.667 39 96s61.667 35 107 35c142 0 243.333 -2.66699 304 -8l-5 -96h-271c-18 0 -30.667 -4.33301 -38 -13s-11 -23.667 -11 -45v-121h282v-96h-282
v-154c0 -21.333 3.66699 -36.333 11 -45s20 -13 38 -13h271z" />
    <glyph glyph-name="uni0416" unicode="&#x416;" horiz-adv-x="926" 
d="M664 362l-0.000976562 -4c55.333 -6 98 -31.667 128 -77c22.667 -33.333 51.667 -104 87 -212l10 -33l12 -36h-131c-42.667 122.667 -70 196.334 -82 221.001c-22.667 47.333 -49.334 75.666 -80.001 84.999c-10.667 3.33301 -22.667 5 -36 5h-55
c4.66699 -26.667 7 -49.334 7 -68.001v-243h-120v243c0 20.667 2.66699 43.334 8 68.001h-59c-42 0 -73.667 -17.333 -95 -52s-50.333 -105.667 -87 -213c-6.66699 -20 -12 -35.333 -16 -46h-131c40.667 126.667 68.667 206 84 238c27.333 56 61 92 101 108
c15.333 6 32.666 10 51.999 12v4c-23.333 2.66699 -43.833 9.33398 -61.5 20.001s-32.167 21.5 -43.5 32.5s-23.666 31.5 -36.999 61.5s-23.166 54.167 -29.499 72.5l-32.5 98.5l-14 43h127c37.333 -109.333 63.333 -178 78 -206
c28.667 -50.667 63.334 -76.334 104.001 -77.001h59c-4.66699 30 -7 56.667 -7 80v203h120v-203c0 -29.333 -2.33301 -56 -7 -80h54c28 0 52.667 11.833 74 35.5s37.5 48.667 48.5 75s28.5 74.5 52.5 144.5c4.66699 12 8 21.333 10 28h127
c-37.333 -114 -62.333 -184.667 -75 -212c-26.667 -56 -60.667 -91.333 -102 -106c-12.667 -4.66699 -26.667 -8 -42 -10z" />
    <glyph glyph-name="uni0417" unicode="&#x417;" horiz-adv-x="557" 
d="M58 587l-9.99805 92.998c59.333 12 128 18 206 18c87.333 0 147.666 -12.5 180.999 -37.5s50 -72.5 50 -142.5c0 -50 -9.16699 -87.833 -27.5 -113.5s-47.833 -40.5 -88.5 -44.5v-4c49.333 -4.66699 84.5 -22.167 105.5 -52.5s31.5 -74.166 31.5 -131.499
c0 -69.333 -16.833 -116.666 -50.5 -141.999s-90.834 -38 -171.501 -38c-102 0 -186 9 -252 27l10 89c77.333 -10.667 150.333 -16 219 -16c44.667 0 75.167 6.83301 91.5 20.5s24.5 41.167 24.5 82.5c0 44.667 -8.66699 75 -26 91s-49.333 24.333 -96 25h-125v94h125
c40 0 67.667 6.66699 83 20s23 39 23 77s-8.16699 63.667 -24.5 77s-46.833 20 -91.5 20c-36.667 0 -99 -4 -187 -12z" />
    <glyph glyph-name="uni0418" unicode="&#x418;" horiz-adv-x="701" 
d="M623 0h-121.001v452c0 27.333 2.66699 56.333 8 87h-6c-13.333 -36 -26 -64 -38 -84l-261 -455h-127v690h120v-446c0 -33.333 -2.66699 -63.333 -8 -90h7c8.66699 25.333 21.334 53 38.001 83l260 453h128v-690z" />
    <glyph glyph-name="uni0419" unicode="&#x419;" horiz-adv-x="701" 
d="M426 888h85.999c4 -41.333 -8.5 -76.166 -37.5 -104.499s-68.833 -42.5 -119.5 -42.5c-51.333 0 -91.833 14.167 -121.5 42.5s-42.167 63.166 -37.5 104.499h86c-1.33301 -56 23 -84 73 -84c48.667 0 72.334 28 71.001 84zM622.999 0h-121.001v452
c0 27.333 2.66699 56.333 8 87h-6c-13.333 -36 -26 -64 -38 -84l-261 -455h-127v690h120v-446c0 -33.333 -2.66699 -63.333 -8 -90h7c8.66699 25.333 21.334 53 38.001 83l260 453h128v-690z" />
    <glyph glyph-name="uni041A" unicode="&#x41a;" horiz-adv-x="619" 
d="M357 362l-0.000976562 -4c56.667 -6 97.667 -28.833 123 -68.5s57 -116.5 95 -230.5l20 -59h-131c-39.333 118.667 -65.666 192 -78.999 220c-24 47.333 -53.667 76 -89 86c-12 3.33301 -26 5 -42 5h-58c4.66699 -26.667 7 -49.334 7 -68.001v-243h-125v690h125v-203
c0 -23.333 -2.33301 -50 -7 -80h58c20.667 0 39.167 3.83301 55.5 11.5s30.666 19.334 42.999 35.001s23.5 34 33.5 55s20 46.333 30 76l31 94.5c1.33301 4.66699 2.33301 8.33398 3 11.001h127c-37.333 -114 -62.666 -184.333 -75.999 -211
c-26.667 -56.667 -60.667 -92.334 -102 -107.001c-12.667 -4.66699 -26.667 -8 -42 -10z" />
    <glyph glyph-name="uni041B" unicode="&#x41b;" horiz-adv-x="665" 
d="M587 690v-690.002h-126v593h-107c-40.667 0 -63 -21 -67 -63c-9.33301 -113.333 -18 -196.5 -26 -249.5s-20.333 -99.833 -37 -140.5c-41.333 -102.667 -110.333 -150 -207 -142l-10 97c25.333 6 46 14.833 62 26.5s28.333 28.834 37 51.501
c15.333 38.667 27 83.834 35 135.501s16 132.167 24 241.5c8 93.333 59.333 140 154 140h268z" />
    <glyph glyph-name="uni041C" unicode="&#x41c;" horiz-adv-x="895" 
d="M626 690l128 -0.000976562c31.333 0 48 -16.333 50 -49l27 -641h-122l-24 589h-18l-119 -459c-7.33301 -28 -25 -42 -53 -42h-95c-28.667 0 -46.667 14 -54 42l-120 459h-18l-21 -589h-122l26 641c1.33301 32.667 17.666 49 48.999 49h129c27.333 0 44.333 -14 51 -42
l99 -374c6.66699 -25.333 13.334 -56.666 20.001 -93.999h15l21 95l98 373c7.33301 28 25 42 53 42z" />
    <glyph glyph-name="uni041D" unicode="&#x41d;" horiz-adv-x="679" 
d="M601 690v-690h-126v316h-272v-316h-125v690h125v-271h272v271h126z" />
    <glyph glyph-name="uni041E" unicode="&#x41e;" horiz-adv-x="675" 
d="M337 703c106.667 0 180.834 -25.667 222.501 -77s62.5 -145 62.5 -281s-20.833 -229.667 -62.5 -281s-115.834 -77 -222.501 -77c-106 0 -179.833 25.667 -221.5 77s-62.5 145 -62.5 281s20.833 229.667 62.5 281s115.5 77 221.5 77zM337 596
c-58 0 -97.833 -17.833 -119.5 -53.5s-32.5 -101.5 -32.5 -197.5s10.833 -161.833 32.5 -197.5s61.5 -53.5 119.5 -53.5c58.667 0 98.834 17.833 120.501 53.5s32.5 101.5 32.5 197.5s-10.833 161.833 -32.5 197.5s-61.834 53.5 -120.501 53.5z" />
    <glyph glyph-name="uni041F" unicode="&#x41f;" horiz-adv-x="678" 
d="M600 690v-690h-125v593h-272v-593h-125v690h522z" />
    <glyph glyph-name="uni0420" unicode="&#x420;" horiz-adv-x="601" 
d="M78 0v690c59.333 6 142.666 9 249.999 9c90 0 152 -15.5 186 -46.5s51 -89.5 51 -175.5s-16.167 -144.5 -48.5 -175.5s-90.166 -46.5 -173.499 -46.5c-48.667 0 -95 2.66699 -139 8v-263h-126zM204 357h121c44 0.666992 74 9.16699 90 25.5s24 47.833 24 94.5
s-8 78.167 -24 94.5s-46 24.5 -90 24.5h-121v-239z" />
    <glyph glyph-name="uni0421" unicode="&#x421;" horiz-adv-x="578" 
d="M535 108l11 -93.998c-55.333 -17.333 -126 -26 -212 -26c-103.333 0 -176 26.667 -218 80s-63 145.666 -63 276.999s21 223.666 63 276.999s114.667 80 218 80c76.667 0 142.667 -7.33301 198 -22l-12 -95c-58 4.66699 -120 7 -186 7c-57.333 0 -96.5 -17.5 -117.5 -52.5
s-31.5 -99.833 -31.5 -194.5s10.5 -159.5 31.5 -194.5s60.167 -52.5 117.5 -52.5c84.667 0 151.667 3.33301 201 10z" />
    <glyph glyph-name="uni0422" unicode="&#x422;" horiz-adv-x="592" 
d="M571 583h-213v-583h-126v583h-211v107h550v-107z" />
    <glyph glyph-name="uni0423" unicode="&#x423;" horiz-adv-x="579" 
d="M574 690l-176.998 -515c-20 -58 -42.5 -102 -67.5 -132s-58.833 -47 -101.5 -51c-46.667 -3.33301 -95 1.66699 -145 15l14 91c26 -1.33301 44.667 -2.33301 56 -3s24.166 -0.333984 38.499 0.999023s24 3.33301 29 6s11.167 7.33398 18.5 14.001s12.833 14 16.5 22
s8.5 19.667 14.5 35l9 25h-36c-40.667 0 -67.334 19.333 -80.001 58l-150 434h128l123 -377c2 -8.66699 8 -13 18 -13h33l130 390h129z" />
    <glyph glyph-name="uni0424" unicode="&#x424;" horiz-adv-x="829" 
d="M477 741l0.000976562 -93c115.333 -5.33301 196.333 -29.833 243 -73.5s70.334 -117.834 71.001 -222.501c-0.666992 -102 -24.334 -174.5 -71.001 -217.5s-127.334 -67.167 -242.001 -72.5v-92h-126v92c-116 5.33301 -197.167 29.5 -243.5 72.5s-69.5 115.5 -69.5 217.5
c0 104.667 23.167 178.834 69.5 222.501s127.5 68.167 243.5 73.5v93h125zM357.001 163v385.001c-74 -4 -124.333 -19.833 -151 -47.5s-40 -77.167 -40 -148.5c0 -68.667 13.333 -116.334 40 -143.001s77 -42 151 -46zM472.001 548.001l-0.000976562 -385
c73.333 4 123.333 19.333 150 46s40.334 74.334 41.001 143.001c-0.666992 71.333 -14.167 120.666 -40.5 147.999s-76.5 43.333 -150.5 48z" />
    <glyph glyph-name="uni0425" unicode="&#x425;" horiz-adv-x="626" 
d="M322 312h-19l-154 -312h-132l183 355l-170 335h131l141 -288h21l141 288h132l-171 -335l184 -355h-133z" />
    <glyph glyph-name="uni0426" unicode="&#x426;" horiz-adv-x="703" 
d="M675 97v-248h-87l-10 151h-500v690h125v-593h262v593h126v-593h84z" />
    <glyph glyph-name="uni0427" unicode="&#x427;" horiz-adv-x="641" 
d="M563 690l0.000976562 -690h-125v297c-74 -37.333 -147.333 -56 -220 -56c-56 0 -97.5 13.333 -124.5 40s-40.5 67.667 -40.5 123v286h125v-260c-0.666992 -28 5.5 -48.167 18.5 -60.5s35.167 -18.5 66.5 -18.5c55.333 0 113.666 12.667 174.999 38v301h125z" />
    <glyph glyph-name="uni0428" unicode="&#x428;" horiz-adv-x="951" 
d="M873 690v-690h-795v690h123v-593h213v593h122v-593h214v593h123z" />
    <glyph glyph-name="uni0429" unicode="&#x429;" horiz-adv-x="979" 
d="M951 97v-248h-87l-10 151h-776v690h123v-593h211v593h121v-593h212v593h122v-593h84z" />
    <glyph glyph-name="uni042A" unicode="&#x42a;" horiz-adv-x="754" 
d="M360 426l115 0.000976562c90 0 152.5 -15.833 187.5 -47.5s52.5 -88.834 52.5 -171.501c0 -82 -16.5 -138.333 -49.5 -169s-89.5 -46 -169.5 -46c-112.667 0 -200 2.66699 -262 8v583h-214v107h340v-264zM360 97.001l115.002 -1c47.333 0 78.166 7.33301 92.499 22
s21.5 45 21.5 91s-7.33301 77.5 -22 94.5s-45.334 25.5 -92.001 25.5h-115v-232z" />
    <glyph glyph-name="uni042B" unicode="&#x42b;" horiz-adv-x="873" 
d="M203 426l118 0.000976562c90 0 152.5 -15.833 187.5 -47.5s52.5 -88.834 52.5 -171.501c0 -82 -16.5 -138.333 -49.5 -169s-89.5 -46 -169.5 -46c-113.333 0 -200.333 2.66699 -261 8h-3v690h125v-264zM795 690.001v-690h-125v690h125zM203 97.001l118.002 -1
c47.333 0 78.166 7.33301 92.499 22s21.5 45 21.5 91s-7.33301 77.5 -22 94.5s-45.334 25.5 -92.001 25.5h-118v-232z" />
    <glyph glyph-name="uni042C" unicode="&#x42c;" horiz-adv-x="601" 
d="M203 426l119 0.000976562c90 0 152.5 -15.833 187.5 -47.5s52.5 -88.834 52.5 -171.501c0 -82 -16.5 -138.333 -49.5 -169s-89.5 -46 -169.5 -46c-114 0 -201.333 2.66699 -262 8h-3v690h125v-264zM203 97.001l119.002 -1c47.333 0 78.166 7.33301 92.499 22
s21.5 45 21.5 91s-7.33301 77.5 -22 94.5s-45.334 25.5 -92.001 25.5h-119v-232z" />
    <glyph glyph-name="uni042D" unicode="&#x42d;" horiz-adv-x="583" 
d="M54 585l-11 94.998c55.333 14.667 122 22 200 22c105.333 0 179.5 -26.667 222.5 -80s64.5 -145.666 64.5 -276.999s-21.5 -223.666 -64.5 -276.999s-117.167 -80 -222.5 -80c-83.333 0 -152 8.66699 -206 26l12 95c47.333 -6.66699 112.333 -10 195 -10
c56.667 0 96.5 15.667 119.5 47s35.167 88 36.5 170h-285v94h284c-4 67.333 -17.667 114.333 -41 141s-61.333 40 -114 40c-64 0 -127.333 -2 -190 -6z" />
    <glyph glyph-name="uni042E" unicode="&#x42e;" horiz-adv-x="950" 
d="M204 406l140 0.000976562c5.33301 111.333 28 188.666 68 231.999s106.333 65 199 65c106.667 0 180.834 -25.667 222.501 -77s62.5 -145 62.5 -281s-20.833 -229.667 -62.5 -281s-115.834 -77 -222.501 -77c-96 0 -164 23.333 -204 70s-61.333 130.667 -64 252h-139
v-309h-125v690h125v-284zM611 94.001c58 0 97.833 17.833 119.5 53.5s32.834 101.5 33.501 197.5c-0.666992 96 -11.834 161.833 -33.501 197.5s-61.5 53.5 -119.5 53.5c-56 0 -94.333 -17.833 -115 -53.5s-31 -101.5 -31 -197.5s10.333 -161.833 31 -197.5
s59 -53.5 115 -53.5z" />
    <glyph glyph-name="uni042F" unicode="&#x42f;" horiz-adv-x="623" 
d="M546 0h-126.002v271l-119 -1c-41.333 0 -68 -21 -80 -63l-53 -207h-132l58 211c14.667 56 48.334 89 101.001 99l-1 6c-47.333 6 -81.166 23.667 -101.499 53s-30.166 72 -29.499 128c0 72.667 18 124.5 54 155.5s95.667 46.5 179 46.5c107.333 0 190.666 -3 249.999 -9
v-690zM419.998 373l0.000976562 223h-121c-42.667 0 -71.667 -7.33301 -87 -22s-23.333 -43 -24 -85c0 -42 8.16699 -71.833 24.5 -89.5s45.166 -26.5 86.499 -26.5h121z" />
    <glyph glyph-name="uni0430" unicode="&#x430;" horiz-adv-x="562" 
d="M78 394l-11 86c86 16 167.333 24 244 24c63.333 0 110 -12.667 140 -38s45 -69.666 45 -132.999v-333h-96l-13 75c-51.333 -57.333 -113.666 -86 -186.999 -86c-46 0 -83.333 12.5 -112 37.5s-43 59.833 -43 104.5v50c0 39.333 12.667 69.666 38 90.999s61 32 107 32h184
v30c-0.666992 28 -7 46.667 -19 56s-35.667 14 -71 14c-50.667 0 -119.334 -3.33301 -206.001 -10zM166 166v-19.002c0 -21.333 5 -36.666 15 -45.999s26.333 -14 49 -14c48.667 0 96.667 19.333 144 58v76h-156c-19.333 -0.666992 -32.833 -5.66699 -40.5 -15
s-11.5 -22.666 -11.5 -39.999z" />
    <glyph glyph-name="uni0431" unicode="&#x431;" horiz-adv-x="584" 
d="M486 739l26.001 -95c-25.333 -15.333 -50.333 -26 -75 -32s-51.667 -10.667 -81 -14s-54 -8 -74 -14c-64 -18 -103.333 -60 -118 -126c-6.66699 -25.333 -11 -49.666 -13 -72.999h2c11.333 18 22.833 32.833 34.5 44.5s30.167 22.167 55.5 31.5s56 14 92 14
c72.667 0 124.167 -18.167 154.5 -54.5s45.5 -95.833 45.5 -178.5c0 -86 -17.333 -149.833 -52 -191.5s-96 -62.5 -184 -62.5c-44 0 -81 5.5 -111 16.5s-53.333 24.667 -70 41s-29.334 39.333 -38.001 69s-14 57.167 -16 82.5s-3 58.666 -3 99.999
c0 112.667 12 198.167 36 256.5s72.333 98.833 145 121.5c18 6 54.833 13.5 110.5 22.5s100.167 22.833 133.5 41.5zM303.001 380c-47.333 0 -78.499 -10.332 -93.499 -30.999s-22.5 -57 -22.5 -109c0 -59.333 8 -100 24 -122s45 -33 87 -33c41.333 0 70 11 86 33
s24 62.333 24 121c0 55.333 -7.33301 92.666 -22 111.999s-42.334 29 -83.001 29z" />
    <glyph glyph-name="uni0432" unicode="&#x432;" horiz-adv-x="561" 
d="M392 254l0.000976562 -3.00098c44 -3.33301 75.667 -15.666 95 -36.999s29 -52.333 29 -93c0 -49.333 -15.167 -83 -45.5 -101s-82.166 -27 -155.499 -27c-104 0 -186 2 -246 6v491c53.333 4 126 6 218 6c79.333 0 134.166 -9.16699 164.499 -27.5
s45.5 -52.833 45.5 -103.5c0 -35.333 -8.33301 -62 -25 -80s-43.334 -28.333 -80.001 -31zM183.001 291.999l108 -0.000976562c34.667 0 58.834 4.33301 72.501 13s20.5 24.667 20.5 48c0 20.667 -7.33301 34.834 -22 42.501s-41.334 11.5 -80.001 11.5h-99v-115z
M183.001 82.998l112.001 -0.000976562c37.333 0 63.166 4.33301 77.499 13s21.5 25.667 21.5 51c0 24.667 -7.5 41.834 -22.5 51.501s-41.833 14.5 -80.5 14.5h-108v-130z" />
    <glyph glyph-name="uni0433" unicode="&#x433;" horiz-adv-x="474" 
d="M67 0v381c0 76 39.667 114 119 114c126.667 0 217 -3.66699 271 -11l-5 -85h-214c-17.333 0 -30 -4 -38 -12s-12 -21 -12 -39v-348h-121z" />
    <glyph glyph-name="uni0434" unicode="&#x434;" horiz-adv-x="611" 
d="M581 93v-236.001h-79l-9 143h-379l-9 -143h-79v236h61c32.667 76.667 54 169.334 64 278.001c6 79.333 51.667 119 137 119h219v-397h74zM393 92.999v307.999h-79c-34 0 -52.333 -17.333 -55 -52c-11.333 -107.333 -33 -192.666 -65 -255.999h199z" />
    <glyph glyph-name="uni0435" unicode="&#x435;" horiz-adv-x="551" 
d="M377 194l-200.001 0.00195312c4 -42.667 15.833 -71.167 35.5 -85.5s51.5 -21.5 95.5 -21.5c50 0 108.667 4 176 12l11 -78c-46.667 -22 -114 -33 -202 -33c-88.667 0 -151.667 19.667 -189 59s-56 105.666 -56 198.999c0 95.333 18.333 162.166 55 200.499
s97.334 57.5 182.001 57.5c78 0 134.5 -14.167 169.5 -42.5s52.5 -70.833 52.5 -127.5c1.33301 -93.333 -42 -140 -130 -140zM173.999 279.002h169c29.333 0 44 19 44 57c0 26.667 -7 45.334 -21 56.001s-39.333 16 -76 16c-43.333 0 -73 -8.83301 -89 -26.5
s-25 -51.834 -27 -102.501z" />
    <glyph glyph-name="uni0436" unicode="&#x436;" horiz-adv-x="807" 
d="M590 258l-0.00195312 -3.00195c18.667 -2.66699 34.5 -5.83398 47.5 -9.50098s25.167 -10.667 36.5 -21s20.666 -20 27.999 -29s15.833 -25 25.5 -48s17.834 -43.667 24.501 -62s16.334 -46.833 29.001 -85.5h-123c-33.333 91.333 -57.666 149.166 -72.999 173.499
s-39.333 36.833 -72 37.5h-60c3.33301 -16.667 5 -31.334 5 -44.001v-167h-106v167c0 12.667 1.66699 27.334 5 44.001h-63c-31.333 -0.666992 -54.666 -13.167 -69.999 -37.5s-40 -82.166 -74 -173.499h-123c13.333 40.667 23 69.334 29 86.001s14 37 24 61
s18.333 40.167 25 48.5s15.834 17.833 27.501 28.5s24 17.834 37 21.501s28.833 6.83398 47.5 9.50098v3c-46.667 5.33301 -79.5 21.333 -98.5 48s-42.833 82 -71.5 166l-6 18h120c28 -77.333 50.333 -128.666 67 -153.999s40.667 -38 72 -38h57c-3.33301 16 -5 35 -5 57
v135h106v-135c0 -22 -1.66699 -41 -5 -57h54c32 0 56.167 12.667 72.5 38s38.166 76.666 65.499 153.999h121c-30.667 -88.667 -52.334 -143.667 -65.001 -165c-20 -34 -49 -55 -87 -63c-7.33301 -2 -15.333 -3.33301 -24 -4z" />
    <glyph glyph-name="uni0437" unicode="&#x437;" horiz-adv-x="509" 
d="M58 393l-7.99805 88.999c44 12.667 98 19 162 19c87.333 0 147.833 -8.83301 181.5 -26.5s50.5 -53.167 50.5 -106.5c0 -36.667 -7.83301 -64 -23.5 -82s-42.167 -28.667 -79.5 -32v-3c42.667 -3.33301 73.667 -15.5 93 -36.5s29 -51.833 29 -92.5
c0 -53.333 -16.5 -88.833 -49.5 -106.5s-89.833 -26.5 -170.5 -26.5s-150.667 6 -210 18l9 89c67.333 -6 131.666 -9 192.999 -9c41.333 0 68.833 3.83301 82.5 11.5s20.5 23.834 20.5 48.501c0 23.333 -7.16699 39.166 -21.5 47.499s-41.5 12.833 -81.5 13.5h-130v84h129
c35.333 0 59.166 4 71.499 12s18.5 23.667 18.5 47c0 20.667 -7.33301 34.334 -22 41.001s-43 10 -85 10c-54.667 0 -107.667 -3 -159 -9z" />
    <glyph glyph-name="uni0438" unicode="&#x438;" horiz-adv-x="595" 
d="M524 0l-109 -0.000976562v283c0 2 1.66699 26.333 5 73h-3c-6.66699 -17.333 -18.667 -39.333 -36 -66l-211 -290h-100v490h108v-286c0 -24 -1.33301 -47 -4 -69h3c11.333 24.667 23.333 45.334 36 62.001l211 293h100v-490z" />
    <glyph glyph-name="uni0439" unicode="&#x439;" horiz-adv-x="595" 
d="M367 708h87c4 -41.333 -8.5 -76.166 -37.5 -104.499s-68.833 -42.5 -119.5 -42.5c-51.333 0 -91.833 14.167 -121.5 42.5s-42.5 63.166 -38.5 104.499h87c-1.33301 -56 23 -84 73 -84c48.667 0 72 28 70 84zM524 0l-109 -0.000976562v283c0 2 1.66699 26.333 5 73h-3
c-6.66699 -17.333 -18.667 -39.333 -36 -66l-211 -290h-100v490h108v-286c0 -24 -1.33301 -47 -4 -69h3c11.333 24.667 23.333 45.334 36 62.001l211 293h100v-490z" />
    <glyph glyph-name="uni043A" unicode="&#x43a;" horiz-adv-x="551" 
d="M330 257l-0.00292969 -2.99902c14 -1.33301 26.333 -3.33301 37 -6s21 -6.83398 31 -12.501s18.333 -11 25 -16s13.834 -13.5 21.501 -25.5s13.834 -22.5 18.501 -31.5s11 -23.5 19 -43.5s14.5 -37.5 19.5 -52.5l22.5 -66.5h-127
c-31.333 90.667 -55.333 148.167 -72 172.5s-44.667 36.833 -84 37.5h-5h-50c3.33301 -16.667 5 -31 5 -43v-167h-121v490h121v-134c0 -18.667 -2 -37.667 -6 -57h50c40 0 68.833 12.667 86.5 38s38.834 76.333 63.501 153h123c-30.667 -90 -52.667 -146 -66 -168
c-20 -32 -49.667 -52.333 -89 -61z" />
    <glyph glyph-name="uni043B" unicode="&#x43b;" horiz-adv-x="578" 
d="M508 490l0.00292969 -489.998h-122v400h-81c-18.667 0 -31.834 -3.83301 -39.501 -11.5s-12.834 -22.167 -15.501 -43.5c-15.333 -116 -29 -194 -41 -234c-22.667 -84.667 -83 -123.334 -181 -116.001l-12 91c26.667 4.66699 45.667 11 57 19s20.666 21.333 27.999 40
c14 42.667 26 116.667 36 222c4 41.333 17 72.166 39 92.499s54.667 30.5 98 30.5h234z" />
    <glyph glyph-name="uni043C" unicode="&#x43c;" horiz-adv-x="767" 
d="M528 490h116.998c28.667 0 43 -14.333 43 -43l18 -447h-111l-16 401h-16l-95 -304c-7.33301 -25.333 -22.666 -38 -45.999 -38h-79c-24 0 -39.667 12.667 -47 38l-95 304h-15l-15 -401h-110l17 447c0 28.667 14.667 43 44 43h116c24 0 39 -12.667 45 -38l76 -244
c4.66699 -12.667 10.334 -36.667 17.001 -72h13c6 30.667 11.333 54.667 16 72l76 244c7.33301 25.333 23 38 47 38z" />
    <glyph glyph-name="uni043D" unicode="&#x43d;" horiz-adv-x="593" 
d="M523 490v-490h-119v215h-214v-215h-120v490h120v-186h214v186h119z" />
    <glyph glyph-name="uni043E" unicode="&#x43e;" horiz-adv-x="580" 
d="M290 504c88 0 150.333 -19.667 187 -59s55 -106 55 -200s-18.167 -160.5 -54.5 -199.5s-98.833 -58.5 -187.5 -58.5c-88 0 -150.333 19.5 -187 58.5s-55 105.5 -55 199.5s18.333 160.667 55 200s99 59 187 59zM290 407c-44.667 0 -75 -11.167 -91 -33.5
s-24 -65.166 -24 -128.499c0 -62.667 8 -105.167 24 -127.5s46.333 -33.5 91 -33.5s75.167 11.167 91.5 33.5s24.5 64.833 24.5 127.5c0 63.333 -8.16699 106.166 -24.5 128.499s-46.833 33.5 -91.5 33.5z" />
    <glyph glyph-name="uni043F" unicode="&#x43f;" horiz-adv-x="585" 
d="M514 491v-491h-118v398h-208v-398h-118v491h444z" />
    <glyph glyph-name="uni0440" unicode="&#x440;" horiz-adv-x="595" 
d="M170 490l9 -73c22.667 25.333 52.667 46 90 62s74 24 110 24c111.333 0 167 -87.333 167 -262c0 -92.667 -15.167 -158 -45.5 -196s-77.833 -57 -142.5 -57c-66 0 -122.667 16 -170 48c2.66699 -34 3.66699 -68 3 -102v-129h-121v685h100zM191 342v-234
c62.667 -14 106.334 -21 131.001 -21c37.333 0 63.166 10.167 77.499 30.5s21.5 61.833 21.5 124.5c0 60.667 -6.5 102.667 -19.5 126s-35.167 35 -66.5 35c-22.667 0 -44.5 -4.83301 -65.5 -14.5s-47.167 -25.167 -78.5 -46.5z" />
    <glyph glyph-name="uni0441" unicode="&#x441;" horiz-adv-x="501" 
d="M455 98l12.001 -80.002c-49.333 -20 -109.333 -30 -180 -30c-87.333 0 -149 19.333 -185 58s-54 105.334 -54 200.001s18.167 161.334 54.5 200.001s98.166 58 185.499 58c68 0 125 -9.33301 171 -28l-14 -76c-33.333 1.33301 -79 2 -137 2c-50 0 -84.667 -11 -104 -33
s-29 -63 -29 -123c0 -60.667 9.66699 -102.167 29 -124.5s54 -33.5 104 -33.5c54 0 103 3.33301 147 10z" />
    <glyph glyph-name="uni0442" unicode="&#x442;" horiz-adv-x="503" 
d="M480 394h-168v-394h-120v394h-169v96h457v-96z" />
    <glyph glyph-name="uni0443" unicode="&#x443;" horiz-adv-x="549" 
d="M535 490l-182 -504.999c-25.333 -73.333 -61.333 -125 -108 -155c-46 -32 -113 -41.667 -201 -29l11 84c55.333 -3.33301 95.666 2.66699 120.999 18c25.333 16.667 47 45.667 65 87l4 10h-24c-22 0 -35.667 10 -41 30l-167 460h130l107 -337
c8.66699 -30.667 14 -52.334 16 -65.001h13c6.66699 19.333 13.334 41 20.001 65l105 337h131z" />
    <glyph glyph-name="uni0444" unicode="&#x444;" horiz-adv-x="734" 
d="M422 700v-197.999c95.333 -5.33301 163.333 -27.833 204 -67.5s61 -102.834 61 -189.501c0 -86 -20.333 -148.833 -61 -188.5s-108.667 -62.167 -204 -67.5v-184h-110v185c-95.333 5.33301 -163.333 27.666 -204 66.999s-61 102 -61 188
c0 86.667 20.333 149.834 61 189.501s108.667 62.167 204 67.5v198h110zM316 85.001v321c-57.333 -4 -97.166 -17.833 -119.499 -41.5s-33.5 -63.5 -33.5 -119.5s11.167 -95.667 33.5 -119s62.166 -37 119.499 -41zM418 406.001v-321c57.333 4 97.166 17.667 119.499 41
s33.5 63 33.5 119s-11.167 95.833 -33.5 119.5s-62.166 37.5 -119.499 41.5z" />
    <glyph glyph-name="uni0445" unicode="&#x445;" horiz-adv-x="550" 
d="M281 210h-13l-123 -210h-128l154 252l-142 238h127l111 -192h16l111 192h127l-143 -238l155 -252h-129z" />
    <glyph glyph-name="uni0446" unicode="&#x446;" horiz-adv-x="611" 
d="M502 -143l-11 143h-421v490h120v-397h199v397h120v-397h73v-236h-80z" />
    <glyph glyph-name="uni0447" unicode="&#x447;" horiz-adv-x="550" 
d="M478 490l0.000976562 -490h-119v191c-60.667 -20 -119 -30 -175 -30c-90.667 0 -136 36.667 -136 110v219h120v-179c0 -20.667 4.16699 -35 12.5 -43s23.166 -12 44.499 -12c44 0 88.667 8.66699 134 26v208h119z" />
    <glyph glyph-name="uni0448" unicode="&#x448;" horiz-adv-x="822" 
d="M752 490v-490h-682v490h117v-397h170v397h108v-397h170v397h117z" />
    <glyph glyph-name="uni0449" unicode="&#x449;" horiz-adv-x="854" 
d="M825 -143h-80l-11 143h-664v490h117v-397h170v397h107v-397h171v397h117v-397h73v-236z" />
    <glyph glyph-name="uni044A" unicode="&#x44a;" horiz-adv-x="641" 
d="M306 314l88 0.000976562c80.667 0 136 -11.5 166 -34.5s45 -65.167 45 -126.5c0 -60.667 -14.5 -102.334 -43.5 -125.001s-78.167 -34 -147.5 -34c-95.333 0 -170.333 2 -225 6v398h-167v92h284v-176zM306 85.001h88c34.667 0 58.167 4.83301 70.5 14.5
s18.5 29.167 18.5 58.5c0 28 -6 47 -18 57s-35.667 15 -71 15h-88v-145z" />
    <glyph glyph-name="uni044B" unicode="&#x44b;" horiz-adv-x="753" 
d="M187 314l91 0.000976562c80.667 0 136 -11.5 166 -34.5s45 -65.167 45 -126.5c0 -60.667 -14.5 -102.334 -43.5 -125.001s-78.167 -34 -147.5 -34c-96 0 -170.667 2 -224 6h-4v490h117v-176zM682 490.001v-490h-121v490h121zM187 85.001h91
c34.667 0 58.167 4.83301 70.5 14.5s18.5 29.167 18.5 58.5c0 28 -6.16699 47 -18.5 57s-35.833 15 -70.5 15h-91v-145z" />
    <glyph glyph-name="uni044C" unicode="&#x44c;" horiz-adv-x="526" 
d="M187 314l91 0.000976562c80.667 0 136.167 -11.5 166.5 -34.5s45.5 -65.167 45.5 -126.5c0 -60.667 -14.5 -102.334 -43.5 -125.001s-78.167 -34 -147.5 -34c-96.667 0 -171.667 2 -225 6h-4v490h117v-176zM187 85.001h91c34.667 0 58.167 4.83301 70.5 14.5
s18.5 29.167 18.5 58.5c0 28 -6 47 -18 57s-35.667 15 -71 15h-91v-145z" />
    <glyph glyph-name="uni044D" unicode="&#x44d;" horiz-adv-x="522" 
d="M52 397l-11 81.001c44.667 14 104.334 21 179.001 21c94 0 159.833 -18.833 197.5 -56.5s56.5 -104.167 56.5 -199.5c0 -93.333 -19 -159 -57 -197s-103.667 -57 -197 -57c-75.333 0 -136.333 7.66699 -183 23l10 82c43.333 -3.33301 101 -5 173 -5
c47.333 0 80.166 8 98.499 24s28.833 47.667 31.5 95h-246v84h245c-4 42 -15.5 70.667 -34.5 86s-50.5 22.666 -94.5 21.999c-56 0 -112 -1 -168 -3z" />
    <glyph glyph-name="uni044E" unicode="&#x44e;" horiz-adv-x="815" 
d="M191 297l108 -0.00195312c4.66699 78.667 24 132.834 58 162.501s90.333 44.5 169 44.5c90 0 152.5 -18.167 187.5 -54.5s52.5 -104.5 52.5 -204.5c0 -97.333 -17.667 -164 -53 -200s-97.666 -54 -186.999 -54c-80.667 0 -137.834 15.333 -171.501 46
s-52.5 87.334 -56.5 170.001h-107v-207h-121v490h121v-193zM523 88.998c45.333 0 76.166 11 92.499 33s24.833 63.667 25.5 125c-0.666992 61.333 -9.16699 102.833 -25.5 124.5s-47.166 32.5 -92.499 32.5c-44 0 -73.667 -10.833 -89 -32.5s-23 -63.167 -23 -124.5
s7.66699 -103 23 -125s45 -33 89 -33z" />
    <glyph glyph-name="uni044F" unicode="&#x44f;" horiz-adv-x="555" 
d="M168 210l0.00292969 3.99902c-38.667 7.33301 -66.334 21.833 -83.001 43.5s-25 51.834 -25 90.501c0 54 14.167 92.5 42.5 115.5s80.166 34.5 155.499 34.5c104 0 180 -2.33301 228 -7v-491h-119v173h-110c-38 0 -60 -14 -66 -42l-35 -131h-125l43 150
c9.33301 33.333 40.666 53.333 93.999 60zM367.003 257.999v145.998l-107 1c-34.667 0 -57 -4.66699 -67 -14s-15 -28.666 -15 -57.999s5.16699 -49.166 15.5 -59.499s32.5 -15.5 66.5 -15.5h107z" />
    <glyph glyph-name="uni0451" unicode="&#x451;" horiz-adv-x="551" 
d="M217 583h-40c-20 0 -30 10 -30 30v55c0 20.667 10 31 30 31h40c20 0 30 -10.333 30 -31v-55c0 -20 -10 -30 -30 -30zM396 583h-40c-20 0 -30 10 -30 30v55c0 20.667 10 31 30 31h40c20 0 30 -10.333 30 -31v-55c0 -20 -10 -30 -30 -30zM377 194l-200.001 0.00195312
c4 -42.667 15.833 -71.167 35.5 -85.5s51.5 -21.5 95.5 -21.5c50 0 108.667 4 176 12l11 -78c-46.667 -22 -114 -33 -202 -33c-88.667 0 -151.667 19.667 -189 59s-56 105.666 -56 198.999c0 95.333 18.333 162.166 55 200.499s97.334 57.5 182.001 57.5
c78 0 134.5 -14.167 169.5 -42.5s52.5 -70.833 52.5 -127.5c1.33301 -93.333 -42 -140 -130 -140zM173.999 279.002h169c29.333 0 44 19 44 57c0 26.667 -7 45.334 -21 56.001s-39.333 16 -76 16c-43.333 0 -73 -8.83301 -89 -26.5s-25 -51.834 -27 -102.501z" />
    <glyph glyph-name="uni0452" unicode="&#x452;" horiz-adv-x="597" 
d="M215 485v-60c0 -30 -1.66699 -59.333 -5 -88c68.667 47.333 136.334 71 203.001 71c91.333 0 137 -45 137 -135v-273h-122v237c0 24.667 -5 41.667 -15 51s-28.333 14 -55 14c-36.667 0 -84.334 -15.667 -143.001 -47v-255h-121v485h-71v64h71v151h121v-151h173v-64h-173
z" />
    <glyph glyph-name="uni0453" unicode="&#x453;" horiz-adv-x="474" 
d="M443 656l-213 -112l-38 54l188 147zM67 0v381c0 76 39.667 114 119 114c126.667 0 217 -3.66699 271 -11l-5 -85h-214c-17.333 0 -30 -4 -38 -12s-12 -21 -12 -39v-348h-121z" />
    <glyph glyph-name="uni0454" unicode="&#x454;" horiz-adv-x="522" 
d="M474 94l10.9961 -82.001c-48 -15.333 -109.333 -23 -184 -23c-93.333 0 -158.833 19 -196.5 57s-56.5 103.667 -56.5 197c0 95.333 18.833 161.833 56.5 199.5s103.167 56.5 196.5 56.5c74.667 0 134.334 -7 179.001 -21l-11 -81c-55.333 2 -111.333 3 -168 3
c-43.333 0.666992 -74.5 -6.66602 -93.5 -21.999s-30.833 -44 -35.5 -86h246v-84h-247c2.66699 -47.333 13.334 -79 32.001 -95s51.334 -24 98.001 -24c72.667 0 130.334 1.66699 173.001 5z" />
    <glyph glyph-name="uni0455" unicode="&#x455;" horiz-adv-x="520" 
d="M288 186l-128.996 34.998c-42 12 -71.5 29 -88.5 51s-25.5 53 -25.5 93c0 52.667 15 89 45 109s81.667 30 155 30c78.667 -1.33301 151 -7.33301 217 -18l-9 -84c-84 2.66699 -146.333 4 -187 4c-44 0 -72.333 -2.16699 -85 -6.5s-19 -16.166 -19 -35.499
c0 -4.66699 0.5 -9 1.5 -13l2.5 -10c0.666992 -2.66699 2.5 -5.16699 5.5 -7.5s5.16699 -4.16602 6.5 -5.49902s4.66602 -3 9.99902 -5s9 -3.33301 11 -4s6.66699 -2 14 -4s12.666 -3.33301 15.999 -4l131 -36c42.667 -12 73 -28.167 91 -48.5s27 -51.166 27 -92.499
c0 -57.333 -16.5 -95.833 -49.5 -115.5s-89.5 -29.5 -169.5 -29.5c-73.333 0 -141.666 5.33301 -204.999 16l7 85c35.333 -2.66699 91.333 -4 168 -4c52.667 0 87.667 3 105 9s26 18.667 26 38c0 4 -0.333008 7.5 -1 10.5s-1.33398 5.66699 -2.00098 8
s-2 4.66602 -4 6.99902s-3.5 4.16602 -4.5 5.49902s-3.33301 2.83301 -7 4.5s-6.33398 3 -8.00098 4s-4.83398 2.16699 -9.50098 3.5l-10.5 3l-12.5 3.5c-6 1.66699 -10.333 2.83398 -13 3.50098z" />
    <glyph glyph-name="uni0456" unicode="&#x456;" horiz-adv-x="269" 
d="M107 703h56c23.333 0 35 -11.667 35 -35v-55c0 -23.333 -11.667 -35 -35 -35h-56c-23.333 0 -35 11.667 -35 35v55c0 23.333 11.667 35 35 35zM195 0h-121v490h121v-490z" />
    <glyph glyph-name="uni0457" unicode="&#x457;" horiz-adv-x="269" 
d="M25 699h40c20 0 30 -10.333 30 -31v-55c0 -20 -10 -30 -30 -30h-40c-19.333 0 -29 10 -29 30v55c0 20.667 9.66699 31 29 31zM204 699h40c20 0 30 -10.333 30 -31v-55c0 -20 -10 -30 -30 -30h-40c-20 0 -30 10 -30 30v55c0 20.667 10 31 30 31zM195 0h-121v490h121v-490z
" />
    <glyph glyph-name="uni0458" unicode="&#x458;" horiz-adv-x="270" 
d="M107 704h56c23.333 0 35 -11.667 35 -35v-54c0 -23.333 -11.667 -35 -35 -35h-56c-23.333 0 -35 11.667 -35 35v54c0 23.333 11.667 35 35 35zM196 490v-481.002c0 -43.333 -10 -83.666 -30 -120.999s-47.333 -66.666 -82 -87.999l-67 53c38 45.333 57 97.333 57 156v481
h122z" />
    <glyph glyph-name="uni0459" unicode="&#x459;" horiz-adv-x="819" 
d="M483 313l90.001 0.000976562c80 0 135 -11.5 165 -34.5s45 -64.833 45 -125.5s-14.5 -102.334 -43.5 -125.001s-78.167 -34 -147.5 -34c-93.333 0 -167.666 2 -222.999 6v404h-59c-18 0 -30.833 -3.16699 -38.5 -9.5s-12.167 -17.833 -13.5 -34.5
c-14.667 -122 -30.334 -206.667 -47.001 -254c-14 -42 -37 -72 -69 -90s-68.333 -24.667 -109 -20l-9 82c13.333 4 23.5 7.33301 30.5 10s15.5 8.33398 25.5 17.001s18 19.667 24 33c11.333 22.667 19.666 50.167 24.999 82.5s12 86.166 20 161.499c8 72 49.667 108 125 108
h209v-177zM483.001 85.001l90 -1c34.667 0 58.167 4.83301 70.5 14.5s18.5 29.5 18.5 59.5c0 28 -6.16699 47 -18.5 57s-35.833 15 -70.5 15h-90v-145z" />
    <glyph glyph-name="uni045A" unicode="&#x45a;" horiz-adv-x="822" 
d="M486 310l91.001 0.000976562c80 0 134.833 -11.167 164.5 -33.5s44.5 -63.5 44.5 -123.5c0 -60.667 -14.333 -102.334 -43 -125.001s-77.334 -34 -146.001 -34c-94.667 0 -169.667 2 -225 6v227h-190v-227h-112v490h112v-180h190v180h114v-180zM486.001 85.001l91 -1
c34 0 57.167 4.83301 69.5 14.5s18.5 29.167 18.5 58.5c0 27.333 -6 46 -18 56s-35.333 15 -70 15h-91v-143z" />
    <glyph glyph-name="uni045B" unicode="&#x45b;" horiz-adv-x="597" 
d="M215 485v-60c0 -30 -1.66699 -59.333 -5 -88c68.667 47.333 136.334 71 203.001 71c90 0 135.667 -45 137 -135v-264c0 -42.667 -10 -82.834 -30 -120.501s-47 -67.167 -81 -88.5l-67 53c37.333 44.667 56 96.334 56 155.001v229c0 24 -5.16699 40.833 -15.5 50.5
s-28.5 14.5 -54.5 14.5c-36.667 0 -84.334 -15.667 -143.001 -47v-255h-121v485h-71v64h71v151h121v-151h173v-64h-173z" />
    <glyph glyph-name="uni045C" unicode="&#x45c;" horiz-adv-x="551" 
d="M247 544l-38 54l188 147l62 -89zM330 257l-0.00292969 -2.99902c14 -1.33301 26.333 -3.33301 37 -6s21 -6.83398 31 -12.501s18.333 -11 25 -16s13.834 -13.5 21.501 -25.5s13.834 -22.5 18.501 -31.5s11 -23.5 19 -43.5s14.5 -37.5 19.5 -52.5l22.5 -66.5h-127
c-31.333 90.667 -55.333 148.167 -72 172.5s-44.667 36.833 -84 37.5h-5h-50c3.33301 -16.667 5 -31 5 -43v-167h-121v490h121v-134c0 -18.667 -2 -37.667 -6 -57h50c40 0 68.833 12.667 86.5 38s38.834 76.333 63.501 153h123c-30.667 -90 -52.667 -146 -66 -168
c-20 -32 -49.667 -52.333 -89 -61z" />
    <glyph glyph-name="uni045D" unicode="&#x45d;" horiz-adv-x="595" 
d="M356 598l-38 -54l-212 112l62 89zM524 0l-109 -0.000976562v283c0 2 1.66699 26.333 5 73h-3c-6.66699 -17.333 -18.667 -39.333 -36 -66l-211 -290h-100v490h108v-286c0 -24 -1.33301 -47 -4 -69h3c11.333 24.667 23.333 45.334 36 62.001l211 293h100v-490z" />
    <glyph glyph-name="uni045E" unicode="&#x45e;" horiz-adv-x="549" 
d="M344 708h85.998c4.66699 -41.333 -7.5 -76.166 -36.5 -104.499s-69.167 -42.5 -120.5 -42.5s-91.666 14.167 -120.999 42.5s-42 63.166 -38 104.499h86c-1.33301 -56 23 -84 73 -84c48.667 0 72.334 28 71.001 84zM534.998 490l-182 -504.999
c-25.333 -73.333 -61.333 -125 -108 -155c-46 -32 -113 -41.667 -201 -29l11 84c55.333 -3.33301 95.666 2.66699 120.999 18c25.333 16.667 47 45.667 65 87l4 10h-24c-22 0 -35.667 10 -41 30l-167 460h130l107 -337c8.66699 -30.667 14 -52.334 16 -65.001h13
c6.66699 19.333 13.334 41 20.001 65l105 337h131z" />
    <glyph glyph-name="uni045F" unicode="&#x45f;" horiz-adv-x="590" 
d="M520 490v-490h-176l-9 -164h-81l-9 164h-175v490h121v-397h209v397h120z" />
    <glyph glyph-name="uni0490" unicode="&#x490;" horiz-adv-x="531" 
d="M514 842l-0.000976562 -168l-6 -86h-248c-22 0 -37.333 -4.5 -46 -13.5s-13 -25.5 -13 -49.5v-525h-125v549c0 42 13 76.333 39 103s59 40 99 40c92.667 0 161.334 -1.66699 206.001 -5l12 155h82z" />
    <glyph glyph-name="uni0491" unicode="&#x491;" horiz-adv-x="477" 
d="M453 399l-213.999 -0.000976562c-17.333 0.666992 -30 -3.16602 -38 -11.499s-12 -21.5 -12 -39.5v-348h-121v381c0 76 39.333 114 118 114c81.333 0 141.666 -1 180.999 -3l12 144h80v-152z" />
    <glyph glyph-name="uni04B0" unicode="&#x4b0;" horiz-adv-x="598" 
d="M506 213h-142.998v-213h-126v213h-143v70h119l-203 407h132l126 -268c9.33301 -19.333 18.666 -47 27.999 -83h9c9.33301 36 18.666 63.667 27.999 83l126 268h130l-202 -407h119v-70z" />
    <glyph glyph-name="uni04B1" unicode="&#x4b1;" horiz-adv-x="600" 
d="M387 87l119 0.000976562v-75h-143v-207h-125v207h-144v75h119l-202 403h131l126 -264c6 -12.667 15.333 -40.334 28 -83.001h9c10 38.667 19 66.667 27 84l126 263h131z" />
    <glyph glyph-name="uni04B6" unicode="&#x4b6;" horiz-adv-x="675" 
d="M649 85l-0.000976562 -236.001h-87l-11 151h-112v292c-74.667 -34 -147.334 -51 -218.001 -51c-57.333 0 -99.666 13.333 -126.999 40s-41 67.667 -41 123v286h126v-260c-1.33301 -29.333 4.66699 -50.166 18 -62.499s36.333 -18.5 69 -18.5
c54.667 0 112.334 13 173.001 39v302h126v-605h84z" />
    <glyph glyph-name="uni04B7" unicode="&#x4b7;" horiz-adv-x="581" 
d="M471 -143l-10 143h-103v191c-61.333 -20 -119.333 -30 -174 -30c-90.667 0 -136 36.667 -136 110v219h120v-179c0 -20.667 4.16699 -35 12.5 -43s22.833 -12 43.5 -12c45.333 0 90 8.66699 134 26v208h120v-397h74v-236h-81z" />
    <glyph glyph-name="uni04BA" unicode="&#x4ba;" horiz-adv-x="642" 
d="M203 690l0.000976562 -290.999c73.333 33.333 146 50 218 50c57.333 0 99.666 -13.333 126.999 -40s41 -67.667 41 -123v-286h-125v260c0.666992 29.333 -5.66602 50.166 -18.999 62.499s-36.333 18.5 -69 18.5c-56.667 0 -114.334 -12.667 -173.001 -38v-303h-125v690
h125z" />
    <glyph glyph-name="uni04C0" unicode="&#x4c0;" horiz-adv-x="282" 
d="M204 0h-125v690h125v-690z" />
    <glyph glyph-name="Wgrave" unicode="&#x1e80;" horiz-adv-x="961" 
d="M541 777l-38 -54l-212 112l62 90zM932 690l-119 -654.999c-2.66699 -10.667 -8.16699 -19.167 -16.5 -25.5s-18.166 -9.5 -29.499 -9.5h-131c-26 0 -41.333 12 -46 36l-87 481c-3.33301 18 -7.66602 45 -12.999 81h-20c-6 -38.667 -10.333 -65.667 -13 -81l-86 -481
c-2 -10.667 -7.33301 -19.334 -16 -26.001s-19 -10 -31 -10h-130c-11.333 0 -21.333 3.16699 -30 9.5s-14 14.833 -16 25.5l-119 655h130l82 -503c4 -22.667 7.66699 -54 11 -94h21c6 38.667 11.333 70 16 94l85 463c4.66699 26.667 20 40 46 40h122
c11.333 0 21.166 -3.66699 29.499 -11s13.5 -17 15.5 -29l85 -464c6.66699 -33.333 11.334 -64.333 14.001 -93h22c1.33301 9.33301 3.16602 24.5 5.49902 45.5s4.16602 36.5 5.49902 46.5l83 505h130z" />
    <glyph glyph-name="wgrave" unicode="&#x1e81;" horiz-adv-x="834" 
d="M478 598l-38 -54l-212 112l62 89zM815 490l-129 -457.001c-5.33301 -22 -19.666 -33 -42.999 -33h-103c-25.333 0 -40.333 12.667 -45 38l-59 301c-1.33301 7.33301 -3.33301 20 -6 38s-5 32 -7 42h-12l-14 -80l-57 -301c-2 -11.333 -7.33301 -20.5 -16 -27.5
s-18.667 -10.5 -30 -10.5h-101c-25.333 0 -40 11 -44 33l-130 457h124l81 -337c7.33301 -30.667 11.666 -56.667 12.999 -78h13c1.33301 6 3 14.167 5 24.5l5.5 28.5c1.66699 8.66699 3.16699 17 4.5 25l60 301c4.66699 24 19 36 43 36h99c11.333 0 21 -3.33301 29 -10
s13 -15.667 15 -27l58 -300c1.33301 -10 3.83301 -24.167 7.5 -42.5s6.16699 -30.166 7.5 -35.499h13c6 40.667 10.333 66.667 13 78l81 337h124z" />
    <glyph glyph-name="Wacute" unicode="&#x1e82;" horiz-adv-x="961" 
d="M656 835l-213 -112l-38 54l188 148zM932 690l-119 -654.999c-2.66699 -10.667 -8.16699 -19.167 -16.5 -25.5s-18.166 -9.5 -29.499 -9.5h-131c-26 0 -41.333 12 -46 36l-87 481c-3.33301 18 -7.66602 45 -12.999 81h-20c-6 -38.667 -10.333 -65.667 -13 -81l-86 -481
c-2 -10.667 -7.33301 -19.334 -16 -26.001s-19 -10 -31 -10h-130c-11.333 0 -21.333 3.16699 -30 9.5s-14 14.833 -16 25.5l-119 655h130l82 -503c4 -22.667 7.66699 -54 11 -94h21c6 38.667 11.333 70 16 94l85 463c4.66699 26.667 20 40 46 40h122
c11.333 0 21.166 -3.66699 29.499 -11s13.5 -17 15.5 -29l85 -464c6.66699 -33.333 11.334 -64.333 14.001 -93h22c1.33301 9.33301 3.16602 24.5 5.49902 45.5s4.16602 36.5 5.49902 46.5l83 505h130z" />
    <glyph glyph-name="wacute" unicode="&#x1e83;" horiz-adv-x="834" 
d="M593 656l-213 -112l-38 54l188 147zM815 490l-129 -457.001c-5.33301 -22 -19.666 -33 -42.999 -33h-103c-25.333 0 -40.333 12.667 -45 38l-59 301c-1.33301 7.33301 -3.33301 20 -6 38s-5 32 -7 42h-12l-14 -80l-57 -301c-2 -11.333 -7.33301 -20.5 -16 -27.5
s-18.667 -10.5 -30 -10.5h-101c-25.333 0 -40 11 -44 33l-130 457h124l81 -337c7.33301 -30.667 11.666 -56.667 12.999 -78h13c1.33301 6 3 14.167 5 24.5l5.5 28.5c1.66699 8.66699 3.16699 17 4.5 25l60 301c4.66699 24 19 36 43 36h99c11.333 0 21 -3.33301 29 -10
s13 -15.667 15 -27l58 -300c1.33301 -10 3.83301 -24.167 7.5 -42.5s6.16699 -30.166 7.5 -35.499h13c6 40.667 10.333 66.667 13 78l81 337h124z" />
    <glyph glyph-name="Wdieresis" unicode="&#x1e84;" horiz-adv-x="961" 
d="M371 878h40c20 0 30 -10 30 -30v-56c0 -20 -10 -30 -30 -30h-40c-19.333 0 -29 10 -29 30v56c0 20 9.66699 30 29 30zM551 878h39c20 0 30 -10 30 -30v-56c0 -20 -10 -30 -30 -30h-39c-20.667 0 -31 10 -31 30v56c0 20 10.333 30 31 30zM932 690l-119 -654.999
c-2.66699 -10.667 -8.16699 -19.167 -16.5 -25.5s-18.166 -9.5 -29.499 -9.5h-131c-26 0 -41.333 12 -46 36l-87 481c-3.33301 18 -7.66602 45 -12.999 81h-20c-6 -38.667 -10.333 -65.667 -13 -81l-86 -481c-2 -10.667 -7.33301 -19.334 -16 -26.001s-19 -10 -31 -10h-130
c-11.333 0 -21.333 3.16699 -30 9.5s-14 14.833 -16 25.5l-119 655h130l82 -503c4 -22.667 7.66699 -54 11 -94h21c6 38.667 11.333 70 16 94l85 463c4.66699 26.667 20 40 46 40h122c11.333 0 21.166 -3.66699 29.499 -11s13.5 -17 15.5 -29l85 -464
c6.66699 -33.333 11.334 -64.333 14.001 -93h22c1.33301 9.33301 3.16602 24.5 5.49902 45.5s4.16602 36.5 5.49902 46.5l83 505h130z" />
    <glyph glyph-name="wdieresis" unicode="&#x1e85;" horiz-adv-x="834" 
d="M308 699h41c19.333 0 29 -10.333 29 -31v-55c0 -20 -9.66699 -30 -29 -30h-41c-19.333 0 -29 10 -29 30v55c0 20.667 9.66699 31 29 31zM488 699h39c20.667 0 31 -10.333 31 -31v-55c0 -20 -10.333 -30 -31 -30h-39c-20.667 0 -31 10 -31 30v55c0 20.667 10.333 31 31 31
zM815 490l-129 -457.001c-5.33301 -22 -19.666 -33 -42.999 -33h-103c-25.333 0 -40.333 12.667 -45 38l-59 301c-1.33301 7.33301 -3.33301 20 -6 38s-5 32 -7 42h-12l-14 -80l-57 -301c-2 -11.333 -7.33301 -20.5 -16 -27.5s-18.667 -10.5 -30 -10.5h-101
c-25.333 0 -40 11 -44 33l-130 457h124l81 -337c7.33301 -30.667 11.666 -56.667 12.999 -78h13c1.33301 6 3 14.167 5 24.5l5.5 28.5c1.66699 8.66699 3.16699 17 4.5 25l60 301c4.66699 24 19 36 43 36h99c11.333 0 21 -3.33301 29 -10s13 -15.667 15 -27l58 -300
c1.33301 -10 3.83301 -24.167 7.5 -42.5s6.16699 -30.166 7.5 -35.499h13c6 40.667 10.333 66.667 13 78l81 337h124z" />
    <glyph glyph-name="Ygrave" unicode="&#x1ef2;" horiz-adv-x="589" 
d="M316 724l-213 112l63 90l188 -148zM357 233v-233h-125v235l-227 455h132l126 -268c4.66699 -10.667 14 -38.334 28 -83.001h8c14 44.667 23.333 72.334 28 83.001l126 268h130z" />
    <glyph glyph-name="ygrave" unicode="&#x1ef3;" horiz-adv-x="546" 
d="M297 544l-212 112l62 89l188 -147zM533 490l-182.001 -504.997c-19.333 -55.333 -49 -101.333 -89 -138s-92.667 -53.334 -158 -50.001l-10 77c38.667 10.667 69.334 25.167 92.001 43.5s40 42.166 52 71.499l5 11h-24c-22 0 -35.667 10 -41 30l-166 460h129l107 -337
c6.66699 -20.667 12 -42.334 16 -65.001h14c2.66699 8 6.16699 19.333 10.5 34s7.5 25 9.5 31l105 337h130z" />
    <glyph glyph-name="endash" unicode="&#x2013;" horiz-adv-x="574" 
d="M510 211h-446v86h446v-86z" />
    <glyph glyph-name="emdash" unicode="&#x2014;" horiz-adv-x="874" 
d="M810 211h-746v86h746v-86z" />
    <glyph glyph-name="quoteleft" unicode="&#x2018;" horiz-adv-x="224" 
d="M128 474h-32.0029c-16 0 -27 2.83301 -33 8.5s-9 15.834 -9 30.501v58c0.666992 56.667 15.334 108.334 44.001 155.001l54 -14c-8.66699 -36.667 -13 -74.334 -13 -113.001c23.333 0 34.333 -11.667 33 -35v-51c-1.33301 -14.667 -5.16602 -24.834 -11.499 -30.501
s-17.166 -8.5 -32.499 -8.5z" />
    <glyph glyph-name="quoteright" unicode="&#x2019;" horiz-adv-x="221" 
d="M95 719h32.001c15.333 0 26 -2.83301 32 -8.5s9.33301 -15.834 10 -30.501v-58c-0.666992 -56.667 -15.334 -108.334 -44.001 -155.001l-54 14c8 32.667 12.333 70.334 13 113.001c-22.667 0 -34 11.667 -34 35v51c0.666992 14.667 4.5 24.834 11.5 30.501
s18.167 8.5 33.5 8.5z" />
    <glyph glyph-name="quotesinglbase" unicode="&#x201a;" horiz-adv-x="235" 
d="M103 127h32.002c15.333 0 26.166 -3 32.499 -9s9.5 -16.333 9.5 -31v-59c-0.666992 -57.333 -15.334 -109.333 -44.001 -156l-54 14c8.66699 36.667 13 75 13 115c-22.667 0 -34 11.667 -34 35v51c0.666992 14.667 4.5 25 11.5 31s18.167 9 33.5 9z" />
    <glyph glyph-name="quotedblleft" unicode="&#x201c;" horiz-adv-x="395" 
d="M128 474h-32.0029c-16 0 -27 2.83301 -33 8.5s-9 15.834 -9 30.501v58c0.666992 56.667 15.334 108.334 44.001 155.001l54 -14c-8.66699 -36.667 -13 -74.334 -13 -113.001c23.333 0 34.333 -11.667 33 -35v-51c-1.33301 -14.667 -5.16602 -24.834 -11.499 -30.501
s-17.166 -8.5 -32.499 -8.5zM298.997 474h-32.002c-15.333 0 -26.166 2.83301 -32.499 8.5s-9.5 15.834 -9.5 30.501v58c0.666992 56.667 15.334 108.334 44.001 155.001l54 -14c-8.66699 -36.667 -13 -74.334 -13 -113.001c22.667 0 34 -11.667 34 -35v-51
c-0.666992 -14.667 -4.5 -24.834 -11.5 -30.501s-18.167 -8.5 -33.5 -8.5z" />
    <glyph glyph-name="quotedblright" unicode="&#x201d;" horiz-adv-x="392" 
d="M95 719h32.001c15.333 0 26 -2.83301 32 -8.5s9.33301 -15.834 10 -30.501v-58c-0.666992 -56.667 -15.334 -108.334 -44.001 -155.001l-54 14c8 32.667 12.333 70.334 13 113.001c-22.667 0 -34 11.667 -34 35v51c0.666992 14.667 4.5 24.834 11.5 30.501
s18.167 8.5 33.5 8.5zM266.001 719h32c16 0 27 -2.83301 33 -8.5s9 -15.834 9 -30.501v-58c-0.666992 -56.667 -15.334 -108.334 -44.001 -155.001l-54 14c8.66699 36.667 13 74.334 13 113.001c-23.333 0 -34.333 11.667 -33 35v51
c0.666992 14.667 4.33398 24.834 11.001 30.501s17.667 8.5 33 8.5z" />
    <glyph glyph-name="quotedblbase" unicode="&#x201e;" horiz-adv-x="406" 
d="M103 124h32.002c15.333 0 26 -2.83301 32 -8.5s9.33301 -16.167 10 -31.5v-58c-0.666992 -57.333 -15.334 -109 -44.001 -155l-54 14c7.33301 32 11.666 70 12.999 114c-22.667 0 -34 11.333 -34 34v51c0.666992 14.667 4.5 25 11.5 31s18.167 9 33.5 9zM274.002 124h32
c16 0 27 -2.83301 33 -8.5s9 -16.167 9 -31.5v-58c-0.666992 -57.333 -15.334 -109 -44.001 -155l-54 14c8.66699 36.667 13 74.667 13 114c-23.333 0 -34.333 11.333 -33 34v51c0.666992 14.667 4.33398 25 11.001 31s17.667 9 33 9z" />
    <glyph glyph-name="dagger" unicode="&#x2020;" horiz-adv-x="464" 
d="M285 -110h-106l6 529v66l-6 206h106l-6 -206v-66zM428 490v-98l-129 12v86h129zM36 392v98h129v-86z" />
    <glyph glyph-name="daggerdbl" unicode="&#x2021;" horiz-adv-x="502" 
d="M298 489v-397l6 -202h-106l6 202v397l-6 202h106zM184 404l-129 -12v98h129v-86zM447 392l-129 12v86h129v-98zM447 91h-129v86l129 12v-98zM184 177v-86h-129v98z" />
    <glyph glyph-name="bullet" unicode="&#x2022;" horiz-adv-x="369" 
d="M180 371h13c35.333 0 60 -6.83301 74 -20.5s21 -38.167 21 -73.5v-14c0 -37.333 -7 -63.166 -21 -77.499s-38.667 -21.5 -74 -21.5h-13c-37.333 0 -63.166 7.16699 -77.499 21.5s-21.5 40.166 -21.5 77.499v14c0 35.333 7.16699 59.833 21.5 73.5
s40.166 20.5 77.499 20.5z" />
    <glyph glyph-name="ellipsis" unicode="&#x2026;" horiz-adv-x="880" 
d="M97 137h37c16 0 27.167 -3.16699 33.5 -9.5s9.5 -17.5 9.5 -33.5v-51c0 -16 -3.16699 -27.167 -9.5 -33.5s-17.5 -9.5 -33.5 -9.5h-37c-16 0 -27.167 3.16699 -33.5 9.5s-9.5 17.5 -9.5 33.5v51c0 16 3.16699 27.167 9.5 33.5s17.5 9.5 33.5 9.5zM417 137h37
c16 0 27.167 -3.16699 33.5 -9.5s9.5 -17.5 9.5 -33.5v-51c0 -16 -3.16699 -27.167 -9.5 -33.5s-17.5 -9.5 -33.5 -9.5h-37c-16 0 -27.167 3.16699 -33.5 9.5s-9.5 17.5 -9.5 33.5v51c0 16 3.16699 27.167 9.5 33.5s17.5 9.5 33.5 9.5zM737 137h37
c16 0 27.167 -3.16699 33.5 -9.5s9.5 -17.5 9.5 -33.5v-51c0 -16 -3.16699 -27.167 -9.5 -33.5s-17.5 -9.5 -33.5 -9.5h-37c-16 0 -27.167 3.16699 -33.5 9.5s-9.5 17.5 -9.5 33.5v51c0 16 3.16699 27.167 9.5 33.5s17.5 9.5 33.5 9.5z" />
    <glyph glyph-name="perthousand" unicode="&#x2030;" horiz-adv-x="1283" 
d="M206 703c62 0 105.333 -15.333 130 -46s37 -83.667 37 -159c0 -74.667 -12.5 -127.5 -37.5 -158.5s-68.167 -46.5 -129.5 -46.5s-104.5 15.5 -129.5 46.5s-37.5 83.833 -37.5 158.5c0 75.333 12.333 128.333 37 159s68 46 130 46zM276 0h-81l428 690h80zM205 631
c-29.333 0 -49.166 -9.16699 -59.499 -27.5s-15.5 -53.5 -15.5 -105.5c0 -52.667 5.16699 -88 15.5 -106s30.166 -27 59.499 -27c30 0 50.333 9 61 27s16 53.333 16 106c0 52 -5.33301 87.167 -16 105.5s-31 27.5 -61 27.5zM694 400c61.333 0 104.5 -15.5 129.5 -46.5
s37.5 -83.833 37.5 -158.5c0 -76 -12.333 -129.333 -37 -160s-68 -46 -130 -46c-61.333 0 -104.333 15.333 -129 46s-37 84 -37 160c0 74.667 12.333 127.5 37 158.5s67.667 46.5 129 46.5zM1075 400c61.333 0 104.333 -15.333 129 -46s37 -83.667 37 -159
c0 -76 -12.167 -129.333 -36.5 -160s-67.5 -46 -129.5 -46s-105.167 15.333 -129.5 46s-36.5 84 -36.5 160c0 75.333 12.333 128.333 37 159s67.667 46 129 46zM694 327c-30 0 -50.168 -9 -60.501 -27s-15.166 -53 -14.499 -105c-0.666992 -52 4.33301 -87.333 15 -106
s30.667 -28 60 -28s49.333 9.33301 60 28s16 54 16 106s-5.33301 87 -16 105s-30.667 27 -60 27zM1074 327c-29.333 0 -49.166 -9 -59.499 -27s-15.5 -53 -15.5 -105s5.16699 -87.333 15.5 -106s30.166 -28 59.499 -28c30 0 50.333 9.16699 61 27.5s16 53.833 16 106.5
c0 52 -5.33301 87 -16 105s-31 27 -61 27z" />
    </font>
</defs>
</svg>
